solid 
facet normal 0.0 0.0 -1.0
  outer loop
    vertex -2.0 2.0 -2.0
    vertex 2.0 2.0 -2.0
    vertex 2.0 -2.0 -2.0
  endloop
endfacet
facet normal 0.0 0.0 -1.0
  outer loop
    vertex -2.0 2.0 -2.0
    vertex 2.0 -2.0 -2.0
    vertex -2.0 -2.0 -2.0
  endloop
endfacet
facet normal 0.0 0.0 1.0
  outer loop
    vertex -2.0 -2.0 2.0
    vertex 2.0 -2.0 2.0
    vertex 2.0 2.0 2.0
  endloop
endfacet
facet normal 0.0 0.0 1.0
  outer loop
    vertex -2.0 -2.0 2.0
    vertex 2.0 2.0 2.0
    vertex -2.0 2.0 2.0
  endloop
endfacet
facet normal 0.0 0.0 -1.0
  outer loop
    vertex 0.0 0.0 4.0
    vertex 1.9842294026289558 0.2506664671286085 4.0
    vertex 2.0 0.0 4.0
  endloop
endfacet
facet normal 0.0 0.0 -1.0
  outer loop
    vertex 0.0 0.0 4.0
    vertex 1.9371663222572622 0.4973797743297096 4.0
    vertex 1.9842294026289558 0.2506664671286085 4.0
  endloop
endfacet
facet normal 0.0 0.0 -1.0
  outer loop
    vertex 0.0 0.0 4.0
    vertex 1.859552971776503 0.7362491053693558 4.0
    vertex 1.9371663222572622 0.4973797743297096 4.0
  endloop
endfacet
facet normal 0.0 0.0 -1.0
  outer loop
    vertex 0.0 0.0 4.0
    vertex 1.7526133600877272 0.9635073482034306 4.0
    vertex 1.859552971776503 0.7362491053693558 4.0
  endloop
endfacet
facet normal 0.0 0.0 -1.0
  outer loop
    vertex 0.0 0.0 4.0
    vertex 1.618033988749895 1.1755705045849463 4.0
    vertex 1.7526133600877272 0.9635073482034306 4.0
  endloop
endfacet
facet normal 0.0 0.0 -1.0
  outer loop
    vertex 0.0 0.0 4.0
    vertex 1.457937254842823 1.3690942118573772 4.0
    vertex 1.618033988749895 1.1755705045849463 4.0
  endloop
endfacet
facet normal 0.0 0.0 -1.0
  outer loop
    vertex 0.0 0.0 4.0
    vertex 1.2748479794973795 1.5410264855515785 4.0
    vertex 1.457937254842823 1.3690942118573772 4.0
  endloop
endfacet
facet normal 0.0 0.0 -1.0
  outer loop
    vertex 0.0 0.0 4.0
    vertex 1.071653589957993 1.6886558510040302 4.0
    vertex 1.2748479794973795 1.5410264855515785 4.0
  endloop
endfacet
facet normal 0.0 0.0 -1.0
  outer loop
    vertex 0.0 0.0 4.0
    vertex 0.8515585831301453 1.8096541049320392 4.0
    vertex 1.071653589957993 1.6886558510040302 4.0
  endloop
endfacet
facet normal 0.0 0.0 -1.0
  outer loop
    vertex 0.0 0.0 4.0
    vertex 0.6180339887498949 1.902113032590307 4.0
    vertex 0.8515585831301453 1.8096541049320392 4.0
  endloop
endfacet
facet normal 0.0 0.0 -1.0
  outer loop
    vertex 0.0 0.0 4.0
    vertex 0.3747626291714495 1.9645745014573772 4.0
    vertex 0.6180339887498949 1.902113032590307 4.0
  endloop
endfacet
facet normal 0.0 0.0 -1.0
  outer loop
    vertex 0.0 0.0 4.0
    vertex 0.12558103905862705 1.9960534568565431 4.0
    vertex 0.3747626291714495 1.9645745014573772 4.0
  endloop
endfacet
facet normal 0.0 0.0 -1.0
  outer loop
    vertex 0.0 0.0 4.0
    vertex -0.1255810390586268 1.9960534568565431 4.0
    vertex 0.12558103905862705 1.9960534568565431 4.0
  endloop
endfacet
facet normal 0.0 0.0 -1.0
  outer loop
    vertex 0.0 0.0 4.0
    vertex -0.3747626291714492 1.9645745014573774 4.0
    vertex -0.1255810390586268 1.9960534568565431 4.0
  endloop
endfacet
facet normal 0.0 0.0 -1.0
  outer loop
    vertex 0.0 0.0 4.0
    vertex -0.6180339887498942 1.9021130325903073 4.0
    vertex -0.3747626291714492 1.9645745014573774 4.0
  endloop
endfacet
facet normal 0.0 0.0 -1.0
  outer loop
    vertex 0.0 0.0 4.0
    vertex -0.8515585831301454 1.809654104932039 4.0
    vertex -0.6180339887498942 1.9021130325903073 4.0
  endloop
endfacet
facet normal 0.0 0.0 -1.0
  outer loop
    vertex 0.0 0.0 4.0
    vertex -1.0716535899579938 1.68865585100403 4.0
    vertex -0.8515585831301454 1.809654104932039 4.0
  endloop
endfacet
facet normal 0.0 0.0 -1.0
  outer loop
    vertex 0.0 0.0 4.0
    vertex -1.2748479794973795 1.5410264855515785 4.0
    vertex -1.0716535899579938 1.68865585100403 4.0
  endloop
endfacet
facet normal 0.0 0.0 -1.0
  outer loop
    vertex 0.0 0.0 4.0
    vertex -1.4579372548428227 1.3690942118573777 4.0
    vertex -1.2748479794973795 1.5410264855515785 4.0
  endloop
endfacet
facet normal 0.0 0.0 -1.0
  outer loop
    vertex 0.0 0.0 4.0
    vertex -1.6180339887498947 1.1755705045849465 4.0
    vertex -1.4579372548428227 1.3690942118573777 4.0
  endloop
endfacet
facet normal 0.0 0.0 -1.0
  outer loop
    vertex 0.0 0.0 4.0
    vertex -1.7526133600877272 0.9635073482034304 4.0
    vertex -1.6180339887498947 1.1755705045849465 4.0
  endloop
endfacet
facet normal 0.0 0.0 -1.0
  outer loop
    vertex 0.0 0.0 4.0
    vertex -1.8595529717765027 0.7362491053693563 4.0
    vertex -1.7526133600877272 0.9635073482034304 4.0
  endloop
endfacet
facet normal 0.0 0.0 -1.0
  outer loop
    vertex 0.0 0.0 4.0
    vertex -1.937166322257262 0.4973797743297105 4.0
    vertex -1.8595529717765027 0.7362491053693563 4.0
  endloop
endfacet
facet normal 0.0 0.0 -1.0
  outer loop
    vertex 0.0 0.0 4.0
    vertex -1.9842294026289555 0.25066646712860907 4.0
    vertex -1.937166322257262 0.4973797743297105 4.0
  endloop
endfacet
facet normal 0.0 0.0 -1.0
  outer loop
    vertex 0.0 0.0 4.0
    vertex -2.0 2.4492935982947064E-16 4.0
    vertex -1.9842294026289555 0.25066646712860907 4.0
  endloop
endfacet
facet normal -0.0 0.0 -1.0
  outer loop
    vertex 0.0 0.0 4.0
    vertex -1.9842294026289558 -0.25066646712860857 4.0
    vertex -2.0 2.4492935982947064E-16 4.0
  endloop
endfacet
facet normal 0.0 0.0 -1.0
  outer loop
    vertex 0.0 0.0 4.0
    vertex -1.9371663222572624 -0.49737977432970915 4.0
    vertex -1.9842294026289558 -0.25066646712860857 4.0
  endloop
endfacet
facet normal 0.0 0.0 -1.0
  outer loop
    vertex 0.0 0.0 4.0
    vertex -1.859552971776503 -0.7362491053693558 4.0
    vertex -1.9371663222572624 -0.49737977432970915 4.0
  endloop
endfacet
facet normal 0.0 0.0 -1.0
  outer loop
    vertex 0.0 0.0 4.0
    vertex -1.752613360087727 -0.9635073482034308 4.0
    vertex -1.859552971776503 -0.7362491053693558 4.0
  endloop
endfacet
facet normal 0.0 0.0 -1.0
  outer loop
    vertex 0.0 0.0 4.0
    vertex -1.6180339887498956 -1.1755705045849454 4.0
    vertex -1.752613360087727 -0.9635073482034308 4.0
  endloop
endfacet
facet normal 0.0 0.0 -1.0
  outer loop
    vertex 0.0 0.0 4.0
    vertex -1.4579372548428235 -1.3690942118573768 4.0
    vertex -1.6180339887498956 -1.1755705045849454 4.0
  endloop
endfacet
facet normal 0.0 0.0 -1.0
  outer loop
    vertex 0.0 0.0 4.0
    vertex -1.274847979497379 -1.5410264855515787 4.0
    vertex -1.4579372548428235 -1.3690942118573768 4.0
  endloop
endfacet
facet normal 0.0 0.0 -1.0
  outer loop
    vertex 0.0 0.0 4.0
    vertex -1.0716535899579926 -1.6886558510040306 4.0
    vertex -1.274847979497379 -1.5410264855515787 4.0
  endloop
endfacet
facet normal 0.0 0.0 -1.0
  outer loop
    vertex 0.0 0.0 4.0
    vertex -0.8515585831301443 -1.8096541049320396 4.0
    vertex -1.0716535899579926 -1.6886558510040306 4.0
  endloop
endfacet
facet normal 0.0 0.0 -1.0
  outer loop
    vertex 0.0 0.0 4.0
    vertex -0.6180339887498951 -1.902113032590307 4.0
    vertex -0.8515585831301443 -1.8096541049320396 4.0
  endloop
endfacet
facet normal 0.0 0.0 -1.0
  outer loop
    vertex 0.0 0.0 4.0
    vertex -0.37476262917144926 -1.9645745014573774 4.0
    vertex -0.6180339887498951 -1.902113032590307 4.0
  endloop
endfacet
facet normal 0.0 0.0 -1.0
  outer loop
    vertex 0.0 0.0 4.0
    vertex -0.12558103905862641 -1.9960534568565431 4.0
    vertex -0.37476262917144926 -1.9645745014573774 4.0
  endloop
endfacet
facet normal 0.0 -0.0 -1.0
  outer loop
    vertex 0.0 0.0 4.0
    vertex 0.12558103905862567 -1.9960534568565431 4.0
    vertex -0.12558103905862641 -1.9960534568565431 4.0
  endloop
endfacet
facet normal 0.0 0.0 -1.0
  outer loop
    vertex 0.0 0.0 4.0
    vertex 0.37476262917144854 -1.9645745014573774 4.0
    vertex 0.12558103905862567 -1.9960534568565431 4.0
  endloop
endfacet
facet normal 0.0 0.0 -1.0
  outer loop
    vertex 0.0 0.0 4.0
    vertex 0.6180339887498945 -1.9021130325903073 4.0
    vertex 0.37476262917144854 -1.9645745014573774 4.0
  endloop
endfacet
facet normal 0.0 0.0 -1.0
  outer loop
    vertex 0.0 0.0 4.0
    vertex 0.8515585831301437 -1.8096541049320398 4.0
    vertex 0.6180339887498945 -1.9021130325903073 4.0
  endloop
endfacet
facet normal 0.0 0.0 -1.0
  outer loop
    vertex 0.0 0.0 4.0
    vertex 1.0716535899579935 -1.68865585100403 4.0
    vertex 0.8515585831301437 -1.8096541049320398 4.0
  endloop
endfacet
facet normal 0.0 0.0 -1.0
  outer loop
    vertex 0.0 0.0 4.0
    vertex 1.2748479794973786 -1.5410264855515792 4.0
    vertex 1.0716535899579935 -1.68865585100403 4.0
  endloop
endfacet
facet normal 0.0 0.0 -1.0
  outer loop
    vertex 0.0 0.0 4.0
    vertex 1.4579372548428224 -1.369094211857378 4.0
    vertex 1.2748479794973786 -1.5410264855515792 4.0
  endloop
endfacet
facet normal 0.0 0.0 -1.0
  outer loop
    vertex 0.0 0.0 4.0
    vertex 1.6180339887498947 -1.1755705045849467 4.0
    vertex 1.4579372548428224 -1.369094211857378 4.0
  endloop
endfacet
facet normal 0.0 0.0 -1.0
  outer loop
    vertex 0.0 0.0 4.0
    vertex 1.7526133600877263 -0.9635073482034322 4.0
    vertex 1.6180339887498947 -1.1755705045849467 4.0
  endloop
endfacet
facet normal 0.0 0.0 -1.0
  outer loop
    vertex 0.0 0.0 4.0
    vertex 1.859552971776503 -0.7362491053693557 4.0
    vertex 1.7526133600877263 -0.9635073482034322 4.0
  endloop
endfacet
facet normal 0.0 0.0 -1.0
  outer loop
    vertex 0.0 0.0 4.0
    vertex 1.937166322257262 -0.4973797743297107 4.0
    vertex 1.859552971776503 -0.7362491053693557 4.0
  endloop
endfacet
facet normal 0.0 0.0 -1.0
  outer loop
    vertex 0.0 0.0 4.0
    vertex 1.9842294026289555 -0.2506664671286093 4.0
    vertex 1.937166322257262 -0.4973797743297107 4.0
  endloop
endfacet
facet normal 0.0 0.0 -1.0
  outer loop
    vertex 0.0 0.0 4.0
    vertex 2.0 0.0 4.0
    vertex 1.9842294026289555 -0.2506664671286093 4.0
  endloop
endfacet
facet normal 0.9980267284282717 0.06279051952931303 -0.0
  outer loop
    vertex 2.0 0.0 4.0
    vertex 1.9842294026289558 0.2506664671286085 4.0
    vertex 2.0 0.0 5.0
  endloop
endfacet
facet normal 0.9980267284282717 0.06279051952931303 -0.0
  outer loop
    vertex 1.9842294026289558 0.2506664671286085 4.0
    vertex 1.9842294026289558 0.2506664671286085 5.0
    vertex 2.0 0.0 5.0
  endloop
endfacet
facet normal 0.9822872507286886 0.18738131458572532 -0.0
  outer loop
    vertex 1.9842294026289558 0.2506664671286085 4.0
    vertex 1.9371663222572622 0.4973797743297096 4.0
    vertex 1.9842294026289558 0.2506664671286085 5.0
  endloop
endfacet
facet normal 0.9822872507286886 0.18738131458572532 -0.0
  outer loop
    vertex 1.9371663222572622 0.4973797743297096 4.0
    vertex 1.9371663222572622 0.4973797743297096 5.0
    vertex 1.9842294026289558 0.2506664671286085 5.0
  endloop
endfacet
facet normal 0.9510565162951539 0.30901699437494684 -0.0
  outer loop
    vertex 1.9371663222572622 0.4973797743297096 4.0
    vertex 1.859552971776503 0.7362491053693558 4.0
    vertex 1.9371663222572622 0.4973797743297096 5.0
  endloop
endfacet
facet normal 0.9510565162951539 0.30901699437494684 -0.0
  outer loop
    vertex 1.859552971776503 0.7362491053693558 4.0
    vertex 1.859552971776503 0.7362491053693558 5.0
    vertex 1.9371663222572622 0.4973797743297096 5.0
  endloop
endfacet
facet normal 0.9048270524660195 0.42577929156507277 -0.0
  outer loop
    vertex 1.859552971776503 0.7362491053693558 4.0
    vertex 1.7526133600877272 0.9635073482034306 4.0
    vertex 1.859552971776503 0.7362491053693558 5.0
  endloop
endfacet
facet normal 0.9048270524660195 0.42577929156507277 -0.0
  outer loop
    vertex 1.7526133600877272 0.9635073482034306 4.0
    vertex 1.7526133600877272 0.9635073482034306 5.0
    vertex 1.859552971776503 0.7362491053693558 5.0
  endloop
endfacet
facet normal 0.8443279255020152 0.5358267949789967 -0.0
  outer loop
    vertex 1.7526133600877272 0.9635073482034306 4.0
    vertex 1.618033988749895 1.1755705045849463 4.0
    vertex 1.7526133600877272 0.9635073482034306 5.0
  endloop
endfacet
facet normal 0.8443279255020152 0.5358267949789967 -0.0
  outer loop
    vertex 1.618033988749895 1.1755705045849463 4.0
    vertex 1.618033988749895 1.1755705045849463 5.0
    vertex 1.7526133600877272 0.9635073482034306 5.0
  endloop
endfacet
facet normal 0.770513242775789 0.63742398974869 -0.0
  outer loop
    vertex 1.618033988749895 1.1755705045849463 4.0
    vertex 1.457937254842823 1.3690942118573772 4.0
    vertex 1.618033988749895 1.1755705045849463 5.0
  endloop
endfacet
facet normal 0.770513242775789 0.63742398974869 -0.0
  outer loop
    vertex 1.457937254842823 1.3690942118573772 4.0
    vertex 1.457937254842823 1.3690942118573772 5.0
    vertex 1.618033988749895 1.1755705045849463 5.0
  endloop
endfacet
facet normal 0.6845471059286891 0.7289686274214112 -0.0
  outer loop
    vertex 1.457937254842823 1.3690942118573772 4.0
    vertex 1.2748479794973795 1.5410264855515785 4.0
    vertex 1.457937254842823 1.3690942118573772 5.0
  endloop
endfacet
facet normal 0.6845471059286891 0.7289686274214112 -0.0
  outer loop
    vertex 1.2748479794973795 1.5410264855515785 4.0
    vertex 1.2748479794973795 1.5410264855515785 5.0
    vertex 1.457937254842823 1.3690942118573772 5.0
  endloop
endfacet
facet normal 0.5877852522924726 0.8090169943749478 -0.0
  outer loop
    vertex 1.2748479794973795 1.5410264855515785 4.0
    vertex 1.071653589957993 1.6886558510040302 4.0
    vertex 1.2748479794973795 1.5410264855515785 5.0
  endloop
endfacet
facet normal 0.5877852522924726 0.8090169943749478 -0.0
  outer loop
    vertex 1.071653589957993 1.6886558510040302 4.0
    vertex 1.071653589957993 1.6886558510040302 5.0
    vertex 1.2748479794973795 1.5410264855515785 5.0
  endloop
endfacet
facet normal 0.48175367410171593 0.8763066800438634 -0.0
  outer loop
    vertex 1.071653589957993 1.6886558510040302 4.0
    vertex 0.8515585831301453 1.8096541049320392 4.0
    vertex 1.071653589957993 1.6886558510040302 5.0
  endloop
endfacet
facet normal 0.48175367410171593 0.8763066800438634 -0.0
  outer loop
    vertex 0.8515585831301453 1.8096541049320392 4.0
    vertex 0.8515585831301453 1.8096541049320392 5.0
    vertex 1.071653589957993 1.6886558510040302 5.0
  endloop
endfacet
facet normal 0.3681245526846774 0.9297764858882517 -0.0
  outer loop
    vertex 0.8515585831301453 1.8096541049320392 4.0
    vertex 0.6180339887498949 1.902113032590307 4.0
    vertex 0.8515585831301453 1.8096541049320392 5.0
  endloop
endfacet
facet normal 0.3681245526846774 0.9297764858882517 -0.0
  outer loop
    vertex 0.6180339887498949 1.902113032590307 4.0
    vertex 0.6180339887498949 1.902113032590307 5.0
    vertex 0.8515585831301453 1.8096541049320392 5.0
  endloop
endfacet
facet normal 0.2486898871648547 0.9685831611286312 -0.0
  outer loop
    vertex 0.6180339887498949 1.902113032590307 4.0
    vertex 0.3747626291714495 1.9645745014573772 4.0
    vertex 0.6180339887498949 1.902113032590307 5.0
  endloop
endfacet
facet normal 0.2486898871648547 0.9685831611286312 -0.0
  outer loop
    vertex 0.3747626291714495 1.9645745014573772 4.0
    vertex 0.3747626291714495 1.9645745014573772 5.0
    vertex 0.6180339887498949 1.902113032590307 5.0
  endloop
endfacet
facet normal 0.1253332335643048 0.9921147013144778 -0.0
  outer loop
    vertex 0.3747626291714495 1.9645745014573772 4.0
    vertex 0.12558103905862705 1.9960534568565431 4.0
    vertex 0.3747626291714495 1.9645745014573772 5.0
  endloop
endfacet
facet normal 0.1253332335643048 0.9921147013144778 -0.0
  outer loop
    vertex 0.12558103905862705 1.9960534568565431 4.0
    vertex 0.12558103905862705 1.9960534568565431 5.0
    vertex 0.3747626291714495 1.9645745014573772 5.0
  endloop
endfacet
facet normal 0.0 1.0 -0.0
  outer loop
    vertex 0.12558103905862705 1.9960534568565431 4.0
    vertex -0.1255810390586268 1.9960534568565431 4.0
    vertex 0.12558103905862705 1.9960534568565431 5.0
  endloop
endfacet
facet normal 0.0 1.0 0.0
  outer loop
    vertex -0.1255810390586268 1.9960534568565431 4.0
    vertex -0.1255810390586268 1.9960534568565431 5.0
    vertex 0.12558103905862705 1.9960534568565431 5.0
  endloop
endfacet
facet normal -0.12533323356430395 0.9921147013144779 0.0
  outer loop
    vertex -0.1255810390586268 1.9960534568565431 4.0
    vertex -0.3747626291714492 1.9645745014573774 4.0
    vertex -0.1255810390586268 1.9960534568565431 5.0
  endloop
endfacet
facet normal -0.12533323356430395 0.9921147013144779 0.0
  outer loop
    vertex -0.3747626291714492 1.9645745014573774 4.0
    vertex -0.3747626291714492 1.9645745014573774 5.0
    vertex -0.1255810390586268 1.9960534568565431 5.0
  endloop
endfacet
facet normal -0.2486898871648551 0.9685831611286311 0.0
  outer loop
    vertex -0.3747626291714492 1.9645745014573774 4.0
    vertex -0.6180339887498942 1.9021130325903073 4.0
    vertex -0.3747626291714492 1.9645745014573774 5.0
  endloop
endfacet
facet normal -0.2486898871648551 0.9685831611286311 0.0
  outer loop
    vertex -0.6180339887498942 1.9021130325903073 4.0
    vertex -0.6180339887498942 1.9021130325903073 5.0
    vertex -0.3747626291714492 1.9645745014573774 5.0
  endloop
endfacet
facet normal -0.36812455268467786 0.9297764858882516 0.0
  outer loop
    vertex -0.6180339887498942 1.9021130325903073 4.0
    vertex -0.8515585831301454 1.809654104932039 4.0
    vertex -0.6180339887498942 1.9021130325903073 5.0
  endloop
endfacet
facet normal -0.36812455268467786 0.9297764858882516 0.0
  outer loop
    vertex -0.8515585831301454 1.809654104932039 4.0
    vertex -0.8515585831301454 1.809654104932039 5.0
    vertex -0.6180339887498942 1.9021130325903073 5.0
  endloop
endfacet
facet normal -0.481753674101715 0.8763066800438638 0.0
  outer loop
    vertex -0.8515585831301454 1.809654104932039 4.0
    vertex -1.0716535899579938 1.68865585100403 4.0
    vertex -0.8515585831301454 1.809654104932039 5.0
  endloop
endfacet
facet normal -0.481753674101715 0.8763066800438638 0.0
  outer loop
    vertex -1.0716535899579938 1.68865585100403 4.0
    vertex -1.0716535899579938 1.68865585100403 5.0
    vertex -0.8515585831301454 1.809654104932039 5.0
  endloop
endfacet
facet normal -0.5877852522924734 0.8090169943749473 0.0
  outer loop
    vertex -1.0716535899579938 1.68865585100403 4.0
    vertex -1.2748479794973795 1.5410264855515785 4.0
    vertex -1.0716535899579938 1.68865585100403 5.0
  endloop
endfacet
facet normal -0.5877852522924734 0.8090169943749473 0.0
  outer loop
    vertex -1.2748479794973795 1.5410264855515785 4.0
    vertex -1.2748479794973795 1.5410264855515785 5.0
    vertex -1.0716535899579938 1.68865585100403 5.0
  endloop
endfacet
facet normal -0.684547105928689 0.7289686274214112 0.0
  outer loop
    vertex -1.2748479794973795 1.5410264855515785 4.0
    vertex -1.4579372548428227 1.3690942118573777 4.0
    vertex -1.2748479794973795 1.5410264855515785 5.0
  endloop
endfacet
facet normal -0.684547105928689 0.7289686274214112 0.0
  outer loop
    vertex -1.4579372548428227 1.3690942118573777 4.0
    vertex -1.4579372548428227 1.3690942118573777 5.0
    vertex -1.2748479794973795 1.5410264855515785 5.0
  endloop
endfacet
facet normal -0.7705132427757889 0.6374239897486901 0.0
  outer loop
    vertex -1.4579372548428227 1.3690942118573777 4.0
    vertex -1.6180339887498947 1.1755705045849465 4.0
    vertex -1.4579372548428227 1.3690942118573777 5.0
  endloop
endfacet
facet normal -0.7705132427757889 0.6374239897486901 0.0
  outer loop
    vertex -1.6180339887498947 1.1755705045849465 4.0
    vertex -1.6180339887498947 1.1755705045849465 5.0
    vertex -1.4579372548428227 1.3690942118573777 5.0
  endloop
endfacet
facet normal -0.8443279255020153 0.5358267949789964 0.0
  outer loop
    vertex -1.6180339887498947 1.1755705045849465 4.0
    vertex -1.7526133600877272 0.9635073482034304 4.0
    vertex -1.6180339887498947 1.1755705045849465 5.0
  endloop
endfacet
facet normal -0.8443279255020153 0.5358267949789964 0.0
  outer loop
    vertex -1.7526133600877272 0.9635073482034304 4.0
    vertex -1.7526133600877272 0.9635073482034304 5.0
    vertex -1.6180339887498947 1.1755705045849465 5.0
  endloop
endfacet
facet normal -0.9048270524660195 0.4257792915650731 0.0
  outer loop
    vertex -1.7526133600877272 0.9635073482034304 4.0
    vertex -1.8595529717765027 0.7362491053693563 4.0
    vertex -1.7526133600877272 0.9635073482034304 5.0
  endloop
endfacet
facet normal -0.9048270524660195 0.4257792915650731 0.0
  outer loop
    vertex -1.8595529717765027 0.7362491053693563 4.0
    vertex -1.8595529717765027 0.7362491053693563 5.0
    vertex -1.7526133600877272 0.9635073482034304 5.0
  endloop
endfacet
facet normal -0.9510565162951536 0.3090169943749474 0.0
  outer loop
    vertex -1.8595529717765027 0.7362491053693563 4.0
    vertex -1.937166322257262 0.4973797743297105 4.0
    vertex -1.8595529717765027 0.7362491053693563 5.0
  endloop
endfacet
facet normal -0.9510565162951536 0.3090169943749474 0.0
  outer loop
    vertex -1.937166322257262 0.4973797743297105 4.0
    vertex -1.937166322257262 0.4973797743297105 5.0
    vertex -1.8595529717765027 0.7362491053693563 5.0
  endloop
endfacet
facet normal -0.9822872507286886 0.18738131458572507 0.0
  outer loop
    vertex -1.937166322257262 0.4973797743297105 4.0
    vertex -1.9842294026289555 0.25066646712860907 4.0
    vertex -1.937166322257262 0.4973797743297105 5.0
  endloop
endfacet
facet normal -0.9822872507286886 0.18738131458572507 0.0
  outer loop
    vertex -1.9842294026289555 0.25066646712860907 4.0
    vertex -1.9842294026289555 0.25066646712860907 5.0
    vertex -1.937166322257262 0.4973797743297105 5.0
  endloop
endfacet
facet normal -0.9980267284282716 0.06279051952931382 0.0
  outer loop
    vertex -1.9842294026289555 0.25066646712860907 4.0
    vertex -2.0 2.4492935982947064E-16 4.0
    vertex -1.9842294026289555 0.25066646712860907 5.0
  endloop
endfacet
facet normal -0.9980267284282716 0.06279051952931382 0.0
  outer loop
    vertex -2.0 2.4492935982947064E-16 4.0
    vertex -2.0 2.4492935982947064E-16 5.0
    vertex -1.9842294026289555 0.25066646712860907 5.0
  endloop
endfacet
facet normal -0.9980267284282717 -0.06279051952931296 0.0
  outer loop
    vertex -2.0 2.4492935982947064E-16 4.0
    vertex -1.9842294026289558 -0.25066646712860857 4.0
    vertex -2.0 2.4492935982947064E-16 5.0
  endloop
endfacet
facet normal -0.9980267284282717 -0.06279051952931296 0.0
  outer loop
    vertex -1.9842294026289558 -0.25066646712860857 4.0
    vertex -1.9842294026289558 -0.25066646712860857 5.0
    vertex -2.0 2.4492935982947064E-16 5.0
  endloop
endfacet
facet normal -0.9822872507286887 -0.18738131458572485 0.0
  outer loop
    vertex -1.9842294026289558 -0.25066646712860857 4.0
    vertex -1.9371663222572624 -0.49737977432970915 4.0
    vertex -1.9842294026289558 -0.25066646712860857 5.0
  endloop
endfacet
facet normal -0.9822872507286887 -0.18738131458572485 0.0
  outer loop
    vertex -1.9371663222572624 -0.49737977432970915 4.0
    vertex -1.9371663222572624 -0.49737977432970915 5.0
    vertex -1.9842294026289558 -0.25066646712860857 5.0
  endloop
endfacet
facet normal -0.9510565162951538 -0.3090169943749471 0.0
  outer loop
    vertex -1.9371663222572624 -0.49737977432970915 4.0
    vertex -1.859552971776503 -0.7362491053693558 4.0
    vertex -1.9371663222572624 -0.49737977432970915 5.0
  endloop
endfacet
facet normal -0.9510565162951538 -0.3090169943749471 0.0
  outer loop
    vertex -1.859552971776503 -0.7362491053693558 4.0
    vertex -1.859552971776503 -0.7362491053693558 5.0
    vertex -1.9371663222572624 -0.49737977432970915 5.0
  endloop
endfacet
facet normal -0.9048270524660194 -0.4257792915650733 0.0
  outer loop
    vertex -1.859552971776503 -0.7362491053693558 4.0
    vertex -1.752613360087727 -0.9635073482034308 4.0
    vertex -1.859552971776503 -0.7362491053693558 5.0
  endloop
endfacet
facet normal -0.9048270524660194 -0.4257792915650733 0.0
  outer loop
    vertex -1.752613360087727 -0.9635073482034308 4.0
    vertex -1.752613360087727 -0.9635073482034308 5.0
    vertex -1.859552971776503 -0.7362491053693558 5.0
  endloop
endfacet
facet normal -0.8443279255020156 -0.5358267949789959 0.0
  outer loop
    vertex -1.752613360087727 -0.9635073482034308 4.0
    vertex -1.6180339887498956 -1.1755705045849454 4.0
    vertex -1.752613360087727 -0.9635073482034308 5.0
  endloop
endfacet
facet normal -0.8443279255020156 -0.5358267949789959 0.0
  outer loop
    vertex -1.6180339887498956 -1.1755705045849454 4.0
    vertex -1.6180339887498956 -1.1755705045849454 5.0
    vertex -1.752613360087727 -0.9635073482034308 5.0
  endloop
endfacet
facet normal -0.7705132427757894 -0.6374239897486897 0.0
  outer loop
    vertex -1.6180339887498956 -1.1755705045849454 4.0
    vertex -1.4579372548428235 -1.3690942118573768 4.0
    vertex -1.6180339887498956 -1.1755705045849454 5.0
  endloop
endfacet
facet normal -0.7705132427757894 -0.6374239897486897 0.0
  outer loop
    vertex -1.4579372548428235 -1.3690942118573768 4.0
    vertex -1.4579372548428235 -1.3690942118573768 5.0
    vertex -1.6180339887498956 -1.1755705045849454 5.0
  endloop
endfacet
facet normal -0.6845471059286887 -0.7289686274214116 0.0
  outer loop
    vertex -1.4579372548428235 -1.3690942118573768 4.0
    vertex -1.274847979497379 -1.5410264855515787 4.0
    vertex -1.4579372548428235 -1.3690942118573768 5.0
  endloop
endfacet
facet normal -0.6845471059286887 -0.7289686274214116 0.0
  outer loop
    vertex -1.274847979497379 -1.5410264855515787 4.0
    vertex -1.274847979497379 -1.5410264855515787 5.0
    vertex -1.4579372548428235 -1.3690942118573768 5.0
  endloop
endfacet
facet normal -0.5877852522924731 -0.8090169943749475 0.0
  outer loop
    vertex -1.274847979497379 -1.5410264855515787 4.0
    vertex -1.0716535899579926 -1.6886558510040306 4.0
    vertex -1.274847979497379 -1.5410264855515787 5.0
  endloop
endfacet
facet normal -0.5877852522924731 -0.8090169943749475 0.0
  outer loop
    vertex -1.0716535899579926 -1.6886558510040306 4.0
    vertex -1.0716535899579926 -1.6886558510040306 5.0
    vertex -1.274847979497379 -1.5410264855515787 5.0
  endloop
endfacet
facet normal -0.481753674101715 -0.8763066800438638 0.0
  outer loop
    vertex -1.0716535899579926 -1.6886558510040306 4.0
    vertex -0.8515585831301443 -1.8096541049320396 4.0
    vertex -1.0716535899579926 -1.6886558510040306 5.0
  endloop
endfacet
facet normal -0.481753674101715 -0.8763066800438638 0.0
  outer loop
    vertex -0.8515585831301443 -1.8096541049320396 4.0
    vertex -0.8515585831301443 -1.8096541049320396 5.0
    vertex -1.0716535899579926 -1.6886558510040306 5.0
  endloop
endfacet
facet normal -0.36812455268467753 -0.9297764858882516 0.0
  outer loop
    vertex -0.8515585831301443 -1.8096541049320396 4.0
    vertex -0.6180339887498951 -1.902113032590307 4.0
    vertex -0.8515585831301443 -1.8096541049320396 5.0
  endloop
endfacet
facet normal -0.36812455268467753 -0.9297764858882516 0.0
  outer loop
    vertex -0.6180339887498951 -1.902113032590307 4.0
    vertex -0.6180339887498951 -1.902113032590307 5.0
    vertex -0.8515585831301443 -1.8096541049320396 5.0
  endloop
endfacet
facet normal -0.24868988716485513 -0.9685831611286311 0.0
  outer loop
    vertex -0.6180339887498951 -1.902113032590307 4.0
    vertex -0.37476262917144926 -1.9645745014573774 4.0
    vertex -0.6180339887498951 -1.902113032590307 5.0
  endloop
endfacet
facet normal -0.24868988716485513 -0.9685831611286311 0.0
  outer loop
    vertex -0.37476262917144926 -1.9645745014573774 4.0
    vertex -0.37476262917144926 -1.9645745014573774 5.0
    vertex -0.6180339887498951 -1.902113032590307 5.0
  endloop
endfacet
facet normal -0.12533323356430373 -0.9921147013144779 0.0
  outer loop
    vertex -0.37476262917144926 -1.9645745014573774 4.0
    vertex -0.12558103905862641 -1.9960534568565431 4.0
    vertex -0.37476262917144926 -1.9645745014573774 5.0
  endloop
endfacet
facet normal -0.12533323356430373 -0.9921147013144779 0.0
  outer loop
    vertex -0.12558103905862641 -1.9960534568565431 4.0
    vertex -0.12558103905862641 -1.9960534568565431 5.0
    vertex -0.37476262917144926 -1.9645745014573774 5.0
  endloop
endfacet
facet normal 0.0 -1.0 0.0
  outer loop
    vertex -0.12558103905862641 -1.9960534568565431 4.0
    vertex 0.12558103905862567 -1.9960534568565431 4.0
    vertex -0.12558103905862641 -1.9960534568565431 5.0
  endloop
endfacet
facet normal 0.0 -1.0 0.0
  outer loop
    vertex 0.12558103905862567 -1.9960534568565431 4.0
    vertex 0.12558103905862567 -1.9960534568565431 5.0
    vertex -0.12558103905862641 -1.9960534568565431 5.0
  endloop
endfacet
facet normal 0.12533323356430373 -0.9921147013144779 0.0
  outer loop
    vertex 0.12558103905862567 -1.9960534568565431 4.0
    vertex 0.37476262917144854 -1.9645745014573774 4.0
    vertex 0.12558103905862567 -1.9960534568565431 5.0
  endloop
endfacet
facet normal 0.12533323356430373 -0.9921147013144779 0.0
  outer loop
    vertex 0.37476262917144854 -1.9645745014573774 4.0
    vertex 0.37476262917144854 -1.9645745014573774 5.0
    vertex 0.12558103905862567 -1.9960534568565431 5.0
  endloop
endfacet
facet normal 0.24868988716485427 -0.9685831611286313 0.0
  outer loop
    vertex 0.37476262917144854 -1.9645745014573774 4.0
    vertex 0.6180339887498945 -1.9021130325903073 4.0
    vertex 0.37476262917144854 -1.9645745014573774 5.0
  endloop
endfacet
facet normal 0.24868988716485427 -0.9685831611286313 0.0
  outer loop
    vertex 0.6180339887498945 -1.9021130325903073 4.0
    vertex 0.6180339887498945 -1.9021130325903073 5.0
    vertex 0.37476262917144854 -1.9645745014573774 5.0
  endloop
endfacet
facet normal 0.36812455268467753 -0.9297764858882516 0.0
  outer loop
    vertex 0.6180339887498945 -1.9021130325903073 4.0
    vertex 0.8515585831301437 -1.8096541049320398 4.0
    vertex 0.6180339887498945 -1.9021130325903073 5.0
  endloop
endfacet
facet normal 0.36812455268467753 -0.9297764858882516 0.0
  outer loop
    vertex 0.8515585831301437 -1.8096541049320398 4.0
    vertex 0.8515585831301437 -1.8096541049320398 5.0
    vertex 0.6180339887498945 -1.9021130325903073 5.0
  endloop
endfacet
facet normal 0.4817536741017151 -0.8763066800438638 0.0
  outer loop
    vertex 0.8515585831301437 -1.8096541049320398 4.0
    vertex 1.0716535899579935 -1.68865585100403 4.0
    vertex 0.8515585831301437 -1.8096541049320398 5.0
  endloop
endfacet
facet normal 0.4817536741017151 -0.8763066800438638 0.0
  outer loop
    vertex 1.0716535899579935 -1.68865585100403 4.0
    vertex 1.0716535899579935 -1.68865585100403 5.0
    vertex 0.8515585831301437 -1.8096541049320398 5.0
  endloop
endfacet
facet normal 0.5877852522924728 -0.8090169943749477 0.0
  outer loop
    vertex 1.0716535899579935 -1.68865585100403 4.0
    vertex 1.2748479794973786 -1.5410264855515792 4.0
    vertex 1.0716535899579935 -1.68865585100403 5.0
  endloop
endfacet
facet normal 0.5877852522924728 -0.8090169943749477 0.0
  outer loop
    vertex 1.2748479794973786 -1.5410264855515792 4.0
    vertex 1.2748479794973786 -1.5410264855515792 5.0
    vertex 1.0716535899579935 -1.68865585100403 5.0
  endloop
endfacet
facet normal 0.6845471059286886 -0.7289686274214116 0.0
  outer loop
    vertex 1.2748479794973786 -1.5410264855515792 4.0
    vertex 1.4579372548428224 -1.369094211857378 4.0
    vertex 1.2748479794973786 -1.5410264855515792 5.0
  endloop
endfacet
facet normal 0.6845471059286886 -0.7289686274214116 0.0
  outer loop
    vertex 1.4579372548428224 -1.369094211857378 4.0
    vertex 1.4579372548428224 -1.369094211857378 5.0
    vertex 1.2748479794973786 -1.5410264855515792 5.0
  endloop
endfacet
facet normal 0.7705132427757886 -0.6374239897486906 0.0
  outer loop
    vertex 1.4579372548428224 -1.369094211857378 4.0
    vertex 1.6180339887498947 -1.1755705045849467 4.0
    vertex 1.4579372548428224 -1.369094211857378 5.0
  endloop
endfacet
facet normal 0.7705132427757886 -0.6374239897486906 0.0
  outer loop
    vertex 1.6180339887498947 -1.1755705045849467 4.0
    vertex 1.6180339887498947 -1.1755705045849467 5.0
    vertex 1.4579372548428224 -1.369094211857378 5.0
  endloop
endfacet
facet normal 0.8443279255020151 -0.5358267949789967 0.0
  outer loop
    vertex 1.6180339887498947 -1.1755705045849467 4.0
    vertex 1.7526133600877263 -0.9635073482034322 4.0
    vertex 1.6180339887498947 -1.1755705045849467 5.0
  endloop
endfacet
facet normal 0.8443279255020151 -0.5358267949789967 0.0
  outer loop
    vertex 1.7526133600877263 -0.9635073482034322 4.0
    vertex 1.7526133600877263 -0.9635073482034322 5.0
    vertex 1.6180339887498947 -1.1755705045849467 5.0
  endloop
endfacet
facet normal 0.9048270524660194 -0.42577929156507316 0.0
  outer loop
    vertex 1.7526133600877263 -0.9635073482034322 4.0
    vertex 1.859552971776503 -0.7362491053693557 4.0
    vertex 1.7526133600877263 -0.9635073482034322 5.0
  endloop
endfacet
facet normal 0.9048270524660194 -0.42577929156507316 0.0
  outer loop
    vertex 1.859552971776503 -0.7362491053693557 4.0
    vertex 1.859552971776503 -0.7362491053693557 5.0
    vertex 1.7526133600877263 -0.9635073482034322 5.0
  endloop
endfacet
facet normal 0.9510565162951536 -0.30901699437494745 0.0
  outer loop
    vertex 1.859552971776503 -0.7362491053693557 4.0
    vertex 1.937166322257262 -0.4973797743297107 4.0
    vertex 1.859552971776503 -0.7362491053693557 5.0
  endloop
endfacet
facet normal 0.9510565162951536 -0.30901699437494745 0.0
  outer loop
    vertex 1.937166322257262 -0.4973797743297107 4.0
    vertex 1.937166322257262 -0.4973797743297107 5.0
    vertex 1.859552971776503 -0.7362491053693557 5.0
  endloop
endfacet
facet normal 0.9822872507286886 -0.18738131458572507 0.0
  outer loop
    vertex 1.937166322257262 -0.4973797743297107 4.0
    vertex 1.9842294026289555 -0.2506664671286093 4.0
    vertex 1.937166322257262 -0.4973797743297107 5.0
  endloop
endfacet
facet normal 0.9822872507286886 -0.18738131458572507 0.0
  outer loop
    vertex 1.9842294026289555 -0.2506664671286093 4.0
    vertex 1.9842294026289555 -0.2506664671286093 5.0
    vertex 1.937166322257262 -0.4973797743297107 5.0
  endloop
endfacet
facet normal 0.9980267284282716 -0.06279051952931371 0.0
  outer loop
    vertex 1.9842294026289555 -0.2506664671286093 4.0
    vertex 2.0 0.0 4.0
    vertex 1.9842294026289555 -0.2506664671286093 5.0
  endloop
endfacet
facet normal 0.9980267284282716 -0.06279051952931371 0.0
  outer loop
    vertex 2.0 0.0 4.0
    vertex 2.0 0.0 5.0
    vertex 1.9842294026289555 -0.2506664671286093 5.0
  endloop
endfacet
facet normal 0.0 0.0 1.0
  outer loop
    vertex 2.0 0.0 5.0
    vertex 1.9842294026289558 0.2506664671286085 5.0
    vertex 0.0 0.0 5.0
  endloop
endfacet
facet normal 0.0 0.0 1.0
  outer loop
    vertex 1.9842294026289558 0.2506664671286085 5.0
    vertex 1.9371663222572622 0.4973797743297096 5.0
    vertex 0.0 0.0 5.0
  endloop
endfacet
facet normal 0.0 0.0 1.0
  outer loop
    vertex 1.9371663222572622 0.4973797743297096 5.0
    vertex 1.859552971776503 0.7362491053693558 5.0
    vertex 0.0 0.0 5.0
  endloop
endfacet
facet normal 0.0 0.0 1.0
  outer loop
    vertex 1.859552971776503 0.7362491053693558 5.0
    vertex 1.7526133600877272 0.9635073482034306 5.0
    vertex 0.0 0.0 5.0
  endloop
endfacet
facet normal 0.0 0.0 1.0
  outer loop
    vertex 1.7526133600877272 0.9635073482034306 5.0
    vertex 1.618033988749895 1.1755705045849463 5.0
    vertex 0.0 0.0 5.0
  endloop
endfacet
facet normal 0.0 0.0 1.0
  outer loop
    vertex 1.618033988749895 1.1755705045849463 5.0
    vertex 1.457937254842823 1.3690942118573772 5.0
    vertex 0.0 0.0 5.0
  endloop
endfacet
facet normal 0.0 0.0 1.0
  outer loop
    vertex 1.457937254842823 1.3690942118573772 5.0
    vertex 1.2748479794973795 1.5410264855515785 5.0
    vertex 0.0 0.0 5.0
  endloop
endfacet
facet normal 0.0 0.0 1.0
  outer loop
    vertex 1.2748479794973795 1.5410264855515785 5.0
    vertex 1.071653589957993 1.6886558510040302 5.0
    vertex 0.0 0.0 5.0
  endloop
endfacet
facet normal 0.0 0.0 1.0
  outer loop
    vertex 1.071653589957993 1.6886558510040302 5.0
    vertex 0.8515585831301453 1.8096541049320392 5.0
    vertex 0.0 0.0 5.0
  endloop
endfacet
facet normal 0.0 0.0 1.0
  outer loop
    vertex 0.8515585831301453 1.8096541049320392 5.0
    vertex 0.6180339887498949 1.902113032590307 5.0
    vertex 0.0 0.0 5.0
  endloop
endfacet
facet normal 0.0 0.0 1.0
  outer loop
    vertex 0.6180339887498949 1.902113032590307 5.0
    vertex 0.3747626291714495 1.9645745014573772 5.0
    vertex 0.0 0.0 5.0
  endloop
endfacet
facet normal 0.0 0.0 1.0
  outer loop
    vertex 0.3747626291714495 1.9645745014573772 5.0
    vertex 0.12558103905862705 1.9960534568565431 5.0
    vertex 0.0 0.0 5.0
  endloop
endfacet
facet normal 0.0 0.0 1.0
  outer loop
    vertex 0.12558103905862705 1.9960534568565431 5.0
    vertex -0.1255810390586268 1.9960534568565431 5.0
    vertex 0.0 0.0 5.0
  endloop
endfacet
facet normal 0.0 0.0 1.0
  outer loop
    vertex -0.1255810390586268 1.9960534568565431 5.0
    vertex -0.3747626291714492 1.9645745014573774 5.0
    vertex 0.0 0.0 5.0
  endloop
endfacet
facet normal 0.0 0.0 1.0
  outer loop
    vertex -0.3747626291714492 1.9645745014573774 5.0
    vertex -0.6180339887498942 1.9021130325903073 5.0
    vertex 0.0 0.0 5.0
  endloop
endfacet
facet normal 0.0 0.0 1.0
  outer loop
    vertex -0.6180339887498942 1.9021130325903073 5.0
    vertex -0.8515585831301454 1.809654104932039 5.0
    vertex 0.0 0.0 5.0
  endloop
endfacet
facet normal 0.0 0.0 1.0
  outer loop
    vertex -0.8515585831301454 1.809654104932039 5.0
    vertex -1.0716535899579938 1.68865585100403 5.0
    vertex 0.0 0.0 5.0
  endloop
endfacet
facet normal 0.0 0.0 1.0
  outer loop
    vertex -1.0716535899579938 1.68865585100403 5.0
    vertex -1.2748479794973795 1.5410264855515785 5.0
    vertex 0.0 0.0 5.0
  endloop
endfacet
facet normal 0.0 0.0 1.0
  outer loop
    vertex -1.2748479794973795 1.5410264855515785 5.0
    vertex -1.4579372548428227 1.3690942118573777 5.0
    vertex 0.0 0.0 5.0
  endloop
endfacet
facet normal 0.0 0.0 1.0
  outer loop
    vertex -1.4579372548428227 1.3690942118573777 5.0
    vertex -1.6180339887498947 1.1755705045849465 5.0
    vertex 0.0 0.0 5.0
  endloop
endfacet
facet normal 0.0 0.0 1.0
  outer loop
    vertex -1.6180339887498947 1.1755705045849465 5.0
    vertex -1.7526133600877272 0.9635073482034304 5.0
    vertex 0.0 0.0 5.0
  endloop
endfacet
facet normal 0.0 0.0 1.0
  outer loop
    vertex -1.7526133600877272 0.9635073482034304 5.0
    vertex -1.8595529717765027 0.7362491053693563 5.0
    vertex 0.0 0.0 5.0
  endloop
endfacet
facet normal 0.0 0.0 1.0
  outer loop
    vertex -1.8595529717765027 0.7362491053693563 5.0
    vertex -1.937166322257262 0.4973797743297105 5.0
    vertex 0.0 0.0 5.0
  endloop
endfacet
facet normal 0.0 0.0 1.0
  outer loop
    vertex -1.937166322257262 0.4973797743297105 5.0
    vertex -1.9842294026289555 0.25066646712860907 5.0
    vertex 0.0 0.0 5.0
  endloop
endfacet
facet normal 0.0 0.0 1.0
  outer loop
    vertex -1.9842294026289555 0.25066646712860907 5.0
    vertex -2.0 2.4492935982947064E-16 5.0
    vertex 0.0 0.0 5.0
  endloop
endfacet
facet normal 0.0 0.0 1.0
  outer loop
    vertex -2.0 2.4492935982947064E-16 5.0
    vertex -1.9842294026289558 -0.25066646712860857 5.0
    vertex 0.0 0.0 5.0
  endloop
endfacet
facet normal -0.0 0.0 1.0
  outer loop
    vertex -1.9842294026289558 -0.25066646712860857 5.0
    vertex -1.9371663222572624 -0.49737977432970915 5.0
    vertex 0.0 0.0 5.0
  endloop
endfacet
facet normal -0.0 0.0 1.0
  outer loop
    vertex -1.9371663222572624 -0.49737977432970915 5.0
    vertex -1.859552971776503 -0.7362491053693558 5.0
    vertex 0.0 0.0 5.0
  endloop
endfacet
facet normal -0.0 0.0 1.0
  outer loop
    vertex -1.859552971776503 -0.7362491053693558 5.0
    vertex -1.752613360087727 -0.9635073482034308 5.0
    vertex 0.0 0.0 5.0
  endloop
endfacet
facet normal -0.0 0.0 1.0
  outer loop
    vertex -1.752613360087727 -0.9635073482034308 5.0
    vertex -1.6180339887498956 -1.1755705045849454 5.0
    vertex 0.0 0.0 5.0
  endloop
endfacet
facet normal -0.0 0.0 1.0
  outer loop
    vertex -1.6180339887498956 -1.1755705045849454 5.0
    vertex -1.4579372548428235 -1.3690942118573768 5.0
    vertex 0.0 0.0 5.0
  endloop
endfacet
facet normal -0.0 0.0 1.0
  outer loop
    vertex -1.4579372548428235 -1.3690942118573768 5.0
    vertex -1.274847979497379 -1.5410264855515787 5.0
    vertex 0.0 0.0 5.0
  endloop
endfacet
facet normal -0.0 0.0 1.0
  outer loop
    vertex -1.274847979497379 -1.5410264855515787 5.0
    vertex -1.0716535899579926 -1.6886558510040306 5.0
    vertex 0.0 0.0 5.0
  endloop
endfacet
facet normal -0.0 0.0 1.0
  outer loop
    vertex -1.0716535899579926 -1.6886558510040306 5.0
    vertex -0.8515585831301443 -1.8096541049320396 5.0
    vertex 0.0 0.0 5.0
  endloop
endfacet
facet normal -0.0 0.0 1.0
  outer loop
    vertex -0.8515585831301443 -1.8096541049320396 5.0
    vertex -0.6180339887498951 -1.902113032590307 5.0
    vertex 0.0 0.0 5.0
  endloop
endfacet
facet normal -0.0 0.0 1.0
  outer loop
    vertex -0.6180339887498951 -1.902113032590307 5.0
    vertex -0.37476262917144926 -1.9645745014573774 5.0
    vertex 0.0 0.0 5.0
  endloop
endfacet
facet normal -0.0 0.0 1.0
  outer loop
    vertex -0.37476262917144926 -1.9645745014573774 5.0
    vertex -0.12558103905862641 -1.9960534568565431 5.0
    vertex 0.0 0.0 5.0
  endloop
endfacet
facet normal 0.0 0.0 1.0
  outer loop
    vertex -0.12558103905862641 -1.9960534568565431 5.0
    vertex 0.12558103905862567 -1.9960534568565431 5.0
    vertex 0.0 0.0 5.0
  endloop
endfacet
facet normal 0.0 -0.0 1.0
  outer loop
    vertex 0.12558103905862567 -1.9960534568565431 5.0
    vertex 0.37476262917144854 -1.9645745014573774 5.0
    vertex 0.0 0.0 5.0
  endloop
endfacet
facet normal 0.0 -0.0 1.0
  outer loop
    vertex 0.37476262917144854 -1.9645745014573774 5.0
    vertex 0.6180339887498945 -1.9021130325903073 5.0
    vertex 0.0 0.0 5.0
  endloop
endfacet
facet normal 0.0 -0.0 1.0
  outer loop
    vertex 0.6180339887498945 -1.9021130325903073 5.0
    vertex 0.8515585831301437 -1.8096541049320398 5.0
    vertex 0.0 0.0 5.0
  endloop
endfacet
facet normal 0.0 -0.0 1.0
  outer loop
    vertex 0.8515585831301437 -1.8096541049320398 5.0
    vertex 1.0716535899579935 -1.68865585100403 5.0
    vertex 0.0 0.0 5.0
  endloop
endfacet
facet normal 0.0 -0.0 1.0
  outer loop
    vertex 1.0716535899579935 -1.68865585100403 5.0
    vertex 1.2748479794973786 -1.5410264855515792 5.0
    vertex 0.0 0.0 5.0
  endloop
endfacet
facet normal 0.0 -0.0 1.0
  outer loop
    vertex 1.2748479794973786 -1.5410264855515792 5.0
    vertex 1.4579372548428224 -1.369094211857378 5.0
    vertex 0.0 0.0 5.0
  endloop
endfacet
facet normal 0.0 -0.0 1.0
  outer loop
    vertex 1.4579372548428224 -1.369094211857378 5.0
    vertex 1.6180339887498947 -1.1755705045849467 5.0
    vertex 0.0 0.0 5.0
  endloop
endfacet
facet normal 0.0 -0.0 1.0
  outer loop
    vertex 1.6180339887498947 -1.1755705045849467 5.0
    vertex 1.7526133600877263 -0.9635073482034322 5.0
    vertex 0.0 0.0 5.0
  endloop
endfacet
facet normal 0.0 -0.0 1.0
  outer loop
    vertex 1.7526133600877263 -0.9635073482034322 5.0
    vertex 1.859552971776503 -0.7362491053693557 5.0
    vertex 0.0 0.0 5.0
  endloop
endfacet
facet normal 0.0 -0.0 1.0
  outer loop
    vertex 1.859552971776503 -0.7362491053693557 5.0
    vertex 1.937166322257262 -0.4973797743297107 5.0
    vertex 0.0 0.0 5.0
  endloop
endfacet
facet normal 0.0 -0.0 1.0
  outer loop
    vertex 1.937166322257262 -0.4973797743297107 5.0
    vertex 1.9842294026289555 -0.2506664671286093 5.0
    vertex 0.0 0.0 5.0
  endloop
endfacet
facet normal 0.0 -0.0 1.0
  outer loop
    vertex 1.9842294026289555 -0.2506664671286093 5.0
    vertex 2.0 0.0 5.0
    vertex 0.0 0.0 5.0
  endloop
endfacet
facet normal 0.0 -1.0 0.0
  outer loop
    vertex -2.0 -2.0 -2.0
    vertex 2.0 -2.0 -2.0
    vertex 2.0 -2.0 2.0
  endloop
endfacet
facet normal 0.0 -1.0 0.0
  outer loop
    vertex -2.0 -2.0 -2.0
    vertex 2.0 -2.0 2.0
    vertex -2.0 -2.0 2.0
  endloop
endfacet
facet normal 1.0 0.0 0.0
  outer loop
    vertex 2.0 -2.0 -2.0
    vertex 2.0 2.0 -2.0
    vertex 2.0 2.0 2.0
  endloop
endfacet
facet normal 1.0 0.0 0.0
  outer loop
    vertex 2.0 -2.0 -2.0
    vertex 2.0 2.0 2.0
    vertex 2.0 -2.0 2.0
  endloop
endfacet
facet normal 0.0 1.0 0.0
  outer loop
    vertex 2.0 2.0 -2.0
    vertex -2.0 2.0 -2.0
    vertex -2.0 2.0 2.0
  endloop
endfacet
facet normal 0.0 1.0 0.0
  outer loop
    vertex 2.0 2.0 -2.0
    vertex -2.0 2.0 2.0
    vertex 2.0 2.0 2.0
  endloop
endfacet
facet normal -1.0 0.0 0.0
  outer loop
    vertex -2.0 2.0 -2.0
    vertex -2.0 -2.0 -2.0
    vertex -2.0 -2.0 2.0
  endloop
endfacet
facet normal -1.0 0.0 0.0
  outer loop
    vertex -2.0 2.0 -2.0
    vertex -2.0 -2.0 2.0
    vertex -2.0 2.0 2.0
  endloop
endfacet
endsolid
