solid 
facet normal 0.0 0.0 -1.0
  outer loop
    vertex 0.0 0.0 -0.5
    vertex 2.984099626843767 0.3084629914120812 -0.5
    vertex 3.0 0.0 -0.5
  endloop
endfacet
facet normal 0.0 0.0 -1.0
  outer loop
    vertex 0.0 0.0 -0.5
    vertex 2.9365670552860736 0.6136561983786024 -0.5
    vertex 2.984099626843767 0.3084629914120812 -0.5
  endloop
endfacet
facet normal 0.0 0.0 -1.0
  outer loop
    vertex 0.0 0.0 -0.5
    vertex 2.8579061424101475 0.9123444969825536 -0.5
    vertex 2.9365670552860736 0.6136561983786024 -0.5
  endloop
endfacet
facet normal 0.0 0.0 -1.0
  outer loop
    vertex 0.0 0.0 -0.5
    vertex 2.7489507134610145 1.2013617169537993 -0.5
    vertex 2.8579061424101475 0.9123444969825536 -0.5
  endloop
endfacet
facet normal 0.0 0.0 -1.0
  outer loop
    vertex 0.0 0.0 -0.5
    vertex 2.6108557230904657 1.4776442038615931 -0.5
    vertex 2.7489507134610145 1.2013617169537993 -0.5
  endloop
endfacet
facet normal 0.0 0.0 -1.0
  outer loop
    vertex 0.0 0.0 -0.5
    vertex 2.445085012550434 1.7382632946136911 -0.5
    vertex 2.6108557230904657 1.4776442038615931 -0.5
  endloop
endfacet
facet normal 0.0 0.0 -1.0
  outer loop
    vertex 0.0 0.0 -0.5
    vertex 2.2533957926115598 1.9804563620136952 -0.5
    vertex 2.445085012550434 1.7382632946136911 -0.5
  endloop
endfacet
facet normal 0.0 0.0 -1.0
  outer loop
    vertex 0.0 0.0 -0.5
    vertex 2.0378200166918794 2.201656099296597 -0.5
    vertex 2.2533957926115598 1.9804563620136952 -0.5
  endloop
endfacet
facet normal 0.0 0.0 -1.0
  outer loop
    vertex 0.0 0.0 -0.5
    vertex 1.8006428416451046 2.399517734219158 -0.5
    vertex 2.0378200166918794 2.201656099296597 -0.5
  endloop
endfacet
facet normal 0.0 0.0 -1.0
  outer loop
    vertex 0.0 0.0 -0.5
    vertex 1.5443784045294922 2.571943884228997 -0.5
    vertex 1.8006428416451046 2.399517734219158 -0.5
  endloop
endfacet
facet normal 0.0 0.0 -1.0
  outer loop
    vertex 0.0 0.0 -0.5
    vertex 1.2717431721295822 2.7171067892414142 -0.5
    vertex 1.5443784045294922 2.571943884228997 -0.5
  endloop
endfacet
facet normal 0.0 0.0 -1.0
  outer loop
    vertex 0.0 0.0 -0.5
    vertex 0.9856271457325045 2.833467686350984 -0.5
    vertex 1.2717431721295822 2.7171067892414142 -0.5
  endloop
endfacet
facet normal 0.0 0.0 -1.0
  outer loop
    vertex 0.0 0.0 -0.5
    vertex 0.6890632263953865 2.9197931211011476 -0.5
    vertex 0.9856271457325045 2.833467686350984 -0.5
  endloop
endfacet
facet normal 0.0 0.0 -1.0
  outer loop
    vertex 0.0 0.0 -0.5
    vertex 0.385195065439653 2.9751680224083046 -0.5
    vertex 0.6890632263953865 2.9197931211011476 -0.5
  endloop
endfacet
facet normal 0.0 0.0 -1.0
  outer loop
    vertex 0.0 0.0 -0.5
    vertex 0.07724374096496597 2.999005402542939 -0.5
    vertex 0.385195065439653 2.9751680224083046 -0.5
  endloop
endfacet
facet normal 0.0 0.0 -1.0
  outer loop
    vertex -0.0 0.0 -0.5
    vertex -0.23152638637993855 2.99105257934558 -0.5
    vertex 0.07724374096496597 2.999005402542939 -0.5
  endloop
endfacet
facet normal 0.0 0.0 -1.0
  outer loop
    vertex -0.0 0.0 -0.5
    vertex -0.537842276432207 2.951393854720549 -0.5
    vertex -0.23152638637993855 2.99105257934558 -0.5
  endloop
endfacet
facet normal 0.0 0.0 -1.0
  outer loop
    vertex -0.0 0.0 -0.5
    vertex -0.8384569045548281 2.8804496210148054 -0.5
    vertex -0.537842276432207 2.951393854720549 -0.5
  endloop
endfacet
facet normal 0.0 0.0 -1.0
  outer loop
    vertex -0.0 0.0 -0.5
    vertex -1.1301836809055548 2.778971904754485 -0.5
    vertex -0.8384569045548281 2.8804496210148054 -0.5
  endloop
endfacet
facet normal 0.0 0.0 -1.0
  outer loop
    vertex -0.0 0.0 -0.5
    vertex -1.4099302290819602 2.6480363949766423 -0.5
    vertex -1.1301836809055548 2.778971904754485 -0.5
  endloop
endfacet
facet normal 0.0 0.0 -1.0
  outer loop
    vertex -0.0 0.0 -0.5
    vertex -1.6747311660805946 2.4890310406578564 -0.5
    vertex -1.4099302290819602 2.6480363949766423 -0.5
  endloop
endfacet
facet normal 0.0 0.0 -1.0
  outer loop
    vertex -0.0 0.0 -0.5
    vertex -1.9217795360945253 2.3036413381098004 -0.5
    vertex -1.6747311660805946 2.4890310406578564 -0.5
  endloop
endfacet
facet normal 0.0 0.0 -1.0
  outer loop
    vertex -0.0 0.0 -0.5
    vertex -2.1484565649431793 2.0938324642990316 -0.5
    vertex -1.9217795360945253 2.3036413381098004 -0.5
  endloop
endfacet
facet normal 0.0 0.0 -1.0
  outer loop
    vertex -0.0 0.0 -0.5
    vertex -2.352359419730131 1.8618284454822691 -0.5
    vertex -2.1484565649431793 2.0938324642990316 -0.5
  endloop
endfacet
facet normal 0.0 0.0 -1.0
  outer loop
    vertex -0.0 0.0 -0.5
    vertex -2.531326679469557 1.6100885819748014 -0.5
    vertex -2.352359419730131 1.8618284454822691 -0.5
  endloop
endfacet
facet normal 0.0 0.0 -1.0
  outer loop
    vertex -0.0 0.0 -0.5
    vertex -2.6834612466863867 1.3412813789553417 -0.5
    vertex -2.531326679469557 1.6100885819748014 -0.5
  endloop
endfacet
facet normal 0.0 0.0 -1.0
  outer loop
    vertex -0.0 0.0 -0.5
    vertex -2.8071504571214807 1.058256259647285 -0.5
    vertex -2.6834612466863867 1.3412813789553417 -0.5
  endloop
endfacet
facet normal 0.0 0.0 -1.0
  outer loop
    vertex -0.0 0.0 -0.5
    vertex -2.9010831743739613 0.7640133607236863 -0.5
    vertex -2.8071504571214807 1.058256259647285 -0.5
  endloop
endfacet
facet normal 0.0 0.0 -1.0
  outer loop
    vertex -0.0 0.0 -0.5
    vertex -2.9642636882732316 0.4616717301121851 -0.5
    vertex -2.9010831743739613 0.7640133607236863 -0.5
  endloop
endfacet
facet normal 0.0 0.0 -1.0
  outer loop
    vertex -0.0 0.0 -0.5
    vertex -2.9960222696544916 0.15443626431104018 -0.5
    vertex -2.9642636882732316 0.4616717301121851 -0.5
  endloop
endfacet
facet normal -0.0 0.0 -1.0
  outer loop
    vertex -0.0 -0.0 -0.5
    vertex -2.9960222696544916 -0.15443626431103946 -0.5
    vertex -2.9960222696544916 0.15443626431104018 -0.5
  endloop
endfacet
facet normal 0.0 0.0 -1.0
  outer loop
    vertex -0.0 -0.0 -0.5
    vertex -2.9642636882732316 -0.46167173011218443 -0.5
    vertex -2.9960222696544916 -0.15443626431103946 -0.5
  endloop
endfacet
facet normal 0.0 0.0 -1.0
  outer loop
    vertex -0.0 -0.0 -0.5
    vertex -2.9010831743739613 -0.7640133607236856 -0.5
    vertex -2.9642636882732316 -0.46167173011218443 -0.5
  endloop
endfacet
facet normal 0.0 0.0 -1.0
  outer loop
    vertex -0.0 -0.0 -0.5
    vertex -2.807150457121481 -1.0582562596472842 -0.5
    vertex -2.9010831743739613 -0.7640133607236856 -0.5
  endloop
endfacet
facet normal 0.0 0.0 -1.0
  outer loop
    vertex -0.0 -0.0 -0.5
    vertex -2.683461246686387 -1.3412813789553408 -0.5
    vertex -2.807150457121481 -1.0582562596472842 -0.5
  endloop
endfacet
facet normal 0.0 0.0 -1.0
  outer loop
    vertex -0.0 -0.0 -0.5
    vertex -2.531326679469557 -1.6100885819748012 -0.5
    vertex -2.683461246686387 -1.3412813789553408 -0.5
  endloop
endfacet
facet normal 0.0 0.0 -1.0
  outer loop
    vertex -0.0 -0.0 -0.5
    vertex -2.3523594197301314 -1.8618284454822684 -0.5
    vertex -2.531326679469557 -1.6100885819748012 -0.5
  endloop
endfacet
facet normal 0.0 0.0 -1.0
  outer loop
    vertex -0.0 -0.0 -0.5
    vertex -2.1484565649431806 -2.09383246429903 -0.5
    vertex -2.3523594197301314 -1.8618284454822684 -0.5
  endloop
endfacet
facet normal 0.0 0.0 -1.0
  outer loop
    vertex -0.0 -0.0 -0.5
    vertex -1.9217795360945256 -2.3036413381098 -0.5
    vertex -2.1484565649431806 -2.09383246429903 -0.5
  endloop
endfacet
facet normal 0.0 0.0 -1.0
  outer loop
    vertex -0.0 -0.0 -0.5
    vertex -1.6747311660805944 -2.489031040657857 -0.5
    vertex -1.9217795360945256 -2.3036413381098 -0.5
  endloop
endfacet
facet normal 0.0 0.0 -1.0
  outer loop
    vertex -0.0 -0.0 -0.5
    vertex -1.409930229081962 -2.648036394976641 -0.5
    vertex -1.6747311660805944 -2.489031040657857 -0.5
  endloop
endfacet
facet normal 0.0 0.0 -1.0
  outer loop
    vertex -0.0 -0.0 -0.5
    vertex -1.1301836809055543 -2.7789719047544854 -0.5
    vertex -1.409930229081962 -2.648036394976641 -0.5
  endloop
endfacet
facet normal 0.0 0.0 -1.0
  outer loop
    vertex -0.0 -0.0 -0.5
    vertex -0.8384569045548295 -2.880449621014805 -0.5
    vertex -1.1301836809055543 -2.7789719047544854 -0.5
  endloop
endfacet
facet normal 0.0 0.0 -1.0
  outer loop
    vertex -0.0 -0.0 -0.5
    vertex -0.5378422764322077 -2.951393854720549 -0.5
    vertex -0.8384569045548295 -2.880449621014805 -0.5
  endloop
endfacet
facet normal 0.0 0.0 -1.0
  outer loop
    vertex -0.0 -0.0 -0.5
    vertex -0.23152638637993928 -2.99105257934558 -0.5
    vertex -0.5378422764322077 -2.951393854720549 -0.5
  endloop
endfacet
facet normal 0.0 -0.0 -1.0
  outer loop
    vertex 0.0 -0.0 -0.5
    vertex 0.07724374096496324 -2.9990054025429393 -0.5
    vertex -0.23152638637993928 -2.99105257934558 -0.5
  endloop
endfacet
facet normal 0.0 0.0 -1.0
  outer loop
    vertex 0.0 -0.0 -0.5
    vertex 0.38519506543965354 -2.9751680224083046 -0.5
    vertex 0.07724374096496324 -2.9990054025429393 -0.5
  endloop
endfacet
facet normal 0.0 0.0 -1.0
  outer loop
    vertex 0.0 -0.0 -0.5
    vertex 0.6890632263953852 -2.919793121101148 -0.5
    vertex 0.38519506543965354 -2.9751680224083046 -0.5
  endloop
endfacet
facet normal 0.0 0.0 -1.0
  outer loop
    vertex 0.0 -0.0 -0.5
    vertex 0.9856271457325032 -2.8334676863509842 -0.5
    vertex 0.6890632263953852 -2.919793121101148 -0.5
  endloop
endfacet
facet normal 0.0 0.0 -1.0
  outer loop
    vertex 0.0 -0.0 -0.5
    vertex 1.2717431721295815 -2.7171067892414147 -0.5
    vertex 0.9856271457325032 -2.8334676863509842 -0.5
  endloop
endfacet
facet normal 0.0 0.0 -1.0
  outer loop
    vertex 0.0 -0.0 -0.5
    vertex 1.5443784045294922 -2.571943884228997 -0.5
    vertex 1.2717431721295815 -2.7171067892414147 -0.5
  endloop
endfacet
facet normal 0.0 0.0 -1.0
  outer loop
    vertex 0.0 -0.0 -0.5
    vertex 1.800642841645105 -2.399517734219158 -0.5
    vertex 1.5443784045294922 -2.571943884228997 -0.5
  endloop
endfacet
facet normal 0.0 0.0 -1.0
  outer loop
    vertex 0.0 -0.0 -0.5
    vertex 2.03782001669188 -2.2016560992965966 -0.5
    vertex 1.800642841645105 -2.399517734219158 -0.5
  endloop
endfacet
facet normal 0.0 0.0 -1.0
  outer loop
    vertex 0.0 -0.0 -0.5
    vertex 2.253395792611559 -1.9804563620136961 -0.5
    vertex 2.03782001669188 -2.2016560992965966 -0.5
  endloop
endfacet
facet normal 0.0 0.0 -1.0
  outer loop
    vertex 0.0 -0.0 -0.5
    vertex 2.4450850125504333 -1.7382632946136916 -0.5
    vertex 2.253395792611559 -1.9804563620136961 -0.5
  endloop
endfacet
facet normal 0.0 0.0 -1.0
  outer loop
    vertex 0.0 -0.0 -0.5
    vertex 2.6108557230904657 -1.4776442038615936 -0.5
    vertex 2.4450850125504333 -1.7382632946136916 -0.5
  endloop
endfacet
facet normal 0.0 0.0 -1.0
  outer loop
    vertex 0.0 -0.0 -0.5
    vertex 2.748950713461013 -1.2013617169538018 -0.5
    vertex 2.6108557230904657 -1.4776442038615936 -0.5
  endloop
endfacet
facet normal 0.0 0.0 -1.0
  outer loop
    vertex 0.0 -0.0 -0.5
    vertex 2.857906142410148 -0.9123444969825532 -0.5
    vertex 2.748950713461013 -1.2013617169538018 -0.5
  endloop
endfacet
facet normal 0.0 0.0 -1.0
  outer loop
    vertex 0.0 -0.0 -0.5
    vertex 2.936567055286073 -0.6136561983786041 -0.5
    vertex 2.857906142410148 -0.9123444969825532 -0.5
  endloop
endfacet
facet normal 0.0 0.0 -1.0
  outer loop
    vertex 0.0 -0.0 -0.5
    vertex 2.984099626843767 -0.3084629914120824 -0.5
    vertex 2.936567055286073 -0.6136561983786041 -0.5
  endloop
endfacet
facet normal 0.0 0.0 -1.0
  outer loop
    vertex 0.0 0.0 -0.5
    vertex 3.0 0.0 -0.5
    vertex 2.984099626843767 -0.3084629914120824 -0.5
  endloop
endfacet
facet normal -0.0 -0.0 -1.0
  outer loop
    vertex 2.845358695218728 3.0 -0.5
    vertex 8.0 3.0 -0.5
    vertex 8.0 -3.0 -0.5
  endloop
endfacet
facet normal -0.0 -0.0 -1.0
  outer loop
    vertex 2.845358695218728 3.0 -0.5
    vertex 8.0 -3.0 -0.5
    vertex 3.154641304781272 -3.0 -0.5
  endloop
endfacet
facet normal -0.0 -0.0 -1.0
  outer loop
    vertex 2.564903941813596 3.0 -0.5
    vertex 2.845358695218728 3.0 -0.5
    vertex 2.984099626843767 0.30846299141208444 -0.5
  endloop
endfacet
facet normal -0.0 -0.0 -1.0
  outer loop
    vertex 2.308112633908671 3.0 -0.5
    vertex 2.564903941813596 3.0 -0.5
    vertex 2.9365670552860754 0.6136561983785938 -0.5
  endloop
endfacet
facet normal -0.0 -0.0 -1.0
  outer loop
    vertex 2.0708893658598986 3.0 -0.5
    vertex 2.308112633908671 3.0 -0.5
    vertex 2.857906142410146 0.9123444969825575 -0.5
  endloop
endfacet
facet normal -0.0 -0.0 -1.0
  outer loop
    vertex 2.0 2.6997648460690837 -0.5
    vertex 2.0 3.0 -0.5
    vertex 2.0708893658598986 3.0 -0.5
  endloop
endfacet
facet normal -0.0 -0.0 -1.0
  outer loop
    vertex 2.0 2.6997648460690837 -0.5
    vertex 2.0708893658598986 3.0 -0.5
    vertex 2.7489507134610167 1.2013617169537931 -0.5
  endloop
endfacet
facet normal -0.0 -0.0 -1.0
  outer loop
    vertex 2.0 2.438010860998576 -0.5
    vertex 2.0 2.6997648460690837 -0.5
    vertex 2.610855723090463 1.477644203861597 -0.5
  endloop
endfacet
facet normal -0.0 -0.0 -1.0
  outer loop
    vertex 2.0 2.300613668190948 -0.5
    vertex 2.0 2.438010860998576 -0.5
    vertex 2.4450850125504355 1.7382632946136884 -0.5
  endloop
endfacet
facet normal -0.0 -0.0 -1.0
  outer loop
    vertex 2.0 2.240462768184087 -0.5
    vertex 2.0 2.300613668190948 -0.5
    vertex 2.253395792611557 1.9804563620136983 -0.5
  endloop
endfacet
facet normal -0.0 -0.0 -1.0
  outer loop
    vertex 2.0 2.233206902336468 -0.5
    vertex 2.0 2.240462768184087 -0.5
    vertex 2.037820016691882 2.201656099296595 -0.5
  endloop
endfacet
facet normal -0.0 -0.0 -1.0
  outer loop
    vertex 2.0 -2.8501719077331664 -0.5
    vertex 3.142360002604249 -2.7617460187420058 -0.5
    vertex 3.154641304781272 -3.0 -0.5
  endloop
endfacet
facet normal -0.0 -0.0 -1.0
  outer loop
    vertex 2.0 -2.8501719077331664 -0.5
    vertex 3.154641304781272 -3.0 -0.5
    vertex 2.0 -3.0 -0.5
  endloop
endfacet
facet normal -0.0 -0.0 -1.0
  outer loop
    vertex 2.0 -2.8501719077331664 -0.5
    vertex 2.0 -2.6808967713488174 -0.5
    vertex 3.1276002337676667 -2.4754104464162516 -0.5
  endloop
endfacet
facet normal -0.0 -0.0 -1.0
  outer loop
    vertex 2.0 -2.8501719077331664 -0.5
    vertex 3.1276002337676667 -2.4754104464162516 -0.5
    vertex 3.142360002604249 -2.7617460187420058 -0.5
  endloop
endfacet
facet normal -0.0 -0.0 -1.0
  outer loop
    vertex 2.0 -2.6808967713488174 -0.5
    vertex 2.0 -2.538198532102096 -0.5
    vertex 3.11411984382894 -2.2138944829200744 -0.5
  endloop
endfacet
facet normal -0.0 -0.0 -1.0
  outer loop
    vertex 2.0 -2.6808967713488174 -0.5
    vertex 3.11411984382894 -2.2138944829200744 -0.5
    vertex 3.1276002337676667 -2.4754104464162516 -0.5
  endloop
endfacet
facet normal -0.0 -0.0 -1.0
  outer loop
    vertex 2.0 -2.538198532102096 -0.5
    vertex 2.0 -2.4209310772959176 -0.5
    vertex 3.101696286441459 -1.9728807885829798 -0.5
  endloop
endfacet
facet normal -0.0 -0.0 -1.0
  outer loop
    vertex 2.0 -2.538198532102096 -0.5
    vertex 3.101696286441459 -1.9728807885829798 -0.5
    vertex 3.11411984382894 -2.2138944829200744 -0.5
  endloop
endfacet
facet normal -0.0 -0.0 -1.0
  outer loop
    vertex 2.0 -2.4209310772959176 -0.5
    vertex 2.0 -2.3293510476293733 -0.5
    vertex 3.0901510866519466 -1.748906996991359 -0.5
  endloop
endfacet
facet normal -0.0 -0.0 -1.0
  outer loop
    vertex 2.0 -2.4209310772959176 -0.5
    vertex 3.0901510866519466 -1.748906996991359 -0.5
    vertex 3.101696286441459 -1.9728807885829798 -0.5
  endloop
endfacet
facet normal -0.0 -0.0 -1.0
  outer loop
    vertex 2.0 -2.3293510476293733 -0.5
    vertex 2.0 -2.2653813410506896 -0.5
    vertex 3.07933892467663 -1.539153943162508 -0.5
  endloop
endfacet
facet normal -0.0 -0.0 -1.0
  outer loop
    vertex 2.0 -2.3293510476293733 -0.5
    vertex 3.07933892467663 -1.539153943162508 -0.5
    vertex 3.0901510866519466 -1.748906996991359 -0.5
  endloop
endfacet
facet normal -0.0 -0.0 -1.0
  outer loop
    vertex 2.0 -2.2653813410506896 -0.5
    vertex 2.0 -2.2332069023364687 -0.5
    vertex 3.0691397410272807 -1.3412925050989504 -0.5
  endloop
endfacet
facet normal -0.0 -0.0 -1.0
  outer loop
    vertex 2.0 -2.2653813410506896 -0.5
    vertex 3.0691397410272807 -1.3412925050989504 -0.5
    vertex 3.07933892467663 -1.539153943162508 -0.5
  endloop
endfacet
facet normal -0.0 -0.0 -1.0
  outer loop
    vertex 2.0378200166918776 -2.2016560992965992 -0.5
    vertex 3.0594529187531094 -1.1533707408354013 -0.5
    vertex 3.0691397410272807 -1.3412925050989504 -0.5
  endloop
endfacet
facet normal -0.0 -0.0 -1.0
  outer loop
    vertex 2.2533957926115544 -1.980456362013701 -0.5
    vertex 3.0501929191295294 -0.9737292219667302 -0.5
    vertex 3.0594529187531094 -1.1533707408354013 -0.5
  endloop
endfacet
facet normal -0.0 -0.0 -1.0
  outer loop
    vertex 2.4450850125504346 -1.738263294613689 -0.5
    vertex 3.0412859497248514 -0.800936395031982 -0.5
    vertex 3.0501929191295294 -0.9737292219667302 -0.5
  endloop
endfacet
facet normal -0.0 -0.0 -1.0
  outer loop
    vertex 2.6108557230904674 -1.4776442038615905 -0.5
    vertex 3.032667374615813 -0.6337383403874843 -0.5
    vertex 3.0412859497248514 -0.800936395031982 -0.5
  endloop
endfacet
facet normal -0.0 -0.0 -1.0
  outer loop
    vertex 2.7489507134610145 -1.2013617169537993 -0.5
    vertex 3.0242796626108697 -0.47101896828685985 -0.5
    vertex 3.032667374615813 -0.6337383403874843 -0.5
  endloop
endfacet
facet normal -0.0 -0.0 -1.0
  outer loop
    vertex 2.8579061424101453 -0.9123444969825605 -0.5
    vertex 3.0160707268588647 -0.3117678077327808 -0.5
    vertex 3.0242796626108697 -0.47101896828685985 -0.5
  endloop
endfacet
facet normal -0.0 -0.0 -1.0
  outer loop
    vertex 2.9365670552860736 -0.6136561983785993 -0.5
    vertex 3.0079925480770817 -0.15505329746899676 -0.5
    vertex 3.0160707268588647 -0.3117678077327808 -0.5
  endloop
endfacet
facet normal -0.0 -0.0 -1.0
  outer loop
    vertex 2.984099626843767 -0.30846299141208283 -0.5
    vertex 3.0 3.2751579226442118E-15 -0.5
    vertex 3.0079925480770817 -0.15505329746899676 -0.5
  endloop
endfacet
facet normal 0.0 0.0 1.0
  outer loop
    vertex 3.154641304781272 -3.0 0.5
    vertex 8.0 -3.0 0.5
    vertex 8.0 3.0 0.5
  endloop
endfacet
facet normal 0.0 0.0 1.0
  outer loop
    vertex 3.154641304781272 -3.0 0.5
    vertex 8.0 3.0 0.5
    vertex 2.845358695218728 3.0 0.5
  endloop
endfacet
facet normal 0.0 -1.0 0.0
  outer loop
    vertex 3.154641304781272 -3.0 -0.5
    vertex 8.0 -3.0 -0.5
    vertex 8.0 -3.0 0.5
  endloop
endfacet
facet normal 0.0 -1.0 0.0
  outer loop
    vertex 3.154641304781272 -3.0 -0.5
    vertex 8.0 -3.0 0.5
    vertex 3.154641304781272 -3.0 0.5
  endloop
endfacet
facet normal 1.0 0.0 0.0
  outer loop
    vertex 8.0 -3.0 -0.5
    vertex 8.0 3.0 -0.5
    vertex 8.0 3.0 0.5
  endloop
endfacet
facet normal 1.0 0.0 0.0
  outer loop
    vertex 8.0 -3.0 -0.5
    vertex 8.0 3.0 0.5
    vertex 8.0 -3.0 0.5
  endloop
endfacet
facet normal 0.0 1.0 0.0
  outer loop
    vertex 8.0 3.0 -0.5
    vertex 2.845358695218728 3.0 -0.5
    vertex 2.845358695218728 3.0 0.5
  endloop
endfacet
facet normal 0.0 1.0 0.0
  outer loop
    vertex 8.0 3.0 -0.5
    vertex 2.845358695218728 3.0 0.5
    vertex 8.0 3.0 0.5
  endloop
endfacet
facet normal 0.0 0.0 1.0
  outer loop
    vertex 2.984099626843767 0.30846299141208444 0.5
    vertex 2.845358695218728 3.0 0.5
    vertex 2.564903941813596 3.0 0.5
  endloop
endfacet
facet normal 0.0 1.0 0.0
  outer loop
    vertex 2.845358695218728 3.0 -0.5
    vertex 2.564903941813596 3.0 -0.5
    vertex 2.564903941813596 3.0 0.5
  endloop
endfacet
facet normal 0.0 1.0 0.0
  outer loop
    vertex 2.845358695218728 3.0 -0.5
    vertex 2.564903941813596 3.0 0.5
    vertex 2.845358695218728 3.0 0.5
  endloop
endfacet
facet normal 0.0 0.0 1.0
  outer loop
    vertex 2.9365670552860754 0.6136561983785938 0.5
    vertex 2.564903941813596 3.0 0.5
    vertex 2.308112633908671 3.0 0.5
  endloop
endfacet
facet normal 0.0 1.0 0.0
  outer loop
    vertex 2.564903941813596 3.0 -0.5
    vertex 2.308112633908671 3.0 -0.5
    vertex 2.308112633908671 3.0 0.5
  endloop
endfacet
facet normal 0.0 1.0 0.0
  outer loop
    vertex 2.564903941813596 3.0 -0.5
    vertex 2.308112633908671 3.0 0.5
    vertex 2.564903941813596 3.0 0.5
  endloop
endfacet
facet normal 0.0 0.0 1.0
  outer loop
    vertex 2.857906142410146 0.9123444969825575 0.5
    vertex 2.308112633908671 3.0 0.5
    vertex 2.0708893658598986 3.0 0.5
  endloop
endfacet
facet normal 0.0 1.0 0.0
  outer loop
    vertex 2.308112633908671 3.0 -0.5
    vertex 2.0708893658598986 3.0 -0.5
    vertex 2.070889365859899 3.0 0.5
  endloop
endfacet
facet normal 0.0 1.0 0.0
  outer loop
    vertex 2.308112633908671 3.0 -0.5
    vertex 2.070889365859899 3.0 0.5
    vertex 2.308112633908671 3.0 0.5
  endloop
endfacet
facet normal 0.0 0.0 1.0
  outer loop
    vertex 2.7489507134610167 1.2013617169537931 0.5
    vertex 2.0708893658598986 3.0 0.5
    vertex 2.0 3.0 0.5
  endloop
endfacet
facet normal 0.0 0.0 1.0
  outer loop
    vertex 2.7489507134610167 1.2013617169537931 0.5
    vertex 2.0 3.0 0.5
    vertex 2.0 2.6997648460690837 0.5
  endloop
endfacet
facet normal 0.0 1.0 0.0
  outer loop
    vertex 2.0708893658598986 3.0 -0.5
    vertex 2.0 3.0 -0.5
    vertex 2.0 3.0 0.5
  endloop
endfacet
facet normal 0.0 1.0 0.0
  outer loop
    vertex 2.0708893658598986 3.0 -0.5
    vertex 2.0 3.0 0.5
    vertex 2.070889365859899 3.0 0.5
  endloop
endfacet
facet normal -1.0 0.0 0.0
  outer loop
    vertex 2.0 3.0 -0.5
    vertex 2.0 2.6997648460690837 -0.5
    vertex 2.0 2.699764846069084 0.5
  endloop
endfacet
facet normal -1.0 0.0 0.0
  outer loop
    vertex 2.0 3.0 -0.5
    vertex 2.0 2.699764846069084 0.5
    vertex 2.0 3.0 0.5
  endloop
endfacet
facet normal 0.0 0.0 1.0
  outer loop
    vertex 2.610855723090463 1.477644203861597 0.5
    vertex 2.0 2.6997648460690837 0.5
    vertex 2.0 2.438010860998576 0.5
  endloop
endfacet
facet normal -1.0 0.0 0.0
  outer loop
    vertex 2.0 2.6997648460690837 -0.5
    vertex 2.0 2.438010860998576 -0.5
    vertex 2.0 2.438010860998576 0.5
  endloop
endfacet
facet normal -1.0 0.0 0.0
  outer loop
    vertex 2.0 2.6997648460690837 -0.5
    vertex 2.0 2.438010860998576 0.5
    vertex 2.0 2.699764846069084 0.5
  endloop
endfacet
facet normal 0.0 0.0 1.0
  outer loop
    vertex 2.4450850125504355 1.7382632946136884 0.5
    vertex 2.0 2.438010860998576 0.5
    vertex 2.0 2.300613668190948 0.5
  endloop
endfacet
facet normal -1.0 0.0 0.0
  outer loop
    vertex 2.0 2.438010860998576 -0.5
    vertex 2.0 2.300613668190948 -0.5
    vertex 2.0 2.3006136681909473 0.5
  endloop
endfacet
facet normal -1.0 0.0 0.0
  outer loop
    vertex 2.0 2.438010860998576 -0.5
    vertex 2.0 2.3006136681909473 0.5
    vertex 2.0 2.438010860998576 0.5
  endloop
endfacet
facet normal 0.0 0.0 1.0
  outer loop
    vertex 2.253395792611557 1.9804563620136983 0.5
    vertex 2.0 2.300613668190948 0.5
    vertex 2.0 2.240462768184087 0.5
  endloop
endfacet
facet normal -1.0 0.0 0.0
  outer loop
    vertex 2.0 2.300613668190948 -0.5
    vertex 2.0 2.240462768184087 -0.5
    vertex 2.0 2.240462768184086 0.5
  endloop
endfacet
facet normal -1.0 0.0 0.0
  outer loop
    vertex 2.0 2.300613668190948 -0.5
    vertex 2.0 2.240462768184086 0.5
    vertex 2.0 2.3006136681909473 0.5
  endloop
endfacet
facet normal 0.6405931786981754 0.7678804460365999 -0.0
  outer loop
    vertex 2.0 2.233206902336468 -0.5
    vertex 1.8006428416451046 2.399517734219158 -0.5
    vertex 2.0 2.233206902336468 0.34054107784857146
  endloop
endfacet
facet normal 0.6405931786981754 0.7678804460365999 -0.0
  outer loop
    vertex 1.8006428416451046 2.399517734219158 -0.5
    vertex 1.8006428416451046 2.399517734219158 0.5
    vertex 2.0 2.233206902336468 0.5
  endloop
endfacet
facet normal 0.6405931786981754 0.7678804460365999 -0.0
  outer loop
    vertex 1.8006428416451046 2.399517734219158 -0.5
    vertex 2.0 2.233206902336468 0.5
    vertex 2.0 2.233206902336468 0.34054107784857146
  endloop
endfacet
facet normal 0.0 0.0 1.0
  outer loop
    vertex 2.037820016691882 2.201656099296595 0.5
    vertex 2.0 2.240462768184087 0.5
    vertex 2.0 2.233206902336468 0.5
  endloop
endfacet
facet normal -1.0 0.0 0.0
  outer loop
    vertex 2.0 2.240462768184087 -0.5
    vertex 2.0 2.233206902336468 -0.5
    vertex 2.0 2.233206902336467 0.5
  endloop
endfacet
facet normal -1.0 0.0 0.0
  outer loop
    vertex 2.0 2.240462768184087 -0.5
    vertex 2.0 2.233206902336467 0.5
    vertex 2.0 2.240462768184086 0.5
  endloop
endfacet
facet normal 0.5582437220268652 0.8296770135526187 -0.0
  outer loop
    vertex 1.8006428416451046 2.399517734219158 -0.5
    vertex 1.5443784045294922 2.571943884228997 -0.5
    vertex 1.8006428416451046 2.399517734219158 0.5
  endloop
endfacet
facet normal 0.5582437220268652 0.8296770135526187 -0.0
  outer loop
    vertex 1.5443784045294922 2.571943884228997 -0.5
    vertex 1.5443784045294922 2.571943884228997 0.5
    vertex 1.8006428416451046 2.399517734219158 0.5
  endloop
endfacet
facet normal 0.4699767430273203 0.8826787983255473 -0.0
  outer loop
    vertex 1.5443784045294922 2.571943884228997 -0.5
    vertex 1.2717431721295822 2.7171067892414142 -0.5
    vertex 1.5443784045294922 2.571943884228997 0.5
  endloop
endfacet
facet normal 0.4699767430273203 0.8826787983255473 -0.0
  outer loop
    vertex 1.2717431721295822 2.7171067892414142 -0.5
    vertex 1.2717431721295822 2.7171067892414142 0.5
    vertex 1.5443784045294922 2.571943884228997 0.5
  endloop
endfacet
facet normal 0.37672789363518594 0.9263239682514947 -0.0
  outer loop
    vertex 1.2717431721295822 2.7171067892414142 -0.5
    vertex 0.9856271457325045 2.833467686350984 -0.5
    vertex 1.2717431721295822 2.7171067892414142 0.5
  endloop
endfacet
facet normal 0.37672789363518594 0.9263239682514947 -0.0
  outer loop
    vertex 0.9856271457325045 2.833467686350984 -0.5
    vertex 0.9856271457325045 2.833467686350984 0.5
    vertex 1.2717431721295822 2.7171067892414142 0.5
  endloop
endfacet
facet normal 0.27948563485160943 0.9601498736716018 -0.0
  outer loop
    vertex 0.9856271457325045 2.833467686350984 -0.5
    vertex 0.6890632263953865 2.9197931211011476 -0.5
    vertex 0.9856271457325045 2.833467686350984 0.5
  endloop
endfacet
facet normal 0.27948563485160943 0.9601498736716018 -0.0
  outer loop
    vertex 0.6890632263953865 2.9197931211011476 -0.5
    vertex 0.6890632263953865 2.9197931211011476 0.5
    vertex 0.9856271457325045 2.833467686350984 0.5
  endloop
endfacet
facet normal 0.17928075881073555 0.9837979515735163 -0.0
  outer loop
    vertex 0.6890632263953865 2.9197931211011476 -0.5
    vertex 0.385195065439653 2.9751680224083046 -0.5
    vertex 0.6890632263953865 2.9197931211011476 0.5
  endloop
endfacet
facet normal 0.17928075881073555 0.9837979515735163 -0.0
  outer loop
    vertex 0.385195065439653 2.9751680224083046 -0.5
    vertex 0.385195065439653 2.9751680224083046 0.5
    vertex 0.6890632263953865 2.9197931211011476 0.5
  endloop
endfacet
facet normal 0.07717546212664497 0.9970175264485268 -0.0
  outer loop
    vertex 0.385195065439653 2.9751680224083046 -0.5
    vertex 0.07724374096496597 2.999005402542939 -0.5
    vertex 0.385195065439653 2.9751680224083046 0.5
  endloop
endfacet
facet normal 0.07717546212664497 0.9970175264485268 -0.0
  outer loop
    vertex 0.07724374096496597 2.999005402542939 -0.5
    vertex 0.07724374096496597 2.999005402542939 0.5
    vertex 0.385195065439653 2.9751680224083046 0.5
  endloop
endfacet
facet normal -0.025747913654986656 0.9996684675143132 0.0
  outer loop
    vertex 0.07724374096496597 2.999005402542939 -0.5
    vertex -0.23152638637993855 2.99105257934558 -0.5
    vertex 0.07724374096496597 2.999005402542939 0.5
  endloop
endfacet
facet normal -0.025747913654986656 0.9996684675143132 0.0
  outer loop
    vertex -0.23152638637993855 2.99105257934558 -0.5
    vertex -0.23152638637993855 2.99105257934558 0.5
    vertex 0.07724374096496597 2.999005402542939 0.5
  endloop
endfacet
facet normal -0.12839835514655182 0.9917226741361014 0.0
  outer loop
    vertex -0.23152638637993855 2.99105257934558 -0.5
    vertex -0.537842276432207 2.951393854720549 -0.5
    vertex -0.23152638637993855 2.99105257934558 0.5
  endloop
endfacet
facet normal -0.12839835514655182 0.9917226741361014 0.0
  outer loop
    vertex -0.537842276432207 2.951393854720549 -0.5
    vertex -0.537842276432207 2.951393854720549 0.5
    vertex -0.23152638637993855 2.99105257934558 0.5
  endloop
endfacet
facet normal -0.22968774213179502 0.9732643737003828 0.0
  outer loop
    vertex -0.537842276432207 2.951393854720549 -0.5
    vertex -0.8384569045548281 2.8804496210148054 -0.5
    vertex -0.537842276432207 2.951393854720549 0.5
  endloop
endfacet
facet normal -0.22968774213179502 0.9732643737003828 0.0
  outer loop
    vertex -0.8384569045548281 2.8804496210148054 -0.5
    vertex -0.8384569045548281 2.8804496210148054 0.5
    vertex -0.537842276432207 2.951393854720549 0.5
  endloop
endfacet
facet normal -0.3285423819108352 0.9444892287836611 0.0
  outer loop
    vertex -0.8384569045548281 2.8804496210148054 -0.5
    vertex -1.1301836809055548 2.778971904754485 -0.5
    vertex -0.8384569045548281 2.8804496210148054 0.5
  endloop
endfacet
facet normal -0.3285423819108352 0.9444892287836611 0.0
  outer loop
    vertex -1.1301836809055548 2.778971904754485 -0.5
    vertex -1.1301836809055548 2.778971904754485 0.5
    vertex -0.8384569045548281 2.8804496210148054 0.5
  endloop
endfacet
facet normal -0.42391439070985976 0.905702263080472 0.0
  outer loop
    vertex -1.1301836809055548 2.778971904754485 -0.5
    vertex -1.4099302290819602 2.6480363949766423 -0.5
    vertex -1.1301836809055548 2.778971904754485 0.5
  endloop
endfacet
facet normal -0.42391439070985976 0.905702263080472 0.0
  outer loop
    vertex -1.4099302290819602 2.6480363949766423 -0.5
    vertex -1.4099302290819602 2.6480363949766423 0.5
    vertex -1.1301836809055548 2.778971904754485 0.5
  endloop
endfacet
facet normal -0.5147928015098314 0.8573146280763321 0.0
  outer loop
    vertex -1.4099302290819602 2.6480363949766423 -0.5
    vertex -1.6747311660805946 2.4890310406578564 -0.5
    vertex -1.4099302290819602 2.6480363949766423 0.5
  endloop
endfacet
facet normal -0.5147928015098314 0.8573146280763321 0.0
  outer loop
    vertex -1.6747311660805946 2.4890310406578564 -0.5
    vertex -1.6747311660805946 2.4890310406578564 0.5
    vertex -1.4099302290819602 2.6480363949766423 0.5
  endloop
endfacet
facet normal -0.6002142805483677 0.7998392447397198 0.0
  outer loop
    vertex -1.6747311660805946 2.4890310406578564 -0.5
    vertex -1.9217795360945253 2.3036413381098004 -0.5
    vertex -1.6747311660805946 2.4890310406578564 0.5
  endloop
endfacet
facet normal -0.6002142805483677 0.7998392447397198 0.0
  outer loop
    vertex -1.9217795360945253 2.3036413381098004 -0.5
    vertex -1.9217795360945253 2.3036413381098004 0.5
    vertex -1.6747311660805946 2.4890310406578564 0.5
  endloop
endfacet
facet normal -0.679273338897293 0.7338853664321994 0.0
  outer loop
    vertex -1.9217795360945253 2.3036413381098004 -0.5
    vertex -2.1484565649431793 2.0938324642990316 -0.5
    vertex -1.9217795360945253 2.3036413381098004 0.5
  endloop
endfacet
facet normal -0.679273338897293 0.7338853664321994 0.0
  outer loop
    vertex -2.1484565649431793 2.0938324642990316 -0.5
    vertex -2.1484565649431793 2.0938324642990316 0.5
    vertex -1.9217795360945253 2.3036413381098004 0.5
  endloop
endfacet
facet normal -0.7511319308705195 0.6601521206712322 0.0
  outer loop
    vertex -2.1484565649431793 2.0938324642990316 -0.5
    vertex -2.352359419730131 1.8618284454822691 -0.5
    vertex -2.1484565649431793 2.0938324642990316 0.5
  endloop
endfacet
facet normal -0.7511319308705195 0.6601521206712322 0.0
  outer loop
    vertex -2.352359419730131 1.8618284454822691 -0.5
    vertex -2.352359419730131 1.8618284454822691 0.5
    vertex -2.1484565649431793 2.0938324642990316 0.5
  endloop
endfacet
facet normal -0.8150283375168116 0.5794210982045634 0.0
  outer loop
    vertex -2.352359419730131 1.8618284454822691 -0.5
    vertex -2.531326679469557 1.6100885819748014 -0.5
    vertex -2.352359419730131 1.8618284454822691 0.5
  endloop
endfacet
facet normal -0.8150283375168116 0.5794210982045634 0.0
  outer loop
    vertex -2.531326679469557 1.6100885819748014 -0.5
    vertex -2.531326679469557 1.6100885819748014 0.5
    vertex -2.352359419730131 1.8618284454822691 0.5
  endloop
endfacet
facet normal -0.8702852410301554 0.49254806795386424 0.0
  outer loop
    vertex -2.531326679469557 1.6100885819748014 -0.5
    vertex -2.6834612466863867 1.3412813789553417 -0.5
    vertex -2.531326679469557 1.6100885819748014 0.5
  endloop
endfacet
facet normal -0.8702852410301554 0.49254806795386424 0.0
  outer loop
    vertex -2.6834612466863867 1.3412813789553417 -0.5
    vertex -2.6834612466863867 1.3412813789553417 0.5
    vertex -2.531326679469557 1.6100885819748014 0.5
  endloop
endfacet
facet normal -0.9163169044870048 0.40045390565126676 0.0
  outer loop
    vertex -2.6834612466863867 1.3412813789553417 -0.5
    vertex -2.8071504571214807 1.058256259647285 -0.5
    vertex -2.6834612466863867 1.3412813789553417 0.5
  endloop
endfacet
facet normal -0.9163169044870048 0.40045390565126676 0.0
  outer loop
    vertex -2.8071504571214807 1.058256259647285 -0.5
    vertex -2.8071504571214807 1.058256259647285 0.5
    vertex -2.6834612466863867 1.3412813789553417 0.5
  endloop
endfacet
facet normal -0.9526353808033823 0.30411483232751896 0.0
  outer loop
    vertex -2.8071504571214807 1.058256259647285 -0.5
    vertex -2.9010831743739613 0.7640133607236863 -0.5
    vertex -2.8071504571214807 1.058256259647285 0.5
  endloop
endfacet
facet normal -0.9526353808033823 0.30411483232751896 0.0
  outer loop
    vertex -2.9010831743739613 0.7640133607236863 -0.5
    vertex -2.9010831743739613 0.7640133607236863 0.5
    vertex -2.8071504571214807 1.058256259647285 0.5
  endloop
endfacet
facet normal -0.978855685095358 0.2045520661262002 0.0
  outer loop
    vertex -2.9010831743739613 0.7640133607236863 -0.5
    vertex -2.9642636882732316 0.4616717301121851 -0.5
    vertex -2.9010831743739613 0.7640133607236863 0.5
  endloop
endfacet
facet normal -0.978855685095358 0.2045520661262002 0.0
  outer loop
    vertex -2.9642636882732316 0.4616717301121851 -0.5
    vertex -2.9642636882732316 0.4616717301121851 0.5
    vertex -2.9010831743739613 0.7640133607236863 0.5
  endloop
endfacet
facet normal -0.9946998756145892 0.10282099713736038 0.0
  outer loop
    vertex -2.9642636882732316 0.4616717301121851 -0.5
    vertex -2.9960222696544916 0.15443626431104018 -0.5
    vertex -2.9642636882732316 0.4616717301121851 0.5
  endloop
endfacet
facet normal -0.9946998756145892 0.10282099713736038 0.0
  outer loop
    vertex -2.9960222696544916 0.15443626431104018 -0.5
    vertex -2.9960222696544916 0.15443626431104018 0.5
    vertex -2.9642636882732316 0.4616717301121851 0.5
  endloop
endfacet
facet normal -1.0 0.0 0.0
  outer loop
    vertex -2.9960222696544916 0.15443626431104018 -0.5
    vertex -2.9960222696544916 -0.15443626431103946 -0.5
    vertex -2.9960222696544916 0.15443626431104018 0.5
  endloop
endfacet
facet normal -1.0 0.0 0.0
  outer loop
    vertex -2.9960222696544916 -0.15443626431103946 -0.5
    vertex -2.9960222696544916 -0.15443626431103946 0.5
    vertex -2.9960222696544916 0.15443626431104018 0.5
  endloop
endfacet
facet normal -0.9946998756145892 -0.10282099713736036 0.0
  outer loop
    vertex -2.9960222696544916 -0.15443626431103946 -0.5
    vertex -2.9642636882732316 -0.46167173011218443 -0.5
    vertex -2.9960222696544916 -0.15443626431103946 0.5
  endloop
endfacet
facet normal -0.9946998756145892 -0.10282099713736036 0.0
  outer loop
    vertex -2.9642636882732316 -0.46167173011218443 -0.5
    vertex -2.9642636882732316 -0.46167173011218443 0.5
    vertex -2.9960222696544916 -0.15443626431103946 0.5
  endloop
endfacet
facet normal -0.978855685095358 -0.2045520661262002 0.0
  outer loop
    vertex -2.9642636882732316 -0.46167173011218443 -0.5
    vertex -2.9010831743739613 -0.7640133607236856 -0.5
    vertex -2.9642636882732316 -0.46167173011218443 0.5
  endloop
endfacet
facet normal -0.978855685095358 -0.2045520661262002 0.0
  outer loop
    vertex -2.9010831743739613 -0.7640133607236856 -0.5
    vertex -2.9010831743739613 -0.7640133607236856 0.5
    vertex -2.9642636882732316 -0.46167173011218443 0.5
  endloop
endfacet
facet normal -0.9526353808033826 -0.30411483232751785 0.0
  outer loop
    vertex -2.9010831743739613 -0.7640133607236856 -0.5
    vertex -2.807150457121481 -1.0582562596472842 -0.5
    vertex -2.9010831743739613 -0.7640133607236856 0.5
  endloop
endfacet
facet normal -0.9526353808033826 -0.30411483232751785 0.0
  outer loop
    vertex -2.807150457121481 -1.0582562596472842 -0.5
    vertex -2.807150457121481 -1.0582562596472842 0.5
    vertex -2.9010831743739613 -0.7640133607236856 0.5
  endloop
endfacet
facet normal -0.9163169044870048 -0.40045390565126676 0.0
  outer loop
    vertex -2.807150457121481 -1.0582562596472842 -0.5
    vertex -2.683461246686387 -1.3412813789553408 -0.5
    vertex -2.807150457121481 -1.0582562596472842 0.5
  endloop
endfacet
facet normal -0.9163169044870048 -0.40045390565126676 0.0
  outer loop
    vertex -2.683461246686387 -1.3412813789553408 -0.5
    vertex -2.683461246686387 -1.3412813789553408 0.5
    vertex -2.807150457121481 -1.0582562596472842 0.5
  endloop
endfacet
facet normal -0.8702852410301551 -0.49254806795386435 0.0
  outer loop
    vertex -2.683461246686387 -1.3412813789553408 -0.5
    vertex -2.531326679469557 -1.6100885819748012 -0.5
    vertex -2.683461246686387 -1.3412813789553408 0.5
  endloop
endfacet
facet normal -0.8702852410301551 -0.49254806795386435 0.0
  outer loop
    vertex -2.531326679469557 -1.6100885819748012 -0.5
    vertex -2.531326679469557 -1.6100885819748012 0.5
    vertex -2.683461246686387 -1.3412813789553408 0.5
  endloop
endfacet
facet normal -0.8150283375168117 -0.5794210982045631 0.0
  outer loop
    vertex -2.531326679469557 -1.6100885819748012 -0.5
    vertex -2.3523594197301314 -1.8618284454822684 -0.5
    vertex -2.531326679469557 -1.6100885819748012 0.5
  endloop
endfacet
facet normal -0.8150283375168117 -0.5794210982045631 0.0
  outer loop
    vertex -2.3523594197301314 -1.8618284454822684 -0.5
    vertex -2.3523594197301314 -1.8618284454822684 0.5
    vertex -2.531326679469557 -1.6100885819748012 0.5
  endloop
endfacet
facet normal -0.7511319308705194 -0.6601521206712323 0.0
  outer loop
    vertex -2.3523594197301314 -1.8618284454822684 -0.5
    vertex -2.1484565649431806 -2.09383246429903 -0.5
    vertex -2.3523594197301314 -1.8618284454822684 0.5
  endloop
endfacet
facet normal -0.7511319308705194 -0.6601521206712323 0.0
  outer loop
    vertex -2.1484565649431806 -2.09383246429903 -0.5
    vertex -2.1484565649431806 -2.09383246429903 0.5
    vertex -2.3523594197301314 -1.8618284454822684 0.5
  endloop
endfacet
facet normal -0.6792733388972936 -0.7338853664321988 0.0
  outer loop
    vertex -2.1484565649431806 -2.09383246429903 -0.5
    vertex -1.9217795360945256 -2.3036413381098 -0.5
    vertex -2.1484565649431806 -2.09383246429903 0.5
  endloop
endfacet
facet normal -0.6792733388972936 -0.7338853664321988 0.0
  outer loop
    vertex -1.9217795360945256 -2.3036413381098 -0.5
    vertex -1.9217795360945256 -2.3036413381098 0.5
    vertex -2.1484565649431806 -2.09383246429903 0.5
  endloop
endfacet
facet normal -0.6002142805483689 -0.7998392447397189 0.0
  outer loop
    vertex -1.9217795360945256 -2.3036413381098 -0.5
    vertex -1.6747311660805944 -2.489031040657857 -0.5
    vertex -1.9217795360945256 -2.3036413381098 0.5
  endloop
endfacet
facet normal -0.6002142805483689 -0.7998392447397189 0.0
  outer loop
    vertex -1.6747311660805944 -2.489031040657857 -0.5
    vertex -1.6747311660805944 -2.489031040657857 0.5
    vertex -1.9217795360945256 -2.3036413381098 0.5
  endloop
endfacet
facet normal -0.51479280150983 -0.8573146280763329 0.0
  outer loop
    vertex -1.6747311660805944 -2.489031040657857 -0.5
    vertex -1.409930229081962 -2.648036394976641 -0.5
    vertex -1.6747311660805944 -2.489031040657857 0.5
  endloop
endfacet
facet normal -0.51479280150983 -0.8573146280763329 0.0
  outer loop
    vertex -1.409930229081962 -2.648036394976641 -0.5
    vertex -1.409930229081962 -2.648036394976641 0.5
    vertex -1.6747311660805944 -2.489031040657857 0.5
  endloop
endfacet
facet normal -0.4239143907098617 -0.905702263080471 0.0
  outer loop
    vertex -1.409930229081962 -2.648036394976641 -0.5
    vertex -1.1301836809055543 -2.7789719047544854 -0.5
    vertex -1.409930229081962 -2.648036394976641 0.5
  endloop
endfacet
facet normal -0.4239143907098617 -0.905702263080471 0.0
  outer loop
    vertex -1.1301836809055543 -2.7789719047544854 -0.5
    vertex -1.1301836809055543 -2.7789719047544854 0.5
    vertex -1.409930229081962 -2.648036394976641 0.5
  endloop
endfacet
facet normal -0.3285423819108344 -0.9444892287836614 0.0
  outer loop
    vertex -1.1301836809055543 -2.7789719047544854 -0.5
    vertex -0.8384569045548295 -2.880449621014805 -0.5
    vertex -1.1301836809055543 -2.7789719047544854 0.5
  endloop
endfacet
facet normal -0.3285423819108344 -0.9444892287836614 0.0
  outer loop
    vertex -0.8384569045548295 -2.880449621014805 -0.5
    vertex -0.8384569045548295 -2.880449621014805 0.5
    vertex -1.1301836809055543 -2.7789719047544854 0.5
  endloop
endfacet
facet normal -0.22968774213179596 -0.9732643737003824 0.0
  outer loop
    vertex -0.8384569045548295 -2.880449621014805 -0.5
    vertex -0.5378422764322077 -2.951393854720549 -0.5
    vertex -0.8384569045548295 -2.880449621014805 0.5
  endloop
endfacet
facet normal -0.22968774213179596 -0.9732643737003824 0.0
  outer loop
    vertex -0.5378422764322077 -2.951393854720549 -0.5
    vertex -0.5378422764322077 -2.951393854720549 0.5
    vertex -0.8384569045548295 -2.880449621014805 0.5
  endloop
endfacet
facet normal -0.1283983551465518 -0.9917226741361014 0.0
  outer loop
    vertex -0.5378422764322077 -2.951393854720549 -0.5
    vertex -0.23152638637993928 -2.99105257934558 -0.5
    vertex -0.5378422764322077 -2.951393854720549 0.5
  endloop
endfacet
facet normal -0.1283983551465518 -0.9917226741361014 0.0
  outer loop
    vertex -0.23152638637993928 -2.99105257934558 -0.5
    vertex -0.23152638637993928 -2.99105257934558 0.5
    vertex -0.5378422764322077 -2.951393854720549 0.5
  endloop
endfacet
facet normal -0.02574791365498826 -0.9996684675143132 0.0
  outer loop
    vertex -0.23152638637993928 -2.99105257934558 -0.5
    vertex 0.07724374096496324 -2.9990054025429393 -0.5
    vertex -0.23152638637993928 -2.99105257934558 0.5
  endloop
endfacet
facet normal -0.02574791365498826 -0.9996684675143132 0.0
  outer loop
    vertex 0.07724374096496324 -2.9990054025429393 -0.5
    vertex 0.07724374096496324 -2.9990054025429393 0.5
    vertex -0.23152638637993928 -2.99105257934558 0.5
  endloop
endfacet
facet normal 0.07717546212664558 -0.9970175264485268 0.0
  outer loop
    vertex 0.07724374096496324 -2.9990054025429393 -0.5
    vertex 0.38519506543965354 -2.9751680224083046 -0.5
    vertex 0.07724374096496324 -2.9990054025429393 0.5
  endloop
endfacet
facet normal 0.07717546212664558 -0.9970175264485268 0.0
  outer loop
    vertex 0.38519506543965354 -2.9751680224083046 -0.5
    vertex 0.38519506543965354 -2.9751680224083046 0.5
    vertex 0.07724374096496324 -2.9990054025429393 0.5
  endloop
endfacet
facet normal 0.0 0.0 1.0
  outer loop
    vertex 2.0 -3.0 0.5
    vertex 3.154641304781272 -3.0 0.5
    vertex 3.142360002604249 -2.7617460187420058 0.5
  endloop
endfacet
facet normal 0.0 0.0 1.0
  outer loop
    vertex 2.0 -3.0 0.5
    vertex 3.142360002604249 -2.7617460187420058 0.5
    vertex 2.0 -2.8501719077331664 0.5
  endloop
endfacet
facet normal 0.0 -1.0 0.0
  outer loop
    vertex 2.0 -3.0 -0.5
    vertex 3.154641304781272 -3.0 -0.5
    vertex 3.154641304781272 -3.0 0.5
  endloop
endfacet
facet normal 0.0 -1.0 0.0
  outer loop
    vertex 2.0 -3.0 -0.5
    vertex 3.154641304781272 -3.0 0.5
    vertex 2.0 -3.0 0.5
  endloop
endfacet
facet normal -1.0 0.0 0.0
  outer loop
    vertex 2.0 -2.8501719077331664 -0.5
    vertex 2.0 -3.0 -0.5
    vertex 2.0 -3.0 0.5
  endloop
endfacet
facet normal -1.0 0.0 0.0
  outer loop
    vertex 2.0 -2.8501719077331664 -0.5
    vertex 2.0 -3.0 0.5
    vertex 2.0 -2.8501719077331664 0.5
  endloop
endfacet
facet normal 0.17928075881073524 -0.9837979515735165 0.0
  outer loop
    vertex 0.38519506543965354 -2.9751680224083046 -0.5
    vertex 0.6890632263953852 -2.919793121101148 -0.5
    vertex 0.38519506543965354 -2.9751680224083046 0.5
  endloop
endfacet
facet normal 0.17928075881073524 -0.9837979515735165 0.0
  outer loop
    vertex 0.6890632263953852 -2.919793121101148 -0.5
    vertex 0.6890632263953852 -2.919793121101148 0.5
    vertex 0.38519506543965354 -2.9751680224083046 0.5
  endloop
endfacet
facet normal 0.0 0.0 1.0
  outer loop
    vertex 3.142360002604249 -2.7617460187420058 0.5
    vertex 3.1276002337676667 -2.4754104464162516 0.5
    vertex 2.0 -2.6808967713488174 0.5
  endloop
endfacet
facet normal 0.0 0.0 1.0
  outer loop
    vertex 3.142360002604249 -2.7617460187420058 0.5
    vertex 2.0 -2.6808967713488174 0.5
    vertex 2.0 -2.8501719077331664 0.5
  endloop
endfacet
facet normal -1.0 0.0 0.0
  outer loop
    vertex 2.0 -2.6808967713488174 -0.5
    vertex 2.0 -2.8501719077331664 -0.5
    vertex 2.0 -2.8501719077331664 0.5
  endloop
endfacet
facet normal -1.0 0.0 0.0
  outer loop
    vertex 2.0 -2.6808967713488174 -0.5
    vertex 2.0 -2.8501719077331664 0.5
    vertex 2.0 -2.6808967713488183 0.5
  endloop
endfacet
facet normal 0.27948563485160943 -0.9601498736716018 0.0
  outer loop
    vertex 0.6890632263953852 -2.919793121101148 -0.5
    vertex 0.9856271457325032 -2.8334676863509842 -0.5
    vertex 0.6890632263953852 -2.919793121101148 0.5
  endloop
endfacet
facet normal 0.27948563485160943 -0.9601498736716018 0.0
  outer loop
    vertex 0.9856271457325032 -2.8334676863509842 -0.5
    vertex 0.9856271457325032 -2.8334676863509842 0.5
    vertex 0.6890632263953852 -2.919793121101148 0.5
  endloop
endfacet
facet normal 0.0 0.0 1.0
  outer loop
    vertex 3.1276002337676667 -2.4754104464162516 0.5
    vertex 3.11411984382894 -2.2138944829200744 0.5
    vertex 2.0 -2.538198532102096 0.5
  endloop
endfacet
facet normal 0.0 0.0 1.0
  outer loop
    vertex 3.1276002337676667 -2.4754104464162516 0.5
    vertex 2.0 -2.538198532102096 0.5
    vertex 2.0 -2.6808967713488174 0.5
  endloop
endfacet
facet normal -1.0 0.0 0.0
  outer loop
    vertex 2.0 -2.538198532102096 -0.5
    vertex 2.0 -2.6808967713488174 -0.5
    vertex 2.0 -2.6808967713488183 0.5
  endloop
endfacet
facet normal -1.0 0.0 0.0
  outer loop
    vertex 2.0 -2.538198532102096 -0.5
    vertex 2.0 -2.6808967713488183 0.5
    vertex 2.0 -2.538198532102096 0.5
  endloop
endfacet
facet normal 0.3767278936351852 -0.926323968251495 0.0
  outer loop
    vertex 0.9856271457325032 -2.8334676863509842 -0.5
    vertex 1.2717431721295815 -2.7171067892414147 -0.5
    vertex 0.9856271457325032 -2.8334676863509842 0.5
  endloop
endfacet
facet normal 0.3767278936351852 -0.926323968251495 0.0
  outer loop
    vertex 1.2717431721295815 -2.7171067892414147 -0.5
    vertex 1.2717431721295815 -2.7171067892414147 0.5
    vertex 0.9856271457325032 -2.8334676863509842 0.5
  endloop
endfacet
facet normal 0.0 0.0 1.0
  outer loop
    vertex 3.11411984382894 -2.2138944829200744 0.5
    vertex 3.101696286441459 -1.9728807885829798 0.5
    vertex 2.0 -2.4209310772959176 0.5
  endloop
endfacet
facet normal 0.0 0.0 1.0
  outer loop
    vertex 3.11411984382894 -2.2138944829200744 0.5
    vertex 2.0 -2.4209310772959176 0.5
    vertex 2.0 -2.538198532102096 0.5
  endloop
endfacet
facet normal -1.0 0.0 0.0
  outer loop
    vertex 2.0 -2.4209310772959176 -0.5
    vertex 2.0 -2.538198532102096 -0.5
    vertex 2.0 -2.538198532102096 0.5
  endloop
endfacet
facet normal -1.0 0.0 0.0
  outer loop
    vertex 2.0 -2.4209310772959176 -0.5
    vertex 2.0 -2.538198532102096 0.5
    vertex 2.0 -2.4209310772959176 0.5
  endloop
endfacet
facet normal 0.4699767430273205 -0.8826787983255473 0.0
  outer loop
    vertex 1.2717431721295815 -2.7171067892414147 -0.5
    vertex 1.5443784045294922 -2.571943884228997 -0.5
    vertex 1.2717431721295815 -2.7171067892414147 0.5
  endloop
endfacet
facet normal 0.4699767430273205 -0.8826787983255473 0.0
  outer loop
    vertex 1.5443784045294922 -2.571943884228997 -0.5
    vertex 1.5443784045294922 -2.571943884228997 0.5
    vertex 1.2717431721295815 -2.7171067892414147 0.5
  endloop
endfacet
facet normal 0.0 0.0 1.0
  outer loop
    vertex 3.101696286441459 -1.9728807885829798 0.5
    vertex 3.0901510866519466 -1.748906996991359 0.5
    vertex 2.0 -2.3293510476293733 0.5
  endloop
endfacet
facet normal 0.0 0.0 1.0
  outer loop
    vertex 3.101696286441459 -1.9728807885829798 0.5
    vertex 2.0 -2.3293510476293733 0.5
    vertex 2.0 -2.4209310772959176 0.5
  endloop
endfacet
facet normal -1.0 0.0 0.0
  outer loop
    vertex 2.0 -2.3293510476293733 -0.5
    vertex 2.0 -2.4209310772959176 -0.5
    vertex 2.0 -2.4209310772959176 0.5
  endloop
endfacet
facet normal -1.0 0.0 0.0
  outer loop
    vertex 2.0 -2.3293510476293733 -0.5
    vertex 2.0 -2.4209310772959176 0.5
    vertex 2.0 -2.329351047629374 0.5
  endloop
endfacet
facet normal 0.5582437220268646 -0.8296770135526191 0.0
  outer loop
    vertex 1.5443784045294922 -2.571943884228997 -0.5
    vertex 1.800642841645105 -2.399517734219158 -0.5
    vertex 1.5443784045294922 -2.571943884228997 0.5
  endloop
endfacet
facet normal 0.5582437220268646 -0.8296770135526191 0.0
  outer loop
    vertex 1.800642841645105 -2.399517734219158 -0.5
    vertex 1.800642841645105 -2.399517734219158 0.5
    vertex 1.5443784045294922 -2.571943884228997 0.5
  endloop
endfacet
facet normal 0.0 0.0 1.0
  outer loop
    vertex 3.0901510866519466 -1.748906996991359 0.5
    vertex 3.07933892467663 -1.539153943162508 0.5
    vertex 2.0 -2.2653813410506896 0.5
  endloop
endfacet
facet normal 0.0 0.0 1.0
  outer loop
    vertex 3.0901510866519466 -1.748906996991359 0.5
    vertex 2.0 -2.2653813410506896 0.5
    vertex 2.0 -2.3293510476293733 0.5
  endloop
endfacet
facet normal -1.0 0.0 0.0
  outer loop
    vertex 2.0 -2.2653813410506896 -0.5
    vertex 2.0 -2.3293510476293733 -0.5
    vertex 2.0 -2.329351047629374 0.5
  endloop
endfacet
facet normal -1.0 0.0 0.0
  outer loop
    vertex 2.0 -2.2653813410506896 -0.5
    vertex 2.0 -2.329351047629374 0.5
    vertex 2.0 -2.2653813410506887 0.5
  endloop
endfacet
facet normal 0.6405931786981762 -0.7678804460365991 0.0
  outer loop
    vertex 1.800642841645105 -2.399517734219158 -0.5
    vertex 2.0 -2.233206902336468 -0.5
    vertex 2.0 -2.233206902336468 -0.34054107784856963
  endloop
endfacet
facet normal 0.6405931786981762 -0.7678804460365991 0.0
  outer loop
    vertex 1.800642841645105 -2.399517734219158 -0.5
    vertex 2.0 -2.233206902336468 -0.34054107784856963
    vertex 1.800642841645105 -2.399517734219158 0.5
  endloop
endfacet
facet normal 0.6405931786981763 -0.7678804460365991 0.0
  outer loop
    vertex 2.0 -2.233206902336468 0.5
    vertex 1.800642841645105 -2.399517734219158 0.5
    vertex 2.0 -2.233206902336468 -0.3405410778485696
  endloop
endfacet
facet normal 0.0 0.0 1.0
  outer loop
    vertex 3.07933892467663 -1.539153943162508 0.5
    vertex 3.0691397410272807 -1.3412925050989504 0.5
    vertex 2.0 -2.2332069023364687 0.5
  endloop
endfacet
facet normal 0.0 0.0 1.0
  outer loop
    vertex 3.07933892467663 -1.539153943162508 0.5
    vertex 2.0 -2.2332069023364687 0.5
    vertex 2.0 -2.2653813410506896 0.5
  endloop
endfacet
facet normal -1.0 0.0 0.0
  outer loop
    vertex 2.0 -2.2332069023364687 -0.5
    vertex 2.0 -2.2653813410506896 -0.5
    vertex 2.0 -2.2653813410506887 0.5
  endloop
endfacet
facet normal -1.0 0.0 0.0
  outer loop
    vertex 2.0 -2.2332069023364687 -0.5
    vertex 2.0 -2.2653813410506887 0.5
    vertex 2.0 -2.233206902336468 0.5
  endloop
endfacet
facet normal 0.0 0.0 1.0
  outer loop
    vertex 3.0691397410272807 -1.3412925050989504 0.5
    vertex 3.0594529187531094 -1.1533707408354013 0.5
    vertex 2.0378200166918776 -2.2016560992965992 0.5
  endloop
endfacet
facet normal 0.0 0.0 1.0
  outer loop
    vertex 3.0594529187531094 -1.1533707408354013 0.5
    vertex 3.0501929191295294 -0.9737292219667302 0.5
    vertex 2.2533957926115544 -1.980456362013701 0.5
  endloop
endfacet
facet normal 0.0 0.0 1.0
  outer loop
    vertex 3.0501929191295294 -0.9737292219667302 0.5
    vertex 3.0412859497248514 -0.800936395031982 0.5
    vertex 2.4450850125504346 -1.738263294613689 0.5
  endloop
endfacet
facet normal 0.0 0.0 1.0
  outer loop
    vertex 3.0412859497248514 -0.800936395031982 0.5
    vertex 3.032667374615813 -0.6337383403874843 0.5
    vertex 2.6108557230904674 -1.4776442038615905 0.5
  endloop
endfacet
facet normal 0.0 0.0 1.0
  outer loop
    vertex 3.032667374615813 -0.6337383403874843 0.5
    vertex 3.0242796626108697 -0.47101896828685985 0.5
    vertex 2.7489507134610145 -1.2013617169537993 0.5
  endloop
endfacet
facet normal 0.0 0.0 1.0
  outer loop
    vertex 3.0242796626108697 -0.47101896828685985 0.5
    vertex 3.0160707268588647 -0.3117678077327808 0.5
    vertex 2.8579061424101453 -0.9123444969825605 0.5
  endloop
endfacet
facet normal 0.0 0.0 1.0
  outer loop
    vertex 3.0160707268588647 -0.3117678077327808 0.5
    vertex 3.0079925480770817 -0.15505329746899676 0.5
    vertex 2.9365670552860736 -0.6136561983785993 0.5
  endloop
endfacet
facet normal 0.0 0.0 1.0
  outer loop
    vertex 3.0079925480770817 -0.15505329746899676 0.5
    vertex 3.0 3.2751579226442118E-15 0.5
    vertex 2.984099626843767 -0.30846299141208283 0.5
  endloop
endfacet
facet normal 0.0 0.0 1.0
  outer loop
    vertex 3.0 0.0 0.5
    vertex 2.984099626843767 0.3084629914120812 0.5
    vertex 0.0 0.0 0.5
  endloop
endfacet
facet normal 0.0 0.0 1.0
  outer loop
    vertex 2.984099626843767 0.3084629914120812 0.5
    vertex 2.9365670552860736 0.6136561983786024 0.5
    vertex 0.0 0.0 0.5
  endloop
endfacet
facet normal 0.0 0.0 1.0
  outer loop
    vertex 2.9365670552860736 0.6136561983786024 0.5
    vertex 2.8579061424101475 0.9123444969825536 0.5
    vertex 0.0 0.0 0.5
  endloop
endfacet
facet normal 0.0 0.0 1.0
  outer loop
    vertex 2.8579061424101475 0.9123444969825536 0.5
    vertex 2.7489507134610145 1.2013617169537993 0.5
    vertex 0.0 0.0 0.5
  endloop
endfacet
facet normal 0.0 0.0 1.0
  outer loop
    vertex 2.7489507134610145 1.2013617169537993 0.5
    vertex 2.6108557230904657 1.4776442038615931 0.5
    vertex 0.0 0.0 0.5
  endloop
endfacet
facet normal 0.0 0.0 1.0
  outer loop
    vertex 2.6108557230904657 1.4776442038615931 0.5
    vertex 2.445085012550434 1.7382632946136911 0.5
    vertex 0.0 0.0 0.5
  endloop
endfacet
facet normal 0.0 0.0 1.0
  outer loop
    vertex 2.445085012550434 1.7382632946136911 0.5
    vertex 2.2533957926115598 1.9804563620136952 0.5
    vertex 0.0 0.0 0.5
  endloop
endfacet
facet normal 0.0 0.0 1.0
  outer loop
    vertex 2.2533957926115598 1.9804563620136952 0.5
    vertex 2.0378200166918794 2.201656099296597 0.5
    vertex 0.0 0.0 0.5
  endloop
endfacet
facet normal 0.0 0.0 1.0
  outer loop
    vertex 2.0378200166918794 2.201656099296597 0.5
    vertex 1.8006428416451046 2.399517734219158 0.5
    vertex 0.0 0.0 0.5
  endloop
endfacet
facet normal 0.0 0.0 1.0
  outer loop
    vertex 1.8006428416451046 2.399517734219158 0.5
    vertex 1.5443784045294922 2.571943884228997 0.5
    vertex 0.0 0.0 0.5
  endloop
endfacet
facet normal 0.0 0.0 1.0
  outer loop
    vertex 1.5443784045294922 2.571943884228997 0.5
    vertex 1.2717431721295822 2.7171067892414142 0.5
    vertex 0.0 0.0 0.5
  endloop
endfacet
facet normal 0.0 0.0 1.0
  outer loop
    vertex 1.2717431721295822 2.7171067892414142 0.5
    vertex 0.9856271457325045 2.833467686350984 0.5
    vertex 0.0 0.0 0.5
  endloop
endfacet
facet normal 0.0 0.0 1.0
  outer loop
    vertex 0.9856271457325045 2.833467686350984 0.5
    vertex 0.6890632263953865 2.9197931211011476 0.5
    vertex 0.0 0.0 0.5
  endloop
endfacet
facet normal 0.0 0.0 1.0
  outer loop
    vertex 0.6890632263953865 2.9197931211011476 0.5
    vertex 0.385195065439653 2.9751680224083046 0.5
    vertex 0.0 0.0 0.5
  endloop
endfacet
facet normal 0.0 0.0 1.0
  outer loop
    vertex 0.385195065439653 2.9751680224083046 0.5
    vertex 0.07724374096496597 2.999005402542939 0.5
    vertex 0.0 0.0 0.5
  endloop
endfacet
facet normal 0.0 0.0 1.0
  outer loop
    vertex 0.07724374096496597 2.999005402542939 0.5
    vertex -0.23152638637993855 2.99105257934558 0.5
    vertex 0.0 0.0 0.5
  endloop
endfacet
facet normal 0.0 0.0 1.0
  outer loop
    vertex -0.23152638637993855 2.99105257934558 0.5
    vertex -0.537842276432207 2.951393854720549 0.5
    vertex -0.0 0.0 0.5
  endloop
endfacet
facet normal 0.0 0.0 1.0
  outer loop
    vertex -0.537842276432207 2.951393854720549 0.5
    vertex -0.8384569045548281 2.8804496210148054 0.5
    vertex -0.0 0.0 0.5
  endloop
endfacet
facet normal 0.0 0.0 1.0
  outer loop
    vertex -0.8384569045548281 2.8804496210148054 0.5
    vertex -1.1301836809055548 2.778971904754485 0.5
    vertex -0.0 0.0 0.5
  endloop
endfacet
facet normal 0.0 0.0 1.0
  outer loop
    vertex -1.1301836809055548 2.778971904754485 0.5
    vertex -1.4099302290819602 2.6480363949766423 0.5
    vertex -0.0 0.0 0.5
  endloop
endfacet
facet normal 0.0 0.0 1.0
  outer loop
    vertex -1.4099302290819602 2.6480363949766423 0.5
    vertex -1.6747311660805946 2.4890310406578564 0.5
    vertex -0.0 0.0 0.5
  endloop
endfacet
facet normal 0.0 0.0 1.0
  outer loop
    vertex -1.6747311660805946 2.4890310406578564 0.5
    vertex -1.9217795360945253 2.3036413381098004 0.5
    vertex -0.0 0.0 0.5
  endloop
endfacet
facet normal 0.0 0.0 1.0
  outer loop
    vertex -1.9217795360945253 2.3036413381098004 0.5
    vertex -2.1484565649431793 2.0938324642990316 0.5
    vertex -0.0 0.0 0.5
  endloop
endfacet
facet normal 0.0 0.0 1.0
  outer loop
    vertex -2.1484565649431793 2.0938324642990316 0.5
    vertex -2.352359419730131 1.8618284454822691 0.5
    vertex -0.0 0.0 0.5
  endloop
endfacet
facet normal 0.0 0.0 1.0
  outer loop
    vertex -2.352359419730131 1.8618284454822691 0.5
    vertex -2.531326679469557 1.6100885819748014 0.5
    vertex -0.0 0.0 0.5
  endloop
endfacet
facet normal 0.0 0.0 1.0
  outer loop
    vertex -2.531326679469557 1.6100885819748014 0.5
    vertex -2.6834612466863867 1.3412813789553417 0.5
    vertex -0.0 0.0 0.5
  endloop
endfacet
facet normal 0.0 0.0 1.0
  outer loop
    vertex -2.6834612466863867 1.3412813789553417 0.5
    vertex -2.8071504571214807 1.058256259647285 0.5
    vertex -0.0 0.0 0.5
  endloop
endfacet
facet normal 0.0 0.0 1.0
  outer loop
    vertex -2.8071504571214807 1.058256259647285 0.5
    vertex -2.9010831743739613 0.7640133607236863 0.5
    vertex -0.0 0.0 0.5
  endloop
endfacet
facet normal 0.0 0.0 1.0
  outer loop
    vertex -2.9010831743739613 0.7640133607236863 0.5
    vertex -2.9642636882732316 0.4616717301121851 0.5
    vertex -0.0 0.0 0.5
  endloop
endfacet
facet normal 0.0 0.0 1.0
  outer loop
    vertex -2.9642636882732316 0.4616717301121851 0.5
    vertex -2.9960222696544916 0.15443626431104018 0.5
    vertex -0.0 0.0 0.5
  endloop
endfacet
facet normal 0.0 0.0 1.0
  outer loop
    vertex -2.9960222696544916 0.15443626431104018 0.5
    vertex -2.9960222696544916 -0.15443626431103946 0.5
    vertex -0.0 0.0 0.5
  endloop
endfacet
facet normal -0.0 0.0 1.0
  outer loop
    vertex -2.9960222696544916 -0.15443626431103946 0.5
    vertex -2.9642636882732316 -0.46167173011218443 0.5
    vertex -0.0 -0.0 0.5
  endloop
endfacet
facet normal -0.0 0.0 1.0
  outer loop
    vertex -2.9642636882732316 -0.46167173011218443 0.5
    vertex -2.9010831743739613 -0.7640133607236856 0.5
    vertex -0.0 -0.0 0.5
  endloop
endfacet
facet normal -0.0 0.0 1.0
  outer loop
    vertex -2.9010831743739613 -0.7640133607236856 0.5
    vertex -2.807150457121481 -1.0582562596472842 0.5
    vertex -0.0 -0.0 0.5
  endloop
endfacet
facet normal -0.0 0.0 1.0
  outer loop
    vertex -2.807150457121481 -1.0582562596472842 0.5
    vertex -2.683461246686387 -1.3412813789553408 0.5
    vertex -0.0 -0.0 0.5
  endloop
endfacet
facet normal -0.0 0.0 1.0
  outer loop
    vertex -2.683461246686387 -1.3412813789553408 0.5
    vertex -2.531326679469557 -1.6100885819748012 0.5
    vertex -0.0 -0.0 0.5
  endloop
endfacet
facet normal -0.0 0.0 1.0
  outer loop
    vertex -2.531326679469557 -1.6100885819748012 0.5
    vertex -2.3523594197301314 -1.8618284454822684 0.5
    vertex -0.0 -0.0 0.5
  endloop
endfacet
facet normal -0.0 0.0 1.0
  outer loop
    vertex -2.3523594197301314 -1.8618284454822684 0.5
    vertex -2.1484565649431806 -2.09383246429903 0.5
    vertex -0.0 -0.0 0.5
  endloop
endfacet
facet normal -0.0 0.0 1.0
  outer loop
    vertex -2.1484565649431806 -2.09383246429903 0.5
    vertex -1.9217795360945256 -2.3036413381098 0.5
    vertex -0.0 -0.0 0.5
  endloop
endfacet
facet normal -0.0 0.0 1.0
  outer loop
    vertex -1.9217795360945256 -2.3036413381098 0.5
    vertex -1.6747311660805944 -2.489031040657857 0.5
    vertex -0.0 -0.0 0.5
  endloop
endfacet
facet normal -0.0 0.0 1.0
  outer loop
    vertex -1.6747311660805944 -2.489031040657857 0.5
    vertex -1.409930229081962 -2.648036394976641 0.5
    vertex -0.0 -0.0 0.5
  endloop
endfacet
facet normal -0.0 0.0 1.0
  outer loop
    vertex -1.409930229081962 -2.648036394976641 0.5
    vertex -1.1301836809055543 -2.7789719047544854 0.5
    vertex -0.0 -0.0 0.5
  endloop
endfacet
facet normal -0.0 0.0 1.0
  outer loop
    vertex -1.1301836809055543 -2.7789719047544854 0.5
    vertex -0.8384569045548295 -2.880449621014805 0.5
    vertex -0.0 -0.0 0.5
  endloop
endfacet
facet normal -0.0 0.0 1.0
  outer loop
    vertex -0.8384569045548295 -2.880449621014805 0.5
    vertex -0.5378422764322077 -2.951393854720549 0.5
    vertex -0.0 -0.0 0.5
  endloop
endfacet
facet normal -0.0 0.0 1.0
  outer loop
    vertex -0.5378422764322077 -2.951393854720549 0.5
    vertex -0.23152638637993928 -2.99105257934558 0.5
    vertex -0.0 -0.0 0.5
  endloop
endfacet
facet normal -0.0 0.0 1.0
  outer loop
    vertex -0.23152638637993928 -2.99105257934558 0.5
    vertex 0.07724374096496324 -2.9990054025429393 0.5
    vertex -0.0 -0.0 0.5
  endloop
endfacet
facet normal 0.0 -0.0 1.0
  outer loop
    vertex 0.07724374096496324 -2.9990054025429393 0.5
    vertex 0.38519506543965354 -2.9751680224083046 0.5
    vertex 0.0 -0.0 0.5
  endloop
endfacet
facet normal 0.0 -0.0 1.0
  outer loop
    vertex 0.38519506543965354 -2.9751680224083046 0.5
    vertex 0.6890632263953852 -2.919793121101148 0.5
    vertex 0.0 -0.0 0.5
  endloop
endfacet
facet normal 0.0 -0.0 1.0
  outer loop
    vertex 0.6890632263953852 -2.919793121101148 0.5
    vertex 0.9856271457325032 -2.8334676863509842 0.5
    vertex 0.0 -0.0 0.5
  endloop
endfacet
facet normal 0.0 -0.0 1.0
  outer loop
    vertex 0.9856271457325032 -2.8334676863509842 0.5
    vertex 1.2717431721295815 -2.7171067892414147 0.5
    vertex 0.0 -0.0 0.5
  endloop
endfacet
facet normal 0.0 -0.0 1.0
  outer loop
    vertex 1.2717431721295815 -2.7171067892414147 0.5
    vertex 1.5443784045294922 -2.571943884228997 0.5
    vertex 0.0 -0.0 0.5
  endloop
endfacet
facet normal 0.0 -0.0 1.0
  outer loop
    vertex 1.5443784045294922 -2.571943884228997 0.5
    vertex 1.800642841645105 -2.399517734219158 0.5
    vertex 0.0 -0.0 0.5
  endloop
endfacet
facet normal 0.0 -0.0 1.0
  outer loop
    vertex 1.800642841645105 -2.399517734219158 0.5
    vertex 2.03782001669188 -2.2016560992965966 0.5
    vertex 0.0 -0.0 0.5
  endloop
endfacet
facet normal 0.0 -0.0 1.0
  outer loop
    vertex 2.03782001669188 -2.2016560992965966 0.5
    vertex 2.253395792611559 -1.9804563620136961 0.5
    vertex 0.0 -0.0 0.5
  endloop
endfacet
facet normal 0.0 -0.0 1.0
  outer loop
    vertex 2.253395792611559 -1.9804563620136961 0.5
    vertex 2.4450850125504333 -1.7382632946136916 0.5
    vertex 0.0 -0.0 0.5
  endloop
endfacet
facet normal 0.0 -0.0 1.0
  outer loop
    vertex 2.4450850125504333 -1.7382632946136916 0.5
    vertex 2.6108557230904657 -1.4776442038615936 0.5
    vertex 0.0 -0.0 0.5
  endloop
endfacet
facet normal 0.0 -0.0 1.0
  outer loop
    vertex 2.6108557230904657 -1.4776442038615936 0.5
    vertex 2.748950713461013 -1.2013617169538018 0.5
    vertex 0.0 -0.0 0.5
  endloop
endfacet
facet normal 0.0 -0.0 1.0
  outer loop
    vertex 2.748950713461013 -1.2013617169538018 0.5
    vertex 2.857906142410148 -0.9123444969825532 0.5
    vertex 0.0 -0.0 0.5
  endloop
endfacet
facet normal 0.0 -0.0 1.0
  outer loop
    vertex 2.857906142410148 -0.9123444969825532 0.5
    vertex 2.936567055286073 -0.6136561983786041 0.5
    vertex 0.0 -0.0 0.5
  endloop
endfacet
facet normal 0.0 -0.0 1.0
  outer loop
    vertex 2.936567055286073 -0.6136561983786041 0.5
    vertex 2.984099626843767 -0.3084629914120824 0.5
    vertex 0.0 -0.0 0.5
  endloop
endfacet
facet normal 0.0 -0.0 1.0
  outer loop
    vertex 2.984099626843767 -0.3084629914120824 0.5
    vertex 3.0 0.0 0.5
    vertex 0.0 -0.0 0.5
  endloop
endfacet
endsolid
