solid 
facet normal 0.0 0.0 -1.0
  outer loop
    vertex -2.5 1.5 -2.5
    vertex -2.484807753012208 1.6736481776669303 -2.5
    vertex -2.4396926207859084 1.8420201433256689 -2.5
  endloop
endfacet
facet normal 0.0 0.0 -1.0
  outer loop
    vertex -2.5 1.5 -2.5
    vertex -2.4396926207859084 1.8420201433256689 -2.5
    vertex -2.3660254037844384 2.0000000000000004 -2.5
  endloop
endfacet
facet normal 0.0 0.0 -1.0
  outer loop
    vertex -2.5 1.5 -2.5
    vertex -2.3660254037844384 2.0000000000000004 -2.5
    vertex -2.266044443118978 2.1427876096865397 -2.5
  endloop
endfacet
facet normal 0.0 0.0 -1.0
  outer loop
    vertex -2.5 1.5 -2.5
    vertex -2.266044443118978 2.1427876096865397 -2.5
    vertex -2.1427876096865393 2.266044443118978 -2.5
  endloop
endfacet
facet normal 0.0 0.0 -1.0
  outer loop
    vertex -2.5 1.5 -2.5
    vertex -2.1427876096865393 2.266044443118978 -2.5
    vertex -1.9999999999999998 2.366025403784439 -2.5
  endloop
endfacet
facet normal 0.0 0.0 -1.0
  outer loop
    vertex -2.5 1.5 -2.5
    vertex -1.9999999999999998 2.366025403784439 -2.5
    vertex -1.8420201433256687 2.4396926207859084 -2.5
  endloop
endfacet
facet normal 0.0 0.0 -1.0
  outer loop
    vertex -2.5 1.5 -2.5
    vertex -1.8420201433256687 2.4396926207859084 -2.5
    vertex -1.6736481776669303 2.484807753012208 -2.5
  endloop
endfacet
facet normal 0.0 0.0 -1.0
  outer loop
    vertex -2.5 1.5 -2.5
    vertex -1.6736481776669303 2.484807753012208 -2.5
    vertex -1.5 2.5 -2.5
  endloop
endfacet
facet normal 0.0 0.0 -1.0
  outer loop
    vertex -2.5 1.5 -2.5
    vertex -1.5 2.5 -2.5
    vertex 1.5 2.5 -2.5
  endloop
endfacet
facet normal 0.0 0.0 -1.0
  outer loop
    vertex -2.5 1.5 -2.5
    vertex 1.5 2.5 -2.5
    vertex 1.6736481776669305 2.484807753012208 -2.5
  endloop
endfacet
facet normal 0.0 0.0 -1.0
  outer loop
    vertex -2.5 1.5 -2.5
    vertex 1.6736481776669305 2.484807753012208 -2.5
    vertex 1.8420201433256689 2.4396926207859084 -2.5
  endloop
endfacet
facet normal 0.0 0.0 -1.0
  outer loop
    vertex -2.5 1.5 -2.5
    vertex 1.8420201433256689 2.4396926207859084 -2.5
    vertex 2.0 2.3660254037844384 -2.5
  endloop
endfacet
facet normal 0.0 0.0 -1.0
  outer loop
    vertex -2.5 1.5 -2.5
    vertex 2.0 2.3660254037844384 -2.5
    vertex 2.1427876096865393 2.266044443118978 -2.5
  endloop
endfacet
facet normal 0.0 0.0 -1.0
  outer loop
    vertex -2.5 1.5 -2.5
    vertex 2.1427876096865393 2.266044443118978 -2.5
    vertex 2.266044443118978 2.1427876096865393 -2.5
  endloop
endfacet
facet normal 0.0 0.0 -1.0
  outer loop
    vertex -2.5 1.5 -2.5
    vertex 2.266044443118978 2.1427876096865393 -2.5
    vertex 2.366025403784439 2.0 -2.5
  endloop
endfacet
facet normal 0.0 0.0 -1.0
  outer loop
    vertex -2.5 1.5 -2.5
    vertex 2.366025403784439 2.0 -2.5
    vertex 2.4396926207859084 1.8420201433256687 -2.5
  endloop
endfacet
facet normal 0.0 0.0 -1.0
  outer loop
    vertex -2.5 1.5 -2.5
    vertex 2.4396926207859084 1.8420201433256687 -2.5
    vertex 2.484807753012208 1.6736481776669303 -2.5
  endloop
endfacet
facet normal 0.0 0.0 -1.0
  outer loop
    vertex -2.5 1.5 -2.5
    vertex 2.484807753012208 1.6736481776669303 -2.5
    vertex 2.5 1.5 -2.5
  endloop
endfacet
facet normal 0.0 0.0 -1.0
  outer loop
    vertex -2.5 1.5 -2.5
    vertex 2.5 1.5 -2.5
    vertex 2.5 -1.5 -2.5
  endloop
endfacet
facet normal 0.0 0.0 -1.0
  outer loop
    vertex -2.5 1.5 -2.5
    vertex 2.5 -1.5 -2.5
    vertex 2.484807753012208 -1.6736481776669303 -2.5
  endloop
endfacet
facet normal 0.0 0.0 -1.0
  outer loop
    vertex -2.5 1.5 -2.5
    vertex 2.484807753012208 -1.6736481776669303 -2.5
    vertex 2.4396926207859084 -1.8420201433256687 -2.5
  endloop
endfacet
facet normal 0.0 0.0 -1.0
  outer loop
    vertex -2.5 1.5 -2.5
    vertex 2.4396926207859084 -1.8420201433256687 -2.5
    vertex 2.3660254037844384 -2.0000000000000004 -2.5
  endloop
endfacet
facet normal 0.0 0.0 -1.0
  outer loop
    vertex -2.5 1.5 -2.5
    vertex 2.3660254037844384 -2.0000000000000004 -2.5
    vertex 2.266044443118978 -2.1427876096865397 -2.5
  endloop
endfacet
facet normal 0.0 0.0 -1.0
  outer loop
    vertex -2.5 1.5 -2.5
    vertex 2.266044443118978 -2.1427876096865397 -2.5
    vertex 2.1427876096865393 -2.266044443118978 -2.5
  endloop
endfacet
facet normal 0.0 0.0 -1.0
  outer loop
    vertex -2.5 1.5 -2.5
    vertex 2.1427876096865393 -2.266044443118978 -2.5
    vertex 2.0 -2.3660254037844384 -2.5
  endloop
endfacet
facet normal 0.0 0.0 -1.0
  outer loop
    vertex -2.5 1.5 -2.5
    vertex 2.0 -2.3660254037844384 -2.5
    vertex 1.8420201433256682 -2.4396926207859084 -2.5
  endloop
endfacet
facet normal 0.0 0.0 -1.0
  outer loop
    vertex -2.5 1.5 -2.5
    vertex 1.8420201433256682 -2.4396926207859084 -2.5
    vertex 1.67364817766693 -2.484807753012208 -2.5
  endloop
endfacet
facet normal 0.0 0.0 -1.0
  outer loop
    vertex -2.5 1.5 -2.5
    vertex 1.67364817766693 -2.484807753012208 -2.5
    vertex 1.4999999999999998 -2.5 -2.5
  endloop
endfacet
facet normal 0.0 0.0 -1.0
  outer loop
    vertex -2.5 1.5 -2.5
    vertex 1.4999999999999998 -2.5 -2.5
    vertex -1.5 -2.5 -2.5
  endloop
endfacet
facet normal 0.0 0.0 -1.0
  outer loop
    vertex -2.5 1.5 -2.5
    vertex -1.5 -2.5 -2.5
    vertex -1.6736481776669303 -2.484807753012208 -2.5
  endloop
endfacet
facet normal 0.0 0.0 -1.0
  outer loop
    vertex -2.5 1.5 -2.5
    vertex -1.6736481776669303 -2.484807753012208 -2.5
    vertex -1.8420201433256684 -2.4396926207859084 -2.5
  endloop
endfacet
facet normal 0.0 0.0 -1.0
  outer loop
    vertex -2.5 1.5 -2.5
    vertex -1.8420201433256684 -2.4396926207859084 -2.5
    vertex -2.0000000000000004 -2.3660254037844384 -2.5
  endloop
endfacet
facet normal 0.0 0.0 -1.0
  outer loop
    vertex -2.5 1.5 -2.5
    vertex -2.0000000000000004 -2.3660254037844384 -2.5
    vertex -2.1427876096865397 -2.266044443118978 -2.5
  endloop
endfacet
facet normal 0.0 0.0 -1.0
  outer loop
    vertex -2.5 1.5 -2.5
    vertex -2.1427876096865397 -2.266044443118978 -2.5
    vertex -2.266044443118978 -2.1427876096865393 -2.5
  endloop
endfacet
facet normal 0.0 0.0 -1.0
  outer loop
    vertex -2.5 1.5 -2.5
    vertex -2.266044443118978 -2.1427876096865393 -2.5
    vertex -2.366025403784439 -1.9999999999999998 -2.5
  endloop
endfacet
facet normal 0.0 0.0 -1.0
  outer loop
    vertex -2.5 1.5 -2.5
    vertex -2.366025403784439 -1.9999999999999998 -2.5
    vertex -2.4396926207859084 -1.8420201433256687 -2.5
  endloop
endfacet
facet normal 0.0 0.0 -1.0
  outer loop
    vertex -2.5 1.5 -2.5
    vertex -2.4396926207859084 -1.8420201433256687 -2.5
    vertex -2.484807753012208 -1.67364817766693 -2.5
  endloop
endfacet
facet normal 0.0 0.0 -1.0
  outer loop
    vertex -2.5 1.5 -2.5
    vertex -2.484807753012208 -1.67364817766693 -2.5
    vertex -2.5 -1.4999999999999998 -2.5
  endloop
endfacet
facet normal 0.0 0.0 1.0
  outer loop
    vertex -2.5 -1.4999999999999998 2.5
    vertex -2.484807753012208 -1.67364817766693 2.5
    vertex -2.4396926207859084 -1.8420201433256687 2.5
  endloop
endfacet
facet normal 0.0 0.0 1.0
  outer loop
    vertex -2.5 -1.4999999999999998 2.5
    vertex -2.4396926207859084 -1.8420201433256687 2.5
    vertex -2.366025403784439 -1.9999999999999998 2.5
  endloop
endfacet
facet normal 0.0 0.0 1.0
  outer loop
    vertex -2.5 -1.4999999999999998 2.5
    vertex -2.366025403784439 -1.9999999999999998 2.5
    vertex -2.266044443118978 -2.1427876096865393 2.5
  endloop
endfacet
facet normal 0.0 0.0 1.0
  outer loop
    vertex -2.5 -1.4999999999999998 2.5
    vertex -2.266044443118978 -2.1427876096865393 2.5
    vertex -2.1427876096865397 -2.266044443118978 2.5
  endloop
endfacet
facet normal 0.0 0.0 1.0
  outer loop
    vertex -2.5 -1.4999999999999998 2.5
    vertex -2.1427876096865397 -2.266044443118978 2.5
    vertex -2.0000000000000004 -2.3660254037844384 2.5
  endloop
endfacet
facet normal 0.0 0.0 1.0
  outer loop
    vertex -2.5 -1.4999999999999998 2.5
    vertex -2.0000000000000004 -2.3660254037844384 2.5
    vertex -1.8420201433256684 -2.4396926207859084 2.5
  endloop
endfacet
facet normal 0.0 0.0 1.0
  outer loop
    vertex -2.5 -1.4999999999999998 2.5
    vertex -1.8420201433256684 -2.4396926207859084 2.5
    vertex -1.6736481776669303 -2.484807753012208 2.5
  endloop
endfacet
facet normal 0.0 0.0 1.0
  outer loop
    vertex -2.5 -1.4999999999999998 2.5
    vertex -1.6736481776669303 -2.484807753012208 2.5
    vertex -1.5 -2.5 2.5
  endloop
endfacet
facet normal 0.0 0.0 1.0
  outer loop
    vertex -2.5 -1.4999999999999998 2.5
    vertex -1.5 -2.5 2.5
    vertex 1.4999999999999998 -2.5 2.5
  endloop
endfacet
facet normal 0.0 0.0 1.0
  outer loop
    vertex -2.5 -1.4999999999999998 2.5
    vertex 1.4999999999999998 -2.5 2.5
    vertex 1.67364817766693 -2.484807753012208 2.5
  endloop
endfacet
facet normal 0.0 0.0 1.0
  outer loop
    vertex -2.5 -1.4999999999999998 2.5
    vertex 1.67364817766693 -2.484807753012208 2.5
    vertex 1.8420201433256682 -2.4396926207859084 2.5
  endloop
endfacet
facet normal 0.0 0.0 1.0
  outer loop
    vertex -2.5 -1.4999999999999998 2.5
    vertex 1.8420201433256682 -2.4396926207859084 2.5
    vertex 2.0 -2.3660254037844384 2.5
  endloop
endfacet
facet normal 0.0 0.0 1.0
  outer loop
    vertex -2.5 -1.4999999999999998 2.5
    vertex 2.0 -2.3660254037844384 2.5
    vertex 2.1427876096865393 -2.266044443118978 2.5
  endloop
endfacet
facet normal 0.0 0.0 1.0
  outer loop
    vertex -2.5 -1.4999999999999998 2.5
    vertex 2.1427876096865393 -2.266044443118978 2.5
    vertex 2.266044443118978 -2.1427876096865397 2.5
  endloop
endfacet
facet normal 0.0 0.0 1.0
  outer loop
    vertex -2.5 -1.4999999999999998 2.5
    vertex 2.266044443118978 -2.1427876096865397 2.5
    vertex 2.3660254037844384 -2.0000000000000004 2.5
  endloop
endfacet
facet normal 0.0 0.0 1.0
  outer loop
    vertex -2.5 -1.4999999999999998 2.5
    vertex 2.3660254037844384 -2.0000000000000004 2.5
    vertex 2.4396926207859084 -1.8420201433256687 2.5
  endloop
endfacet
facet normal 0.0 0.0 1.0
  outer loop
    vertex -2.5 -1.4999999999999998 2.5
    vertex 2.4396926207859084 -1.8420201433256687 2.5
    vertex 2.484807753012208 -1.6736481776669303 2.5
  endloop
endfacet
facet normal 0.0 0.0 1.0
  outer loop
    vertex -2.5 -1.4999999999999998 2.5
    vertex 2.484807753012208 -1.6736481776669303 2.5
    vertex 2.5 -1.5 2.5
  endloop
endfacet
facet normal 0.0 0.0 1.0
  outer loop
    vertex -2.5 -1.4999999999999998 2.5
    vertex 2.5 -1.5 2.5
    vertex 2.5 1.5 2.5
  endloop
endfacet
facet normal 0.0 0.0 1.0
  outer loop
    vertex -2.5 -1.4999999999999998 2.5
    vertex 2.5 1.5 2.5
    vertex 2.484807753012208 1.6736481776669303 2.5
  endloop
endfacet
facet normal 0.0 0.0 1.0
  outer loop
    vertex -2.5 -1.4999999999999998 2.5
    vertex 2.484807753012208 1.6736481776669303 2.5
    vertex 2.4396926207859084 1.8420201433256687 2.5
  endloop
endfacet
facet normal 0.0 0.0 1.0
  outer loop
    vertex -2.5 -1.4999999999999998 2.5
    vertex 2.4396926207859084 1.8420201433256687 2.5
    vertex 2.366025403784439 2.0 2.5
  endloop
endfacet
facet normal 0.0 0.0 1.0
  outer loop
    vertex -2.5 -1.4999999999999998 2.5
    vertex 2.366025403784439 2.0 2.5
    vertex 2.266044443118978 2.1427876096865393 2.5
  endloop
endfacet
facet normal 0.0 0.0 1.0
  outer loop
    vertex -2.5 -1.4999999999999998 2.5
    vertex 2.266044443118978 2.1427876096865393 2.5
    vertex 2.1427876096865393 2.266044443118978 2.5
  endloop
endfacet
facet normal 0.0 0.0 1.0
  outer loop
    vertex -2.5 -1.4999999999999998 2.5
    vertex 2.1427876096865393 2.266044443118978 2.5
    vertex 2.0 2.3660254037844384 2.5
  endloop
endfacet
facet normal 0.0 0.0 1.0
  outer loop
    vertex -2.5 -1.4999999999999998 2.5
    vertex 2.0 2.3660254037844384 2.5
    vertex 1.8420201433256689 2.4396926207859084 2.5
  endloop
endfacet
facet normal 0.0 0.0 1.0
  outer loop
    vertex -2.5 -1.4999999999999998 2.5
    vertex 1.8420201433256689 2.4396926207859084 2.5
    vertex 1.6736481776669305 2.484807753012208 2.5
  endloop
endfacet
facet normal 0.0 0.0 1.0
  outer loop
    vertex -2.5 -1.4999999999999998 2.5
    vertex 1.6736481776669305 2.484807753012208 2.5
    vertex 1.5 2.5 2.5
  endloop
endfacet
facet normal 0.0 0.0 1.0
  outer loop
    vertex -2.5 -1.4999999999999998 2.5
    vertex 1.5 2.5 2.5
    vertex -1.5 2.5 2.5
  endloop
endfacet
facet normal 0.0 0.0 1.0
  outer loop
    vertex -2.5 -1.4999999999999998 2.5
    vertex -1.5 2.5 2.5
    vertex -1.6736481776669303 2.484807753012208 2.5
  endloop
endfacet
facet normal 0.0 0.0 1.0
  outer loop
    vertex -2.5 -1.4999999999999998 2.5
    vertex -1.6736481776669303 2.484807753012208 2.5
    vertex -1.8420201433256687 2.4396926207859084 2.5
  endloop
endfacet
facet normal 0.0 0.0 1.0
  outer loop
    vertex -2.5 -1.4999999999999998 2.5
    vertex -1.8420201433256687 2.4396926207859084 2.5
    vertex -1.9999999999999998 2.366025403784439 2.5
  endloop
endfacet
facet normal 0.0 0.0 1.0
  outer loop
    vertex -2.5 -1.4999999999999998 2.5
    vertex -1.9999999999999998 2.366025403784439 2.5
    vertex -2.1427876096865393 2.266044443118978 2.5
  endloop
endfacet
facet normal 0.0 0.0 1.0
  outer loop
    vertex -2.5 -1.4999999999999998 2.5
    vertex -2.1427876096865393 2.266044443118978 2.5
    vertex -2.266044443118978 2.1427876096865397 2.5
  endloop
endfacet
facet normal 0.0 0.0 1.0
  outer loop
    vertex -2.5 -1.4999999999999998 2.5
    vertex -2.266044443118978 2.1427876096865397 2.5
    vertex -2.3660254037844384 2.0000000000000004 2.5
  endloop
endfacet
facet normal 0.0 0.0 1.0
  outer loop
    vertex -2.5 -1.4999999999999998 2.5
    vertex -2.3660254037844384 2.0000000000000004 2.5
    vertex -2.4396926207859084 1.8420201433256689 2.5
  endloop
endfacet
facet normal 0.0 0.0 1.0
  outer loop
    vertex -2.5 -1.4999999999999998 2.5
    vertex -2.4396926207859084 1.8420201433256689 2.5
    vertex -2.484807753012208 1.6736481776669303 2.5
  endloop
endfacet
facet normal 0.0 0.0 1.0
  outer loop
    vertex -2.5 -1.4999999999999998 2.5
    vertex -2.484807753012208 1.6736481776669303 2.5
    vertex -2.5 1.5 2.5
  endloop
endfacet
facet normal -0.9961946980917455 -0.08715574274765779 0.0
  outer loop
    vertex -2.5 -1.4999999999999998 -2.5
    vertex -2.484807753012208 -1.67364817766693 -2.5
    vertex -2.484807753012208 -1.67364817766693 2.5
  endloop
endfacet
facet normal -0.9961946980917455 -0.08715574274765779 0.0
  outer loop
    vertex -2.5 -1.4999999999999998 -2.5
    vertex -2.484807753012208 -1.67364817766693 2.5
    vertex -2.5 -1.4999999999999998 2.5
  endloop
endfacet
facet normal -0.9659258262890683 -0.25881904510252063 0.0
  outer loop
    vertex -2.484807753012208 -1.67364817766693 -2.5
    vertex -2.4396926207859084 -1.8420201433256687 -2.5
    vertex -2.4396926207859084 -1.8420201433256687 2.5
  endloop
endfacet
facet normal -0.9659258262890683 -0.25881904510252063 0.0
  outer loop
    vertex -2.484807753012208 -1.67364817766693 -2.5
    vertex -2.4396926207859084 -1.8420201433256687 2.5
    vertex -2.484807753012208 -1.67364817766693 2.5
  endloop
endfacet
facet normal -0.90630778703665 -0.42261826174069916 0.0
  outer loop
    vertex -2.4396926207859084 -1.8420201433256687 -2.5
    vertex -2.366025403784439 -1.9999999999999998 -2.5
    vertex -2.366025403784439 -1.9999999999999998 2.5
  endloop
endfacet
facet normal -0.90630778703665 -0.42261826174069916 0.0
  outer loop
    vertex -2.4396926207859084 -1.8420201433256687 -2.5
    vertex -2.366025403784439 -1.9999999999999998 2.5
    vertex -2.4396926207859084 -1.8420201433256687 2.5
  endloop
endfacet
facet normal -0.8191520442889914 -0.5735764363510469 0.0
  outer loop
    vertex -2.366025403784439 -1.9999999999999998 -2.5
    vertex -2.266044443118978 -2.1427876096865393 -2.5
    vertex -2.266044443118978 -2.1427876096865393 2.5
  endloop
endfacet
facet normal -0.8191520442889914 -0.5735764363510469 0.0
  outer loop
    vertex -2.366025403784439 -1.9999999999999998 -2.5
    vertex -2.266044443118978 -2.1427876096865393 2.5
    vertex -2.366025403784439 -1.9999999999999998 2.5
  endloop
endfacet
facet normal -0.7071067811865488 -0.7071067811865464 0.0
  outer loop
    vertex -2.266044443118978 -2.1427876096865393 -2.5
    vertex -2.1427876096865397 -2.266044443118978 -2.5
    vertex -2.1427876096865397 -2.266044443118978 2.5
  endloop
endfacet
facet normal -0.7071067811865488 -0.7071067811865464 0.0
  outer loop
    vertex -2.266044443118978 -2.1427876096865393 -2.5
    vertex -2.1427876096865397 -2.266044443118978 2.5
    vertex -2.266044443118978 -2.1427876096865393 2.5
  endloop
endfacet
facet normal -0.5735764363510457 -0.819152044288992 0.0
  outer loop
    vertex -2.1427876096865397 -2.266044443118978 -2.5
    vertex -2.0000000000000004 -2.3660254037844384 -2.5
    vertex -2.0000000000000004 -2.3660254037844384 2.5
  endloop
endfacet
facet normal -0.5735764363510457 -0.819152044288992 0.0
  outer loop
    vertex -2.1427876096865397 -2.266044443118978 -2.5
    vertex -2.0000000000000004 -2.3660254037844384 2.5
    vertex -2.1427876096865397 -2.266044443118978 2.5
  endloop
endfacet
facet normal -0.42261826174069933 -0.90630778703665 0.0
  outer loop
    vertex -2.0000000000000004 -2.3660254037844384 -2.5
    vertex -1.8420201433256684 -2.4396926207859084 -2.5
    vertex -1.8420201433256684 -2.4396926207859084 2.5
  endloop
endfacet
facet normal -0.42261826174069933 -0.90630778703665 0.0
  outer loop
    vertex -2.0000000000000004 -2.3660254037844384 -2.5
    vertex -1.8420201433256684 -2.4396926207859084 2.5
    vertex -2.0000000000000004 -2.3660254037844384 2.5
  endloop
endfacet
facet normal -0.2588190451025213 -0.9659258262890682 0.0
  outer loop
    vertex -1.8420201433256684 -2.4396926207859084 -2.5
    vertex -1.6736481776669303 -2.484807753012208 -2.5
    vertex -1.6736481776669303 -2.484807753012208 2.5
  endloop
endfacet
facet normal -0.2588190451025213 -0.9659258262890682 0.0
  outer loop
    vertex -1.8420201433256684 -2.4396926207859084 -2.5
    vertex -1.6736481776669303 -2.484807753012208 2.5
    vertex -1.8420201433256684 -2.4396926207859084 2.5
  endloop
endfacet
facet normal -0.08715574274765779 -0.9961946980917455 0.0
  outer loop
    vertex -1.6736481776669303 -2.484807753012208 -2.5
    vertex -1.5 -2.5 -2.5
    vertex -1.5 -2.5 2.5
  endloop
endfacet
facet normal -0.08715574274765779 -0.9961946980917455 0.0
  outer loop
    vertex -1.6736481776669303 -2.484807753012208 -2.5
    vertex -1.5 -2.5 2.5
    vertex -1.6736481776669303 -2.484807753012208 2.5
  endloop
endfacet
facet normal 0.0 -1.0 0.0
  outer loop
    vertex -1.5 -2.5 -2.5
    vertex 1.4999999999999998 -2.5 -2.5
    vertex 1.4999999999999998 -2.5 2.5
  endloop
endfacet
facet normal 0.0 -1.0 0.0
  outer loop
    vertex -1.5 -2.5 -2.5
    vertex 1.4999999999999998 -2.5 2.5
    vertex -1.5 -2.5 2.5
  endloop
endfacet
facet normal 0.08715574274765779 -0.9961946980917455 0.0
  outer loop
    vertex 1.4999999999999998 -2.5 -2.5
    vertex 1.67364817766693 -2.484807753012208 -2.5
    vertex 1.67364817766693 -2.484807753012208 2.5
  endloop
endfacet
facet normal 0.08715574274765779 -0.9961946980917455 0.0
  outer loop
    vertex 1.4999999999999998 -2.5 -2.5
    vertex 1.67364817766693 -2.484807753012208 2.5
    vertex 1.4999999999999998 -2.5 2.5
  endloop
endfacet
facet normal 0.2588190451025213 -0.9659258262890682 0.0
  outer loop
    vertex 1.67364817766693 -2.484807753012208 -2.5
    vertex 1.8420201433256682 -2.4396926207859084 -2.5
    vertex 1.8420201433256682 -2.4396926207859084 2.5
  endloop
endfacet
facet normal 0.2588190451025213 -0.9659258262890682 0.0
  outer loop
    vertex 1.67364817766693 -2.484807753012208 -2.5
    vertex 1.8420201433256682 -2.4396926207859084 2.5
    vertex 1.67364817766693 -2.484807753012208 2.5
  endloop
endfacet
facet normal 0.42261826174069983 -0.9063077870366498 0.0
  outer loop
    vertex 1.8420201433256682 -2.4396926207859084 -2.5
    vertex 2.0 -2.3660254037844384 -2.5
    vertex 2.0 -2.3660254037844384 2.5
  endloop
endfacet
facet normal 0.42261826174069983 -0.9063077870366498 0.0
  outer loop
    vertex 1.8420201433256682 -2.4396926207859084 -2.5
    vertex 2.0 -2.3660254037844384 2.5
    vertex 1.8420201433256682 -2.4396926207859084 2.5
  endloop
endfacet
facet normal 0.5735764363510457 -0.819152044288992 0.0
  outer loop
    vertex 2.0 -2.3660254037844384 -2.5
    vertex 2.1427876096865393 -2.266044443118978 -2.5
    vertex 2.1427876096865393 -2.266044443118978 2.5
  endloop
endfacet
facet normal 0.5735764363510457 -0.819152044288992 0.0
  outer loop
    vertex 2.0 -2.3660254037844384 -2.5
    vertex 2.1427876096865393 -2.266044443118978 2.5
    vertex 2.0 -2.3660254037844384 2.5
  endloop
endfacet
facet normal 0.7071067811865464 -0.7071067811865488 0.0
  outer loop
    vertex 2.1427876096865393 -2.266044443118978 -2.5
    vertex 2.266044443118978 -2.1427876096865397 -2.5
    vertex 2.266044443118978 -2.1427876096865397 2.5
  endloop
endfacet
facet normal 0.7071067811865464 -0.7071067811865488 0.0
  outer loop
    vertex 2.1427876096865393 -2.266044443118978 -2.5
    vertex 2.266044443118978 -2.1427876096865397 2.5
    vertex 2.1427876096865393 -2.266044443118978 2.5
  endloop
endfacet
facet normal 0.819152044288992 -0.5735764363510457 0.0
  outer loop
    vertex 2.266044443118978 -2.1427876096865397 -2.5
    vertex 2.3660254037844384 -2.0000000000000004 -2.5
    vertex 2.3660254037844384 -2.0000000000000004 2.5
  endloop
endfacet
facet normal 0.819152044288992 -0.5735764363510457 0.0
  outer loop
    vertex 2.266044443118978 -2.1427876096865397 -2.5
    vertex 2.3660254037844384 -2.0000000000000004 2.5
    vertex 2.266044443118978 -2.1427876096865397 2.5
  endloop
endfacet
facet normal 0.9063077870366498 -0.42261826174069983 0.0
  outer loop
    vertex 2.3660254037844384 -2.0000000000000004 -2.5
    vertex 2.4396926207859084 -1.8420201433256687 -2.5
    vertex 2.4396926207859084 -1.8420201433256687 2.5
  endloop
endfacet
facet normal 0.9063077870366498 -0.42261826174069983 0.0
  outer loop
    vertex 2.3660254037844384 -2.0000000000000004 -2.5
    vertex 2.4396926207859084 -1.8420201433256687 2.5
    vertex 2.3660254037844384 -2.0000000000000004 2.5
  endloop
endfacet
facet normal 0.9659258262890683 -0.25881904510252096 0.0
  outer loop
    vertex 2.4396926207859084 -1.8420201433256687 -2.5
    vertex 2.484807753012208 -1.6736481776669303 -2.5
    vertex 2.484807753012208 -1.6736481776669303 2.5
  endloop
endfacet
facet normal 0.9659258262890683 -0.25881904510252096 0.0
  outer loop
    vertex 2.4396926207859084 -1.8420201433256687 -2.5
    vertex 2.484807753012208 -1.6736481776669303 2.5
    vertex 2.4396926207859084 -1.8420201433256687 2.5
  endloop
endfacet
facet normal 0.9961946980917455 -0.08715574274765779 0.0
  outer loop
    vertex 2.484807753012208 -1.6736481776669303 -2.5
    vertex 2.5 -1.5 -2.5
    vertex 2.5 -1.5 2.5
  endloop
endfacet
facet normal 0.9961946980917455 -0.08715574274765779 0.0
  outer loop
    vertex 2.484807753012208 -1.6736481776669303 -2.5
    vertex 2.5 -1.5 2.5
    vertex 2.484807753012208 -1.6736481776669303 2.5
  endloop
endfacet
facet normal 1.0 0.0 0.0
  outer loop
    vertex 2.5 -1.5 -2.5
    vertex 2.5 1.5 -2.5
    vertex 2.5 1.5 2.5
  endloop
endfacet
facet normal 1.0 0.0 0.0
  outer loop
    vertex 2.5 -1.5 -2.5
    vertex 2.5 1.5 2.5
    vertex 2.5 -1.5 2.5
  endloop
endfacet
facet normal 0.9961946980917455 0.08715574274765779 0.0
  outer loop
    vertex 2.5 1.5 -2.5
    vertex 2.484807753012208 1.6736481776669303 -2.5
    vertex 2.484807753012208 1.6736481776669303 2.5
  endloop
endfacet
facet normal 0.9961946980917455 0.08715574274765779 0.0
  outer loop
    vertex 2.5 1.5 -2.5
    vertex 2.484807753012208 1.6736481776669303 2.5
    vertex 2.5 1.5 2.5
  endloop
endfacet
facet normal 0.9659258262890683 0.25881904510252096 0.0
  outer loop
    vertex 2.484807753012208 1.6736481776669303 -2.5
    vertex 2.4396926207859084 1.8420201433256687 -2.5
    vertex 2.4396926207859084 1.8420201433256687 2.5
  endloop
endfacet
facet normal 0.9659258262890683 0.25881904510252096 0.0
  outer loop
    vertex 2.484807753012208 1.6736481776669303 -2.5
    vertex 2.4396926207859084 1.8420201433256687 2.5
    vertex 2.484807753012208 1.6736481776669303 2.5
  endloop
endfacet
facet normal 0.9063077870366504 0.4226182617406987 0.0
  outer loop
    vertex 2.4396926207859084 1.8420201433256687 -2.5
    vertex 2.366025403784439 2.0 -2.5
    vertex 2.366025403784439 2.0 2.5
  endloop
endfacet
facet normal 0.9063077870366504 0.4226182617406987 0.0
  outer loop
    vertex 2.4396926207859084 1.8420201433256687 -2.5
    vertex 2.366025403784439 2.0 2.5
    vertex 2.4396926207859084 1.8420201433256687 2.5
  endloop
endfacet
facet normal 0.8191520442889909 0.5735764363510475 0.0
  outer loop
    vertex 2.366025403784439 2.0 -2.5
    vertex 2.266044443118978 2.1427876096865393 -2.5
    vertex 2.266044443118978 2.1427876096865393 2.5
  endloop
endfacet
facet normal 0.8191520442889909 0.5735764363510475 0.0
  outer loop
    vertex 2.366025403784439 2.0 -2.5
    vertex 2.266044443118978 2.1427876096865393 2.5
    vertex 2.366025403784439 2.0 2.5
  endloop
endfacet
facet normal 0.7071067811865476 0.7071067811865476 0.0
  outer loop
    vertex 2.266044443118978 2.1427876096865393 -2.5
    vertex 2.1427876096865393 2.266044443118978 -2.5
    vertex 2.1427876096865393 2.266044443118978 2.5
  endloop
endfacet
facet normal 0.7071067811865476 0.7071067811865476 0.0
  outer loop
    vertex 2.266044443118978 2.1427876096865393 -2.5
    vertex 2.1427876096865393 2.266044443118978 2.5
    vertex 2.266044443118978 2.1427876096865393 2.5
  endloop
endfacet
facet normal 0.5735764363510457 0.819152044288992 0.0
  outer loop
    vertex 2.1427876096865393 2.266044443118978 -2.5
    vertex 2.0 2.3660254037844384 -2.5
    vertex 2.0 2.3660254037844384 2.5
  endloop
endfacet
facet normal 0.5735764363510457 0.819152044288992 0.0
  outer loop
    vertex 2.1427876096865393 2.266044443118978 -2.5
    vertex 2.0 2.3660254037844384 2.5
    vertex 2.1427876096865393 2.266044443118978 2.5
  endloop
endfacet
facet normal 0.4226182617407013 0.9063077870366492 0.0
  outer loop
    vertex 2.0 2.3660254037844384 -2.5
    vertex 1.8420201433256689 2.4396926207859084 -2.5
    vertex 1.8420201433256689 2.4396926207859084 2.5
  endloop
endfacet
facet normal 0.4226182617407013 0.9063077870366492 0.0
  outer loop
    vertex 2.0 2.3660254037844384 -2.5
    vertex 1.8420201433256689 2.4396926207859084 2.5
    vertex 2.0 2.3660254037844384 2.5
  endloop
endfacet
facet normal 0.25881904510252096 0.9659258262890683 0.0
  outer loop
    vertex 1.8420201433256689 2.4396926207859084 -2.5
    vertex 1.6736481776669305 2.484807753012208 -2.5
    vertex 1.6736481776669305 2.484807753012208 2.5
  endloop
endfacet
facet normal 0.25881904510252096 0.9659258262890683 0.0
  outer loop
    vertex 1.8420201433256689 2.4396926207859084 -2.5
    vertex 1.6736481776669305 2.484807753012208 2.5
    vertex 1.8420201433256689 2.4396926207859084 2.5
  endloop
endfacet
facet normal 0.08715574274765768 0.9961946980917455 0.0
  outer loop
    vertex 1.6736481776669305 2.484807753012208 -2.5
    vertex 1.5 2.5 -2.5
    vertex 1.5 2.5 2.5
  endloop
endfacet
facet normal 0.08715574274765768 0.9961946980917455 0.0
  outer loop
    vertex 1.6736481776669305 2.484807753012208 -2.5
    vertex 1.5 2.5 2.5
    vertex 1.6736481776669305 2.484807753012208 2.5
  endloop
endfacet
facet normal 0.0 1.0 0.0
  outer loop
    vertex 1.5 2.5 -2.5
    vertex -1.5 2.5 -2.5
    vertex -1.5 2.5 2.5
  endloop
endfacet
facet normal 0.0 1.0 0.0
  outer loop
    vertex 1.5 2.5 -2.5
    vertex -1.5 2.5 2.5
    vertex 1.5 2.5 2.5
  endloop
endfacet
facet normal -0.08715574274765779 0.9961946980917455 0.0
  outer loop
    vertex -1.5 2.5 -2.5
    vertex -1.6736481776669303 2.484807753012208 -2.5
    vertex -1.6736481776669303 2.484807753012208 2.5
  endloop
endfacet
facet normal -0.08715574274765779 0.9961946980917455 0.0
  outer loop
    vertex -1.5 2.5 -2.5
    vertex -1.6736481776669303 2.484807753012208 2.5
    vertex -1.5 2.5 2.5
  endloop
endfacet
facet normal -0.25881904510252096 0.9659258262890683 0.0
  outer loop
    vertex -1.6736481776669303 2.484807753012208 -2.5
    vertex -1.8420201433256687 2.4396926207859084 -2.5
    vertex -1.8420201433256687 2.4396926207859084 2.5
  endloop
endfacet
facet normal -0.25881904510252096 0.9659258262890683 0.0
  outer loop
    vertex -1.6736481776669303 2.484807753012208 -2.5
    vertex -1.8420201433256687 2.4396926207859084 2.5
    vertex -1.6736481776669303 2.484807753012208 2.5
  endloop
endfacet
facet normal -0.42261826174069916 0.90630778703665 0.0
  outer loop
    vertex -1.8420201433256687 2.4396926207859084 -2.5
    vertex -1.9999999999999998 2.366025403784439 -2.5
    vertex -1.9999999999999998 2.366025403784439 2.5
  endloop
endfacet
facet normal -0.42261826174069916 0.90630778703665 0.0
  outer loop
    vertex -1.8420201433256687 2.4396926207859084 -2.5
    vertex -1.9999999999999998 2.366025403784439 2.5
    vertex -1.8420201433256687 2.4396926207859084 2.5
  endloop
endfacet
facet normal -0.5735764363510469 0.8191520442889914 0.0
  outer loop
    vertex -1.9999999999999998 2.366025403784439 -2.5
    vertex -2.1427876096865393 2.266044443118978 -2.5
    vertex -2.1427876096865393 2.266044443118978 2.5
  endloop
endfacet
facet normal -0.5735764363510469 0.8191520442889914 0.0
  outer loop
    vertex -1.9999999999999998 2.366025403784439 -2.5
    vertex -2.1427876096865393 2.266044443118978 2.5
    vertex -1.9999999999999998 2.366025403784439 2.5
  endloop
endfacet
facet normal -0.7071067811865464 0.7071067811865488 0.0
  outer loop
    vertex -2.1427876096865393 2.266044443118978 -2.5
    vertex -2.266044443118978 2.1427876096865397 -2.5
    vertex -2.266044443118978 2.1427876096865397 2.5
  endloop
endfacet
facet normal -0.7071067811865464 0.7071067811865488 0.0
  outer loop
    vertex -2.1427876096865393 2.266044443118978 -2.5
    vertex -2.266044443118978 2.1427876096865397 2.5
    vertex -2.1427876096865393 2.266044443118978 2.5
  endloop
endfacet
facet normal -0.819152044288992 0.5735764363510457 0.0
  outer loop
    vertex -2.266044443118978 2.1427876096865397 -2.5
    vertex -2.3660254037844384 2.0000000000000004 -2.5
    vertex -2.3660254037844384 2.0000000000000004 2.5
  endloop
endfacet
facet normal -0.819152044288992 0.5735764363510457 0.0
  outer loop
    vertex -2.266044443118978 2.1427876096865397 -2.5
    vertex -2.3660254037844384 2.0000000000000004 2.5
    vertex -2.266044443118978 2.1427876096865397 2.5
  endloop
endfacet
facet normal -0.9063077870366496 0.4226182617407003 0.0
  outer loop
    vertex -2.3660254037844384 2.0000000000000004 -2.5
    vertex -2.4396926207859084 1.8420201433256689 -2.5
    vertex -2.4396926207859084 1.8420201433256689 2.5
  endloop
endfacet
facet normal -0.9063077870366496 0.4226182617407003 0.0
  outer loop
    vertex -2.3660254037844384 2.0000000000000004 -2.5
    vertex -2.4396926207859084 1.8420201433256689 2.5
    vertex -2.3660254037844384 2.0000000000000004 2.5
  endloop
endfacet
facet normal -0.9659258262890683 0.25881904510252063 0.0
  outer loop
    vertex -2.4396926207859084 1.8420201433256689 -2.5
    vertex -2.484807753012208 1.6736481776669303 -2.5
    vertex -2.484807753012208 1.6736481776669303 2.5
  endloop
endfacet
facet normal -0.9659258262890683 0.25881904510252063 0.0
  outer loop
    vertex -2.4396926207859084 1.8420201433256689 -2.5
    vertex -2.484807753012208 1.6736481776669303 2.5
    vertex -2.4396926207859084 1.8420201433256689 2.5
  endloop
endfacet
facet normal -0.9961946980917455 0.08715574274765779 0.0
  outer loop
    vertex -2.484807753012208 1.6736481776669303 -2.5
    vertex -2.5 1.5 -2.5
    vertex -2.5 1.5 2.5
  endloop
endfacet
facet normal -0.9961946980917455 0.08715574274765779 0.0
  outer loop
    vertex -2.484807753012208 1.6736481776669303 -2.5
    vertex -2.5 1.5 2.5
    vertex -2.484807753012208 1.6736481776669303 2.5
  endloop
endfacet
facet normal -1.0 0.0 0.0
  outer loop
    vertex -2.5 1.5 -2.5
    vertex -2.5 -1.4999999999999998 -2.5
    vertex -2.5 -1.4999999999999998 2.5
  endloop
endfacet
facet normal -1.0 0.0 0.0
  outer loop
    vertex -2.5 1.5 -2.5
    vertex -2.5 -1.4999999999999998 2.5
    vertex -2.5 1.5 2.5
  endloop
endfacet
endsolid
