solid 
facet normal 0.9980267284282716 0.0627905195293133 -1.4734483179779704E-17
  outer loop
    vertex 2.0 0.0 2.5
    vertex 2.0 0.0 -2.5
    vertex 1.9881720519717168 0.1879998503464564 -2.5
  endloop
endfacet
facet normal 0.9980267284282716 0.0627905195293133 -1.4734483179779704E-17
  outer loop
    vertex 2.0 0.0 2.5
    vertex 1.9881720519717168 0.1879998503464564 -2.5
    vertex 1.996057350657239 0.06266661678215213 2.5
  endloop
endfacet
facet normal 0.9980267284282717 0.06279051952931214 0.0
  outer loop
    vertex 1.996057350657239 0.06266661678215213 2.5
    vertex 1.9881720519717168 0.1879998503464564 -2.5
    vertex 1.9842294026289558 0.2506664671286085 -2.5
  endloop
endfacet
facet normal 0.9980267284282717 0.06279051952931214 0.0
  outer loop
    vertex 1.996057350657239 0.06266661678215213 2.5
    vertex 1.9842294026289558 0.2506664671286085 -2.5
    vertex 1.9842294026289558 0.2506664671286085 2.5
  endloop
endfacet
facet normal 0.9822872507286886 0.18738131458572507 1.5194935779147823E-17
  outer loop
    vertex 1.9842294026289558 0.2506664671286085 2.5
    vertex 1.9842294026289558 0.2506664671286085 -2.5
    vertex 1.9489320923501856 0.4357014475294343 -2.5
  endloop
endfacet
facet normal 0.9822872507286886 0.18738131458572507 1.5194935779147823E-17
  outer loop
    vertex 1.9842294026289558 0.2506664671286085 2.5
    vertex 1.9489320923501856 0.4357014475294343 -2.5
    vertex 1.9724636325360323 0.31234479392888376 2.5
  endloop
endfacet
facet normal 0.9822872507286884 0.1873813145857261 0.0
  outer loop
    vertex 1.9724636325360323 0.3123447939288838 2.5
    vertex 1.9489320923501856 0.4357014475294343 -2.5
    vertex 1.9371663222572622 0.4973797743297096 -2.5
  endloop
endfacet
facet normal 0.9822872507286884 0.1873813145857261 0.0
  outer loop
    vertex 1.9724636325360323 0.3123447939288838 2.5
    vertex 1.9371663222572622 0.4973797743297096 -2.5
    vertex 1.9371663222572622 0.4973797743297096 2.5
  endloop
endfacet
facet normal 0.9510565162951539 0.3090169943749465 1.611584097788406E-17
  outer loop
    vertex 1.9371663222572622 0.4973797743297096 2.5
    vertex 1.9371663222572622 0.4973797743297096 -2.5
    vertex 1.8789563093966928 0.6765317726094443 -2.5
  endloop
endfacet
facet normal 0.9510565162951539 0.3090169943749465 1.611584097788406E-17
  outer loop
    vertex 1.9371663222572622 0.4973797743297096 2.5
    vertex 1.8789563093966928 0.6765317726094443 -2.5
    vertex 1.9177629846370723 0.5570971070896211 2.5
  endloop
endfacet
facet normal 0.9510565162951535 0.3090169943749478 0.0
  outer loop
    vertex 1.9177629846370723 0.5570971070896211 2.5
    vertex 1.8789563093966928 0.6765317726094443 -2.5
    vertex 1.859552971776503 0.7362491053693558 -2.5
  endloop
endfacet
facet normal 0.9510565162951535 0.3090169943749478 0.0
  outer loop
    vertex 1.9177629846370723 0.5570971070896211 2.5
    vertex 1.859552971776503 0.7362491053693558 -2.5
    vertex 1.859552971776503 0.7362491053693558 2.5
  endloop
endfacet
facet normal 0.9048270524660196 0.42577929156507266 -3.2231681955768074E-18
  outer loop
    vertex 1.859552971776503 0.7362491053693558 2.5
    vertex 1.859552971776503 0.7362491053693558 -2.5
    vertex 1.779348263009921 0.906692787494912 -2.5
  endloop
endfacet
facet normal 0.9048270524660196 0.42577929156507266 -3.2231681955768074E-18
  outer loop
    vertex 1.859552971776503 0.7362491053693558 2.5
    vertex 1.779348263009921 0.906692787494912 -2.5
    vertex 1.832818068854309 0.7930636660778746 2.5
  endloop
endfacet
facet normal 0.9048270524660194 0.4257792915650731 0.0
  outer loop
    vertex 1.832818068854309 0.7930636660778746 2.5
    vertex 1.779348263009921 0.906692787494912 -2.5
    vertex 1.7526133600877272 0.9635073482034306 -2.5
  endloop
endfacet
facet normal 0.9048270524660194 0.4257792915650731 0.0
  outer loop
    vertex 1.832818068854309 0.7930636660778746 2.5
    vertex 1.7526133600877272 0.9635073482034306 -2.5
    vertex 1.7526133600877272 0.9635073482034306 2.5
  endloop
endfacet
facet normal 0.8443279255020143 0.535826794978998 -0.0
  outer loop
    vertex 1.729454419039065 1.0 2.5
    vertex 1.7526133600877272 0.9635073482034306 2.5
    vertex 1.7526133600877272 0.9635073482034306 -2.5
  endloop
endfacet
facet normal 0.8443279255020143 0.535826794978998 -0.0
  outer loop
    vertex 1.729454419039065 1.0 2.5
    vertex 1.7526133600877272 0.9635073482034306 -2.5
    vertex 1.729454419039065 1.0 -2.5
  endloop
endfacet
facet normal -0.8443279255020157 0.5358267949789957 -0.0
  outer loop
    vertex -1.729454419039065 1.0 2.5
    vertex -1.729454419039065 1.0 -2.5
    vertex -1.7526133600877272 0.9635073482034304 -2.5
  endloop
endfacet
facet normal -0.8443279255020157 0.5358267949789957 -0.0
  outer loop
    vertex -1.729454419039065 1.0 2.5
    vertex -1.7526133600877272 0.9635073482034304 -2.5
    vertex -1.7526133600877272 0.9635073482034304 2.5
  endloop
endfacet
facet normal -0.9048270524660195 0.42577929156507277 -1.3353125381675386E-17
  outer loop
    vertex -1.7526133600877272 0.9635073482034304 2.5
    vertex -1.7526133600877272 0.9635073482034304 -2.5
    vertex -1.8328180688543088 0.7930636660778748 -2.5
  endloop
endfacet
facet normal -0.9048270524660195 0.42577929156507277 -1.3353125381675386E-17
  outer loop
    vertex -1.7526133600877272 0.9635073482034304 2.5
    vertex -1.8328180688543088 0.7930636660778748 -2.5
    vertex -1.779348263009921 0.9066927874949119 2.5
  endloop
endfacet
facet normal -0.904827052466019 0.4257792915650738 -0.0
  outer loop
    vertex -1.779348263009921 0.9066927874949119 2.5
    vertex -1.8328180688543088 0.7930636660778748 -2.5
    vertex -1.8595529717765027 0.7362491053693563 -2.5
  endloop
endfacet
facet normal -0.904827052466019 0.4257792915650738 -0.0
  outer loop
    vertex -1.779348263009921 0.9066927874949119 2.5
    vertex -1.8595529717765027 0.7362491053693563 -2.5
    vertex -1.8595529717765027 0.7362491053693563 2.5
  endloop
endfacet
facet normal -0.9510565162951538 0.30901699437494706 -1.6115840977884092E-17
  outer loop
    vertex -1.8595529717765027 0.7362491053693563 2.5
    vertex -1.8595529717765027 0.7362491053693563 -2.5
    vertex -1.917762984637072 0.5570971070896219 -2.5
  endloop
endfacet
facet normal -0.9510565162951538 0.30901699437494706 -1.6115840977884092E-17
  outer loop
    vertex -1.8595529717765027 0.7362491053693563 2.5
    vertex -1.917762984637072 0.5570971070896219 -2.5
    vertex -1.8789563093966926 0.6765317726094449 2.5
  endloop
endfacet
facet normal -0.9510565162951533 0.30901699437494834 -0.0
  outer loop
    vertex -1.8789563093966926 0.6765317726094449 2.5
    vertex -1.917762984637072 0.5570971070896219 -2.5
    vertex -1.937166322257262 0.4973797743297105 -2.5
  endloop
endfacet
facet normal -0.9510565162951533 0.30901699437494834 -0.0
  outer loop
    vertex -1.8789563093966926 0.6765317726094449 2.5
    vertex -1.937166322257262 0.4973797743297105 -2.5
    vertex -1.937166322257262 0.4973797743297105 2.5
  endloop
endfacet
facet normal -0.9822872507286887 0.18738131458572482 -1.4504256880095634E-17
  outer loop
    vertex -1.937166322257262 0.4973797743297105 2.5
    vertex -1.937166322257262 0.4973797743297105 -2.5
    vertex -1.972463632536032 0.3123447939288844 -2.5
  endloop
endfacet
facet normal -0.9822872507286887 0.18738131458572482 -1.4504256880095634E-17
  outer loop
    vertex -1.937166322257262 0.4973797743297105 2.5
    vertex -1.972463632536032 0.3123447939288844 -2.5
    vertex -1.9489320923501854 0.4357014475294351 2.5
  endloop
endfacet
facet normal -0.9822872507286885 0.18738131458572593 -0.0
  outer loop
    vertex -1.9489320923501854 0.4357014475294351 2.5
    vertex -1.972463632536032 0.3123447939288844 -2.5
    vertex -1.9842294026289555 0.25066646712860907 -2.5
  endloop
endfacet
facet normal -0.9822872507286885 0.18738131458572593 -0.0
  outer loop
    vertex -1.9489320923501854 0.4357014475294351 2.5
    vertex -1.9842294026289555 0.25066646712860907 -2.5
    vertex -1.9842294026289555 0.25066646712860907 2.5
  endloop
endfacet
facet normal -0.9980267284282716 0.06279051952931322 1.4734483179779686E-17
  outer loop
    vertex -1.9842294026289555 0.25066646712860907 2.5
    vertex -1.9842294026289555 0.25066646712860907 -2.5
    vertex -1.9960573506572388 0.06266661678215243 -2.5
  endloop
endfacet
facet normal -0.9980267284282716 0.06279051952931322 1.4734483179779686E-17
  outer loop
    vertex -1.9842294026289555 0.25066646712860907 2.5
    vertex -1.9960573506572388 0.06266661678215243 -2.5
    vertex -1.9881720519717165 0.18799985034645686 2.5
  endloop
endfacet
facet normal -0.9980267284282714 0.06279051952931557 -0.0
  outer loop
    vertex -1.9881720519717165 0.18799985034645686 2.5
    vertex -1.9960573506572388 0.06266661678215246 -2.5
    vertex -2.0 2.4492935982947064E-16 -2.5
  endloop
endfacet
facet normal -0.9980267284282714 0.06279051952931557 -0.0
  outer loop
    vertex -1.9881720519717165 0.18799985034645686 2.5
    vertex -2.0 2.4492935982947064E-16 -2.5
    vertex -2.0 2.4492935982947064E-16 2.5
  endloop
endfacet
facet normal -0.9980267284282716 -0.06279051952931322 -1.4619370029937657E-17
  outer loop
    vertex -2.0 2.4492935982947064E-16 2.5
    vertex -2.0 2.4492935982947064E-16 -2.5
    vertex -1.9881720519717168 -0.18799985034645636 -2.5
  endloop
endfacet
facet normal -0.9980267284282716 -0.06279051952931322 -1.4619370029937657E-17
  outer loop
    vertex -2.0 2.4492935982947064E-16 2.5
    vertex -1.9881720519717168 -0.18799985034645636 -2.5
    vertex -1.996057350657239 -0.06266661678215195 2.5
  endloop
endfacet
facet normal -0.9980267284282718 -0.06279051952931208 -0.0
  outer loop
    vertex -1.996057350657239 -0.06266661678215196 2.5
    vertex -1.9881720519717168 -0.1879998503464564 -2.5
    vertex -1.9842294026289558 -0.25066646712860857 -2.5
  endloop
endfacet
facet normal -0.9980267284282718 -0.06279051952931208 -0.0
  outer loop
    vertex -1.996057350657239 -0.06266661678215196 2.5
    vertex -1.9842294026289558 -0.25066646712860857 -2.5
    vertex -1.9842294026289558 -0.25066646712860857 2.5
  endloop
endfacet
facet normal -0.9822872507286888 -0.18738131458572424 -1.4043804280727564E-17
  outer loop
    vertex -1.9842294026289558 -0.25066646712860857 2.5
    vertex -1.9842294026289558 -0.25066646712860857 -2.5
    vertex -1.9489320923501858 -0.435701447529434 -2.5
  endloop
endfacet
facet normal -0.9822872507286888 -0.18738131458572424 -1.4043804280727564E-17
  outer loop
    vertex -1.9842294026289558 -0.25066646712860857 2.5
    vertex -1.9489320923501858 -0.435701447529434 -2.5
    vertex -1.9724636325360325 -0.3123447939288837 2.5
  endloop
endfacet
facet normal -0.9822872507286884 -0.1873813145857266 -0.0
  outer loop
    vertex -1.9724636325360325 -0.3123447939288837 2.5
    vertex -1.9489320923501858 -0.435701447529434 -2.5
    vertex -1.9371663222572624 -0.49737977432970915 -2.5
  endloop
endfacet
facet normal -0.9822872507286884 -0.1873813145857266 -0.0
  outer loop
    vertex -1.9724636325360325 -0.3123447939288837 2.5
    vertex -1.9371663222572624 -0.49737977432970915 -2.5
    vertex -1.9371663222572624 -0.49737977432970915 2.5
  endloop
endfacet
facet normal -0.9510565162951538 -0.3090169943749471 2.302262996840576E-18
  outer loop
    vertex -1.9371663222572624 -0.49737977432970915 2.5
    vertex -1.9371663222572624 -0.49737977432970915 -2.5
    vertex -1.8789563093966928 -0.6765317726094442 -2.5
  endloop
endfacet
facet normal -0.9510565162951538 -0.3090169943749471 2.302262996840576E-18
  outer loop
    vertex -1.9371663222572624 -0.49737977432970915 2.5
    vertex -1.8789563093966928 -0.6765317726094442 -2.5
    vertex -1.9177629846370725 -0.5570971070896208 2.5
  endloop
endfacet
facet normal -0.9510565162951536 -0.30901699437494723 -0.0
  outer loop
    vertex -1.9177629846370725 -0.5570971070896208 2.5
    vertex -1.8789563093966928 -0.6765317726094442 -2.5
    vertex -1.859552971776503 -0.7362491053693558 -2.5
  endloop
endfacet
facet normal -0.9510565162951536 -0.30901699437494723 -0.0
  outer loop
    vertex -1.9177629846370725 -0.5570971070896208 2.5
    vertex -1.859552971776503 -0.7362491053693558 -2.5
    vertex -1.859552971776503 -0.7362491053693558 2.5
  endloop
endfacet
facet normal -0.9048270524660196 -0.42577929156507266 -3.2231681955768074E-18
  outer loop
    vertex -1.859552971776503 -0.7362491053693558 2.5
    vertex -1.859552971776503 -0.7362491053693558 -2.5
    vertex -1.779348263009921 -0.906692787494912 -2.5
  endloop
endfacet
facet normal -0.9048270524660196 -0.42577929156507266 -3.2231681955768074E-18
  outer loop
    vertex -1.859552971776503 -0.7362491053693558 2.5
    vertex -1.779348263009921 -0.906692787494912 -2.5
    vertex -1.832818068854309 -0.7930636660778746 2.5
  endloop
endfacet
facet normal -0.9048270524660197 -0.42577929156507244 -0.0
  outer loop
    vertex -1.832818068854309 -0.7930636660778746 2.5
    vertex -1.779348263009921 -0.906692787494912 -2.5
    vertex -1.7526133600877272 -0.9635073482034308 -2.5
  endloop
endfacet
facet normal -0.9048270524660197 -0.42577929156507244 -0.0
  outer loop
    vertex -1.832818068854309 -0.7930636660778746 2.5
    vertex -1.7526133600877272 -0.9635073482034308 -2.5
    vertex -1.7526133600877272 -0.9635073482034308 2.5
  endloop
endfacet
facet normal -0.8443279255020159 -0.5358267949789955 -0.0
  outer loop
    vertex -1.7294544190390653 -1.0 2.5
    vertex -1.7526133600877272 -0.9635073482034308 2.5
    vertex -1.7526133600877272 -0.9635073482034308 -2.5
  endloop
endfacet
facet normal -0.8443279255020159 -0.5358267949789955 -0.0
  outer loop
    vertex -1.7294544190390653 -1.0 2.5
    vertex -1.7526133600877272 -0.9635073482034308 -2.5
    vertex -1.7294544190390653 -1.0 -2.5
  endloop
endfacet
facet normal 0.8443279255020156 -0.535826794978996 -0.0
  outer loop
    vertex 1.7294544190390653 -1.0 2.5
    vertex 1.7294544190390653 -1.0 -2.5
    vertex 1.7526133600877263 -0.9635073482034322 -2.5
  endloop
endfacet
facet normal 0.8443279255020156 -0.535826794978996 -0.0
  outer loop
    vertex 1.7294544190390653 -1.0 2.5
    vertex 1.7526133600877263 -0.9635073482034322 -2.5
    vertex 1.7526133600877263 -0.9635073482034322 2.5
  endloop
endfacet
facet normal 0.9048270524660194 -0.42577929156507305 -2.7627155962086714E-18
  outer loop
    vertex 1.7526133600877263 -0.9635073482034322 2.5
    vertex 1.7526133600877263 -0.9635073482034322 -2.5
    vertex 1.8328180688543088 -0.7930636660778748 -2.5
  endloop
endfacet
facet normal 0.9048270524660194 -0.42577929156507305 -2.7627155962086714E-18
  outer loop
    vertex 1.7526133600877263 -0.9635073482034322 2.5
    vertex 1.8328180688543088 -0.7930636660778748 -2.5
    vertex 1.7793482630099204 -0.9066927874949131 2.5
  endloop
endfacet
facet normal 0.9048270524660192 -0.42577929156507327 -0.0
  outer loop
    vertex 1.7793482630099204 -0.9066927874949131 2.5
    vertex 1.8328180688543088 -0.7930636660778748 -2.5
    vertex 1.859552971776503 -0.7362491053693557 -2.5
  endloop
endfacet
facet normal 0.9048270524660192 -0.42577929156507327 -0.0
  outer loop
    vertex 1.7793482630099204 -0.9066927874949131 2.5
    vertex 1.859552971776503 -0.7362491053693557 -2.5
    vertex 1.859552971776503 -0.7362491053693557 2.5
  endloop
endfacet
facet normal 0.9510565162951538 -0.30901699437494706 1.1971767583571084E-17
  outer loop
    vertex 1.859552971776503 -0.7362491053693557 2.5
    vertex 1.859552971776503 -0.7362491053693557 -2.5
    vertex 1.917762984637072 -0.557097107089622 -2.5
  endloop
endfacet
facet normal 0.9510565162951538 -0.30901699437494706 1.1971767583571084E-17
  outer loop
    vertex 1.859552971776503 -0.7362491053693557 2.5
    vertex 1.917762984637072 -0.557097107089622 -2.5
    vertex 1.8789563093966926 -0.6765317726094445 2.5
  endloop
endfacet
facet normal 0.9510565162951532 -0.3090169943749488 -0.0
  outer loop
    vertex 1.8789563093966926 -0.6765317726094445 2.5
    vertex 1.917762984637072 -0.557097107089622 -2.5
    vertex 1.937166322257262 -0.4973797743297107 -2.5
  endloop
endfacet
facet normal 0.9510565162951532 -0.3090169943749488 -0.0
  outer loop
    vertex 1.8789563093966926 -0.6765317726094445 2.5
    vertex 1.937166322257262 -0.4973797743297107 -2.5
    vertex 1.937166322257262 -0.4973797743297107 2.5
  endloop
endfacet
facet normal 0.9822872507286887 -0.18738131458572482 -1.4504256880095634E-17
  outer loop
    vertex 1.937166322257262 -0.4973797743297107 2.5
    vertex 1.937166322257262 -0.4973797743297107 -2.5
    vertex 1.972463632536032 -0.31234479392888465 -2.5
  endloop
endfacet
facet normal 0.9822872507286887 -0.18738131458572482 -1.4504256880095634E-17
  outer loop
    vertex 1.937166322257262 -0.4973797743297107 2.5
    vertex 1.972463632536032 -0.31234479392888465 -2.5
    vertex 1.9489320923501854 -0.43570144752943535 2.5
  endloop
endfacet
facet normal 0.9822872507286885 -0.18738131458572593 -0.0
  outer loop
    vertex 1.9489320923501854 -0.43570144752943535 2.5
    vertex 1.972463632536032 -0.31234479392888465 -2.5
    vertex 1.9842294026289555 -0.2506664671286093 -2.5
  endloop
endfacet
facet normal 0.9822872507286885 -0.18738131458572593 -0.0
  outer loop
    vertex 1.9489320923501854 -0.43570144752943535 2.5
    vertex 1.9842294026289555 -0.2506664671286093 -2.5
    vertex 1.9842294026289555 -0.2506664671286093 2.5
  endloop
endfacet
facet normal 0.9980267284282717 -0.06279051952931312 1.473448317977966E-17
  outer loop
    vertex 1.9842294026289555 -0.2506664671286093 2.5
    vertex 1.9842294026289555 -0.2506664671286093 -2.5
    vertex 1.9960573506572388 -0.06266661678215232 -2.5
  endloop
endfacet
facet normal 0.9980267284282717 -0.06279051952931312 1.473448317977966E-17
  outer loop
    vertex 1.9842294026289555 -0.2506664671286093 2.5
    vertex 1.9960573506572388 -0.06266661678215232 -2.5
    vertex 1.9881720519717165 -0.18799985034645697 2.5
  endloop
endfacet
facet normal 0.9980267284282714 -0.06279051952931546 -0.0
  outer loop
    vertex 1.9881720519717165 -0.18799985034645697 2.5
    vertex 1.9960573506572388 -0.06266661678215232 -2.5
    vertex 2.0 0.0 -2.5
  endloop
endfacet
facet normal 0.9980267284282714 -0.06279051952931546 -0.0
  outer loop
    vertex 1.9881720519717165 -0.18799985034645697 2.5
    vertex 2.0 0.0 -2.5
    vertex 2.0 0.0 2.5
  endloop
endfacet
facet normal 0.0 0.0 -1.0
  outer loop
    vertex -1.729454419039065 1.0 -2.5
    vertex 1.7294544190390662 1.0 -2.5
    vertex 1.7526133600877272 0.96350734820343 -2.5
  endloop
endfacet
facet normal 0.0 0.0 -1.0
  outer loop
    vertex -1.729454419039065 1.0 -2.5
    vertex 1.7526133600877272 0.96350734820343 -2.5
    vertex 1.8595529717765023 0.7362491053693574 -2.5
  endloop
endfacet
facet normal 0.0 0.0 -1.0
  outer loop
    vertex -1.729454419039065 1.0 -2.5
    vertex 1.8595529717765023 0.7362491053693574 -2.5
    vertex 1.9371663222572626 0.4973797743297069 -2.5
  endloop
endfacet
facet normal 0.0 0.0 -1.0
  outer loop
    vertex -1.729454419039065 1.0 -2.5
    vertex 1.9371663222572626 0.4973797743297069 -2.5
    vertex 1.984229402628956 0.2506664671286065 -2.5
  endloop
endfacet
facet normal 0.0 0.0 -1.0
  outer loop
    vertex -1.729454419039065 1.0 -2.5
    vertex 1.984229402628956 0.2506664671286065 -2.5
    vertex 2.0 1.4988010832439613E-15 -2.5
  endloop
endfacet
facet normal 0.0 0.0 -1.0
  outer loop
    vertex -1.729454419039065 1.0 -2.5
    vertex 2.0 1.4988010832439613E-15 -2.5
    vertex 1.9842294026289555 -0.25066646712860996 -2.5
  endloop
endfacet
facet normal 0.0 0.0 -1.0
  outer loop
    vertex -1.729454419039065 1.0 -2.5
    vertex 1.9842294026289555 -0.25066646712860996 -2.5
    vertex 1.937166322257262 -0.497379774329711 -2.5
  endloop
endfacet
facet normal 0.0 0.0 -1.0
  outer loop
    vertex -1.729454419039065 1.0 -2.5
    vertex 1.937166322257262 -0.497379774329711 -2.5
    vertex 1.8595529717765031 -0.7362491053693552 -2.5
  endloop
endfacet
facet normal 0.0 0.0 -1.0
  outer loop
    vertex -1.729454419039065 1.0 -2.5
    vertex 1.8595529717765031 -0.7362491053693552 -2.5
    vertex 1.7526133600877258 -0.9635073482034329 -2.5
  endloop
endfacet
facet normal 0.0 0.0 -1.0
  outer loop
    vertex -1.729454419039065 1.0 -2.5
    vertex 1.7526133600877258 -0.9635073482034329 -2.5
    vertex 1.7294544190390653 -1.0 -2.5
  endloop
endfacet
facet normal 0.0 0.0 -1.0
  outer loop
    vertex -1.729454419039065 1.0 -2.5
    vertex 1.7294544190390653 -1.0 -2.5
    vertex -1.7294544190390653 -1.0 -2.5
  endloop
endfacet
facet normal 0.0 0.0 -1.0
  outer loop
    vertex -1.729454419039065 1.0 -2.5
    vertex -1.7294544190390653 -1.0 -2.5
    vertex -1.7526133600877276 -0.9635073482034301 -2.5
  endloop
endfacet
facet normal 0.0 0.0 -1.0
  outer loop
    vertex -1.729454419039065 1.0 -2.5
    vertex -1.7526133600877276 -0.9635073482034301 -2.5
    vertex -1.8595529717765023 -0.7362491053693582 -2.5
  endloop
endfacet
facet normal 0.0 0.0 -1.0
  outer loop
    vertex -1.729454419039065 1.0 -2.5
    vertex -1.8595529717765023 -0.7362491053693582 -2.5
    vertex -1.937166322257261 -0.4973797743297136 -2.5
  endloop
endfacet
facet normal 0.0 0.0 -1.0
  outer loop
    vertex -1.729454419039065 1.0 -2.5
    vertex -1.937166322257261 -0.4973797743297136 -2.5
    vertex -1.9842294026289558 -0.2506664671286054 -2.5
  endloop
endfacet
facet normal 0.0 0.0 -1.0
  outer loop
    vertex -1.729454419039065 1.0 -2.5
    vertex -1.9842294026289558 -0.2506664671286054 -2.5
    vertex -2.0 2.220446049250313E-15 -2.5
  endloop
endfacet
facet normal 0.0 0.0 -1.0
  outer loop
    vertex -1.729454419039065 1.0 -2.5
    vertex -2.0 2.220446049250313E-15 -2.5
    vertex -1.9842294026289558 0.25066646712861074 -2.5
  endloop
endfacet
facet normal 0.0 0.0 -1.0
  outer loop
    vertex -1.729454419039065 1.0 -2.5
    vertex -1.9842294026289558 0.25066646712861074 -2.5
    vertex -1.9371663222572635 0.4973797743297048 -2.5
  endloop
endfacet
facet normal 0.0 0.0 -1.0
  outer loop
    vertex -1.729454419039065 1.0 -2.5
    vertex -1.9371663222572635 0.4973797743297048 -2.5
    vertex -1.859552971776502 0.7362491053693576 -2.5
  endloop
endfacet
facet normal 0.0 0.0 -1.0
  outer loop
    vertex -1.729454419039065 1.0 -2.5
    vertex -1.859552971776502 0.7362491053693576 -2.5
    vertex -1.7526133600877267 0.9635073482034313 -2.5
  endloop
endfacet
facet normal 0.0 0.0 1.0
  outer loop
    vertex -1.7294544190390653 -1.0 2.5
    vertex 1.7294544190390648 -1.0 2.5
    vertex 1.7526133600877272 -0.9635073482034301 2.5
  endloop
endfacet
facet normal 0.0 0.0 1.0
  outer loop
    vertex -1.7294544190390653 -1.0 2.5
    vertex 1.7526133600877272 -0.9635073482034301 2.5
    vertex 1.859552971776503 -0.7362491053693554 2.5
  endloop
endfacet
facet normal 0.0 0.0 1.0
  outer loop
    vertex -1.7294544190390653 -1.0 2.5
    vertex 1.859552971776503 -0.7362491053693554 2.5
    vertex 1.9371663222572626 -0.49737977432970837 2.5
  endloop
endfacet
facet normal 0.0 0.0 1.0
  outer loop
    vertex -1.7294544190390653 -1.0 2.5
    vertex 1.9371663222572626 -0.49737977432970837 2.5
    vertex 1.9842294026289553 -0.2506664671286103 2.5
  endloop
endfacet
facet normal 0.0 0.0 1.0
  outer loop
    vertex -1.7294544190390653 -1.0 2.5
    vertex 1.9842294026289553 -0.2506664671286103 2.5
    vertex 2.0 -1.6653345369377348E-15 2.5
  endloop
endfacet
facet normal 0.0 0.0 1.0
  outer loop
    vertex -1.7294544190390653 -1.0 2.5
    vertex 2.0 -1.6653345369377348E-15 2.5
    vertex 1.984229402628956 0.2506664671286065 2.5
  endloop
endfacet
facet normal 0.0 0.0 1.0
  outer loop
    vertex -1.7294544190390653 -1.0 2.5
    vertex 1.984229402628956 0.2506664671286065 2.5
    vertex 1.9371663222572622 0.49737977432970926 2.5
  endloop
endfacet
facet normal 0.0 0.0 1.0
  outer loop
    vertex -1.7294544190390653 -1.0 2.5
    vertex 1.9371663222572622 0.49737977432970926 2.5
    vertex 1.859552971776502 0.736249105369358 2.5
  endloop
endfacet
facet normal 0.0 0.0 1.0
  outer loop
    vertex -1.7294544190390653 -1.0 2.5
    vertex 1.859552971776502 0.736249105369358 2.5
    vertex 1.752613360087727 0.9635073482034313 2.5
  endloop
endfacet
facet normal 0.0 0.0 1.0
  outer loop
    vertex -1.7294544190390653 -1.0 2.5
    vertex 1.752613360087727 0.9635073482034313 2.5
    vertex 1.729454419039065 1.0 2.5
  endloop
endfacet
facet normal 0.0 0.0 1.0
  outer loop
    vertex -1.7294544190390653 -1.0 2.5
    vertex 1.729454419039065 1.0 2.5
    vertex -1.729454419039065 1.0 2.5
  endloop
endfacet
facet normal 0.0 0.0 1.0
  outer loop
    vertex -1.7294544190390653 -1.0 2.5
    vertex -1.729454419039065 1.0 2.5
    vertex -1.7526133600877267 0.9635073482034313 2.5
  endloop
endfacet
facet normal 0.0 0.0 1.0
  outer loop
    vertex -1.7294544190390653 -1.0 2.5
    vertex -1.7526133600877267 0.9635073482034313 2.5
    vertex -1.8595529717765027 0.7362491053693564 2.5
  endloop
endfacet
facet normal 0.0 0.0 1.0
  outer loop
    vertex -1.7294544190390653 -1.0 2.5
    vertex -1.8595529717765027 0.7362491053693564 2.5
    vertex -1.9371663222572622 0.4973797743297096 2.5
  endloop
endfacet
facet normal 0.0 0.0 1.0
  outer loop
    vertex -1.7294544190390653 -1.0 2.5
    vertex -1.9371663222572622 0.4973797743297096 2.5
    vertex -1.984229402628955 0.2506664671286114 2.5
  endloop
endfacet
facet normal 0.0 0.0 1.0
  outer loop
    vertex -1.7294544190390653 -1.0 2.5
    vertex -1.984229402628955 0.2506664671286114 2.5
    vertex -1.9999999999999998 1.3322676295501878E-15 2.5
  endloop
endfacet
facet normal 0.0 0.0 1.0
  outer loop
    vertex -1.7294544190390653 -1.0 2.5
    vertex -1.9999999999999998 1.3322676295501878E-15 2.5
    vertex -1.9842294026289555 -0.2506664671286082 2.5
  endloop
endfacet
facet normal 0.0 0.0 1.0
  outer loop
    vertex -1.7294544190390653 -1.0 2.5
    vertex -1.9842294026289555 -0.2506664671286082 2.5
    vertex -1.9371663222572615 -0.4973797743297117 2.5
  endloop
endfacet
facet normal 0.0 0.0 1.0
  outer loop
    vertex -1.7294544190390653 -1.0 2.5
    vertex -1.9371663222572615 -0.4973797743297117 2.5
    vertex -1.8595529717765027 -0.7362491053693565 2.5
  endloop
endfacet
facet normal 0.0 0.0 1.0
  outer loop
    vertex -1.7294544190390653 -1.0 2.5
    vertex -1.8595529717765027 -0.7362491053693565 2.5
    vertex -1.7526133600877283 -0.9635073482034288 2.5
  endloop
endfacet
facet normal 0.0 -1.0 0.0
  outer loop
    vertex -1.7294544190390653 -1.0 -2.5
    vertex 1.7294544190390648 -1.0 -2.5
    vertex 1.7294544190390653 -1.0 2.5
  endloop
endfacet
facet normal 0.0 -1.0 0.0
  outer loop
    vertex -1.7294544190390653 -1.0 -2.5
    vertex 1.7294544190390653 -1.0 2.5
    vertex -1.7294544190390653 -1.0 2.5
  endloop
endfacet
facet normal 0.0 1.0 0.0
  outer loop
    vertex 1.729454419039065 1.0 -2.5
    vertex -1.729454419039065 1.0 -2.5
    vertex -1.729454419039065 1.0 2.5
  endloop
endfacet
facet normal 0.0 1.0 0.0
  outer loop
    vertex 1.729454419039065 1.0 -2.5
    vertex -1.729454419039065 1.0 2.5
    vertex 1.7294544190390662 1.0 2.5
  endloop
endfacet
endsolid
