solid 
facet normal -0.0 0.0 -1.0
  outer loop
    vertex 2.8284271247461894 -2.8284271247461907 -2.0
    vertex -7.347880794884119E-16 -4.0 -2.0
    vertex -2.8284271247461907 -2.82842712474619 -2.0
  endloop
endfacet
facet normal -0.0 0.0 -1.0
  outer loop
    vertex 2.8284271247461894 -2.8284271247461907 -2.0
    vertex -2.8284271247461907 -2.82842712474619 -2.0
    vertex -4.0 4.898587196589413E-16 -2.0
  endloop
endfacet
facet normal -0.0 0.0 -1.0
  outer loop
    vertex 2.8284271247461894 -2.8284271247461907 -2.0
    vertex -4.0 4.898587196589413E-16 -2.0
    vertex -2.82842712474619 2.8284271247461903 -2.0
  endloop
endfacet
facet normal -0.0 0.0 -1.0
  outer loop
    vertex 2.8284271247461894 -2.8284271247461907 -2.0
    vertex -2.82842712474619 2.8284271247461903 -2.0
    vertex 2.4492935982947064E-16 4.0 -2.0
  endloop
endfacet
facet normal -0.0 0.0 -1.0
  outer loop
    vertex 2.8284271247461894 -2.8284271247461907 -2.0
    vertex 2.4492935982947064E-16 4.0 -2.0
    vertex 2.8284271247461903 2.82842712474619 -2.0
  endloop
endfacet
facet normal -0.0 0.0 -1.0
  outer loop
    vertex 2.8284271247461894 -2.8284271247461907 -2.0
    vertex 2.8284271247461903 2.82842712474619 -2.0
    vertex 4.0 0.0 -2.0
  endloop
endfacet
facet normal 0.0 0.0 1.0
  outer loop
    vertex 4.0 0.0 2.0
    vertex 2.8284271247461903 2.82842712474619 2.0
    vertex 2.4492935982947064E-16 4.0 2.0
  endloop
endfacet
facet normal 0.0 0.0 1.0
  outer loop
    vertex 4.0 0.0 2.0
    vertex 2.4492935982947064E-16 4.0 2.0
    vertex -2.82842712474619 2.8284271247461903 2.0
  endloop
endfacet
facet normal 0.0 0.0 1.0
  outer loop
    vertex 4.0 0.0 2.0
    vertex -2.82842712474619 2.8284271247461903 2.0
    vertex -4.0 4.898587196589413E-16 2.0
  endloop
endfacet
facet normal 0.0 0.0 1.0
  outer loop
    vertex 4.0 0.0 2.0
    vertex -4.0 4.898587196589413E-16 2.0
    vertex -2.8284271247461907 -2.82842712474619 2.0
  endloop
endfacet
facet normal 0.0 0.0 1.0
  outer loop
    vertex 4.0 0.0 2.0
    vertex -2.8284271247461907 -2.82842712474619 2.0
    vertex -7.347880794884119E-16 -4.0 2.0
  endloop
endfacet
facet normal 0.0 0.0 1.0
  outer loop
    vertex 4.0 0.0 2.0
    vertex -7.347880794884119E-16 -4.0 2.0
    vertex 2.8284271247461894 -2.8284271247461907 2.0
  endloop
endfacet
facet normal 0.9238795325112867 0.3826834323650898 0.0
  outer loop
    vertex 4.0 0.0 -2.0
    vertex 2.8284271247461903 2.82842712474619 -2.0
    vertex 2.8284271247461903 2.82842712474619 2.0
  endloop
endfacet
facet normal 0.9238795325112867 0.3826834323650898 0.0
  outer loop
    vertex 4.0 0.0 -2.0
    vertex 2.8284271247461903 2.82842712474619 2.0
    vertex 4.0 0.0 2.0
  endloop
endfacet
facet normal 0.3826834323650899 0.9238795325112867 0.0
  outer loop
    vertex 2.8284271247461903 2.82842712474619 -2.0
    vertex 2.4492935982947064E-16 4.0 -2.0
    vertex 2.4492935982947064E-16 4.0 2.0
  endloop
endfacet
facet normal 0.3826834323650899 0.9238795325112867 0.0
  outer loop
    vertex 2.8284271247461903 2.82842712474619 -2.0
    vertex 2.4492935982947064E-16 4.0 2.0
    vertex 2.8284271247461903 2.82842712474619 2.0
  endloop
endfacet
facet normal -0.3826834323650898 0.9238795325112868 0.0
  outer loop
    vertex 2.4492935982947064E-16 4.0 -2.0
    vertex -2.82842712474619 2.8284271247461903 -2.0
    vertex -2.82842712474619 2.8284271247461903 2.0
  endloop
endfacet
facet normal -0.3826834323650898 0.9238795325112868 0.0
  outer loop
    vertex 2.4492935982947064E-16 4.0 -2.0
    vertex -2.82842712474619 2.8284271247461903 2.0
    vertex 2.4492935982947064E-16 4.0 2.0
  endloop
endfacet
facet normal -0.9238795325112867 0.3826834323650899 0.0
  outer loop
    vertex -2.82842712474619 2.8284271247461903 -2.0
    vertex -4.0 4.898587196589413E-16 -2.0
    vertex -4.0 4.898587196589413E-16 2.0
  endloop
endfacet
facet normal -0.9238795325112867 0.3826834323650899 0.0
  outer loop
    vertex -2.82842712474619 2.8284271247461903 -2.0
    vertex -4.0 4.898587196589413E-16 2.0
    vertex -2.82842712474619 2.8284271247461903 2.0
  endloop
endfacet
facet normal -0.9238795325112868 -0.38268343236508956 0.0
  outer loop
    vertex -4.0 4.898587196589413E-16 -2.0
    vertex -2.8284271247461907 -2.82842712474619 -2.0
    vertex -2.8284271247461907 -2.82842712474619 2.0
  endloop
endfacet
facet normal -0.9238795325112868 -0.38268343236508956 0.0
  outer loop
    vertex -4.0 4.898587196589413E-16 -2.0
    vertex -2.8284271247461907 -2.82842712474619 2.0
    vertex -4.0 4.898587196589413E-16 2.0
  endloop
endfacet
facet normal -0.3826834323650899 -0.9238795325112867 0.0
  outer loop
    vertex -2.8284271247461907 -2.82842712474619 -2.0
    vertex -7.347880794884119E-16 -4.0 -2.0
    vertex -7.347880794884119E-16 -4.0 2.0
  endloop
endfacet
facet normal -0.3826834323650899 -0.9238795325112867 0.0
  outer loop
    vertex -2.8284271247461907 -2.82842712474619 -2.0
    vertex -7.347880794884119E-16 -4.0 2.0
    vertex -2.8284271247461907 -2.82842712474619 2.0
  endloop
endfacet
facet normal 0.38268343236508956 -0.9238795325112868 0.0
  outer loop
    vertex -7.347880794884119E-16 -4.0 -2.0
    vertex 2.8284271247461894 -2.8284271247461907 -2.0
    vertex 2.8284271247461894 -2.8284271247461907 2.0
  endloop
endfacet
facet normal 0.38268343236508956 -0.9238795325112868 0.0
  outer loop
    vertex -7.347880794884119E-16 -4.0 -2.0
    vertex 2.8284271247461894 -2.8284271247461907 2.0
    vertex -7.347880794884119E-16 -4.0 2.0
  endloop
endfacet
facet normal 0.9238795325112867 -0.38268343236508995 0.0
  outer loop
    vertex 2.8284271247461894 -2.8284271247461907 -2.0
    vertex 4.0 0.0 -2.0
    vertex 4.0 0.0 2.0
  endloop
endfacet
facet normal 0.9238795325112867 -0.38268343236508995 0.0
  outer loop
    vertex 2.8284271247461894 -2.8284271247461907 -2.0
    vertex 4.0 0.0 2.0
    vertex 2.8284271247461894 -2.8284271247461907 2.0
  endloop
endfacet
endsolid
