solid 
facet normal -0.7071067811865475 -2.657450844565193E-15 -0.7071067811865476
  outer loop
    vertex -3.5355339059327373 0.0 -3.5355339059327378
    vertex -2.1324718399040705 0.2506664671286085 -4.938595971961405
    vertex -2.121320343559642 0.0 -4.949747468305833
  endloop
endfacet
facet normal -0.7071067811865478 1.3287254222825967E-15 -0.7071067811865474
  outer loop
    vertex -3.5355339059327373 0.0 -3.5355339059327378
    vertex -2.1657504631784223 0.4973797743297096 -4.905317348687053
    vertex -2.1324718399040705 0.2506664671286085 -4.938595971961405
  endloop
endfacet
facet normal -0.7071067811865476 0.0 -0.7071067811865476
  outer loop
    vertex -3.5355339059327373 0.0 -3.5355339059327378
    vertex -2.2206313896139753 0.7362491053693558 -4.8504364222515
    vertex -2.1657504631784223 0.4973797743297096 -4.905317348687053
  endloop
endfacet
facet normal -0.7071067811865479 8.858169481883968E-16 -0.7071067811865472
  outer loop
    vertex -3.5355339059327373 0.0 -3.5355339059327378
    vertex -2.2962491142165646 0.9635073482034306 -4.77481869764891
    vertex -2.2206313896139753 0.7362491053693558 -4.8504364222515
  endloop
endfacet
facet normal -0.7071067811865474 0.0 -0.7071067811865478
  outer loop
    vertex -3.5355339059327373 0.0 -3.5355339059327378
    vertex -2.3914111002973684 1.1755705045849463 -4.679656711568106
    vertex -2.2962491142165646 0.9635073482034306 -4.77481869764891
  endloop
endfacet
facet normal -0.7071067811865467 -2.2145423704709968E-15 -0.7071067811865485
  outer loop
    vertex -3.5355339059327373 0.0 -3.5355339059327378
    vertex -2.5046165864888774 1.3690942118573772 -4.566451225376598
    vertex -2.3914111002973684 1.1755705045849463 -4.679656711568106
  endloop
endfacet
facet normal -0.7071067811865481 6.643627111412975E-16 -0.7071067811865468
  outer loop
    vertex -3.5355339059327373 0.0 -3.5355339059327378
    vertex -2.6340802546481714 1.5410264855515785 -4.436987557217304
    vertex -2.5046165864888774 1.3690942118573772 -4.566451225376598
  endloop
endfacet
facet normal -0.7071067811865467 -8.858169481883975E-16 -0.7071067811865483
  outer loop
    vertex -3.5355339059327373 0.0 -3.5355339059327378
    vertex -2.7777603853905326 1.6886558510040302 -4.293307426474943
    vertex -2.6340802546481714 1.5410264855515785 -4.436987557217304
  endloop
endfacet
facet normal -0.7071067811865491 1.217998303759047E-15 -0.707106781186546
  outer loop
    vertex -3.5355339059327373 0.0 -3.5355339059327378
    vertex -2.933391057223803 1.8096541049320392 -4.137676754641672
    vertex -2.7777603853905326 1.6886558510040302 -4.293307426474943
  endloop
endfacet
facet normal -0.7071067811865467 -4.429084740941986E-16 -0.7071067811865485
  outer loop
    vertex -3.5355339059327373 0.0 -3.5355339059327378
    vertex -3.0985178814839163 1.902113032590307 -3.972549930381559
    vertex -2.933391057223803 1.8096541049320392 -4.137676754641672
  endloop
endfacet
facet normal -0.7071067811865476 0.0 -0.7071067811865476
  outer loop
    vertex -3.5355339059327373 0.0 -3.5355339059327378
    vertex -3.270536709510306 1.9645745014573772 -3.800531102355169
    vertex -3.0985178814839163 1.902113032590307 -3.972549930381559
  endloop
endfacet
facet normal -0.7071067811865476 0.0 -0.7071067811865476
  outer loop
    vertex -3.5355339059327373 0.0 -3.5355339059327378
    vertex -3.4467347016259295 1.9960534568565431 -3.6243331102395455
    vertex -3.270536709510306 1.9645745014573772 -3.800531102355169
  endloop
endfacet
facet normal -0.7071067811865476 0.0 -0.7071067811865476
  outer loop
    vertex -3.5355339059327373 0.0 -3.5355339059327378
    vertex -3.624333110239545 1.9960534568565431 -3.44673470162593
    vertex -3.4467347016259295 1.9960534568565431 -3.6243331102395455
  endloop
endfacet
facet normal -0.7071067811865476 0.0 -0.7071067811865476
  outer loop
    vertex -3.5355339059327373 0.0 -3.5355339059327378
    vertex -3.8005311023551687 1.9645745014573774 -3.2705367095103064
    vertex -3.624333110239545 1.9960534568565431 -3.44673470162593
  endloop
endfacet
facet normal -0.7071067811865476 0.0 -0.7071067811865476
  outer loop
    vertex -3.5355339059327373 0.0 -3.5355339059327378
    vertex -3.972549930381558 1.9021130325903073 -3.098517881483917
    vertex -3.8005311023551687 1.9645745014573774 -3.2705367095103064
  endloop
endfacet
facet normal -0.7071067811865467 3.321813555706482E-16 -0.7071067811865485
  outer loop
    vertex -3.5355339059327373 0.0 -3.5355339059327378
    vertex -4.137676754641672 1.809654104932039 -2.9333910572238038
    vertex -3.972549930381558 1.9021130325903073 -3.098517881483917
  endloop
endfacet
facet normal -0.7071067811865476 -2.2145423704709896E-16 -0.7071067811865476
  outer loop
    vertex -3.5355339059327373 0.0 -3.5355339059327378
    vertex -4.293307426474943 1.68865585100403 -2.7777603853905326
    vertex -4.137676754641672 1.809654104932039 -2.9333910572238038
  endloop
endfacet
facet normal -0.7071067811865489 -1.3287254222826012E-15 -0.7071067811865462
  outer loop
    vertex -3.5355339059327373 0.0 -3.5355339059327378
    vertex -4.436987557217303 1.5410264855515785 -2.634080254648172
    vertex -4.293307426474943 1.68865585100403 -2.7777603853905326
  endloop
endfacet
facet normal -0.7071067811865465 1.771633896376798E-15 -0.7071067811865487
  outer loop
    vertex -3.5355339059327373 0.0 -3.5355339059327378
    vertex -4.566451225376597 1.3690942118573777 -2.5046165864888783
    vertex -4.436987557217303 1.5410264855515785 -2.634080254648172
  endloop
endfacet
facet normal -0.7071067811865489 -1.7716338963767962E-15 -0.7071067811865462
  outer loop
    vertex -3.5355339059327373 0.0 -3.5355339059327378
    vertex -4.679656711568105 1.1755705045849465 -2.3914111002973693
    vertex -4.566451225376597 1.3690942118573777 -2.5046165864888783
  endloop
endfacet
facet normal -0.7071067811865467 2.2145423704709885E-15 -0.7071067811865485
  outer loop
    vertex -3.5355339059327373 0.0 -3.5355339059327378
    vertex -4.77481869764891 0.9635073482034304 -2.2962491142165655
    vertex -4.679656711568105 1.1755705045849465 -2.3914111002973693
  endloop
endfacet
facet normal -0.7071067811865479 -1.3287254222826E-15 -0.7071067811865472
  outer loop
    vertex -3.5355339059327373 0.0 -3.5355339059327378
    vertex -4.850436422251499 0.7362491053693563 -2.220631389613976
    vertex -4.77481869764891 0.9635073482034304 -2.2962491142165655
  endloop
endfacet
facet normal -0.7071067811865476 0.0 -0.7071067811865476
  outer loop
    vertex -3.5355339059327373 0.0 -3.5355339059327378
    vertex -4.905317348687052 0.4973797743297105 -2.1657504631784232
    vertex -4.850436422251499 0.7362491053693563 -2.220631389613976
  endloop
endfacet
facet normal -0.7071067811865474 8.858169481883967E-16 -0.7071067811865478
  outer loop
    vertex -3.5355339059327373 0.0 -3.5355339059327378
    vertex -4.938595971961404 0.25066646712860907 -2.1324718399040714
    vertex -4.905317348687052 0.4973797743297105 -2.1657504631784232
  endloop
endfacet
facet normal -0.7071067811865475 0.0 -0.7071067811865477
  outer loop
    vertex -3.5355339059327373 0.0 -3.5355339059327378
    vertex -4.949747468305833 2.4492935982947064E-16 -2.121320343559643
    vertex -4.938595971961404 0.25066646712860907 -2.1324718399040714
  endloop
endfacet
facet normal -0.7071067811865475 -1.328725422282595E-15 -0.7071067811865477
  outer loop
    vertex -3.5355339059327373 0.0 -3.5355339059327378
    vertex -4.938595971961404 -0.25066646712860857 -2.132471839904071
    vertex -4.949747468305833 2.4492935982947064E-16 -2.121320343559643
  endloop
endfacet
facet normal -0.7071067811865477 1.3287254222825996E-15 -0.7071067811865475
  outer loop
    vertex -3.5355339059327373 0.0 -3.5355339059327378
    vertex -4.905317348687053 -0.49737977432970915 -2.165750463178423
    vertex -4.938595971961404 -0.25066646712860857 -2.132471839904071
  endloop
endfacet
facet normal -0.7071067811865476 0.0 -0.7071067811865476
  outer loop
    vertex -3.5355339059327373 0.0 -3.5355339059327378
    vertex -4.8504364222515 -0.7362491053693558 -2.2206313896139758
    vertex -4.905317348687053 -0.49737977432970915 -2.165750463178423
  endloop
endfacet
facet normal -0.7071067811865477 0.0 -0.7071067811865475
  outer loop
    vertex -3.5355339059327373 0.0 -3.5355339059327378
    vertex -4.77481869764891 -0.9635073482034308 -2.2962491142165655
    vertex -4.8504364222515 -0.7362491053693558 -2.2206313896139758
  endloop
endfacet
facet normal -0.7071067811865471 -8.858169481884015E-16 -0.707106781186548
  outer loop
    vertex -3.5355339059327373 0.0 -3.5355339059327378
    vertex -4.679656711568106 -1.1755705045849454 -2.391411100297369
    vertex -4.77481869764891 -0.9635073482034308 -2.2962491142165655
  endloop
endfacet
facet normal -0.707106781186548 8.858169481883981E-16 -0.7071067811865471
  outer loop
    vertex -3.5355339059327373 0.0 -3.5355339059327378
    vertex -4.566451225376598 -1.3690942118573768 -2.5046165864888774
    vertex -4.679656711568106 -1.1755705045849454 -2.391411100297369
  endloop
endfacet
facet normal -0.7071067811865469 -8.858169481883923E-16 -0.7071067811865482
  outer loop
    vertex -3.5355339059327373 0.0 -3.5355339059327378
    vertex -4.436987557217303 -1.5410264855515787 -2.6340802546481723
    vertex -4.566451225376598 -1.3690942118573768 -2.5046165864888774
  endloop
endfacet
facet normal -0.7071067811865481 8.858169481883967E-16 -0.7071067811865468
  outer loop
    vertex -3.5355339059327373 0.0 -3.5355339059327378
    vertex -4.293307426474942 -1.6886558510040306 -2.7777603853905335
    vertex -4.436987557217303 -1.5410264855515787 -2.6340802546481723
  endloop
endfacet
facet normal -0.7071067811865476 1.1072711852354948E-16 -0.7071067811865476
  outer loop
    vertex -3.5355339059327373 0.0 -3.5355339059327378
    vertex -4.137676754641671 -1.8096541049320396 -2.9333910572238047
    vertex -4.293307426474942 -1.6886558510040306 -2.7777603853905335
  endloop
endfacet
facet normal -0.7071067811865475 1.107271185235504E-16 -0.7071067811865477
  outer loop
    vertex -3.5355339059327373 0.0 -3.5355339059327378
    vertex -3.972549930381559 -1.902113032590307 -3.0985178814839167
    vertex -4.137676754641671 -1.8096541049320396 -2.9333910572238047
  endloop
endfacet
facet normal -0.7071067811865468 -2.491360166779868E-16 -0.7071067811865483
  outer loop
    vertex -3.5355339059327373 0.0 -3.5355339059327378
    vertex -3.8005311023551687 -1.9645745014573774 -3.2705367095103064
    vertex -3.972549930381559 -1.902113032590307 -3.0985178814839167
  endloop
endfacet
facet normal -0.7071067811865476 0.0 -0.7071067811865476
  outer loop
    vertex -3.5355339059327373 0.0 -3.5355339059327378
    vertex -3.6243331102395446 -1.9960534568565431 -3.4467347016259304
    vertex -3.8005311023551687 -1.9645745014573774 -3.2705367095103064
  endloop
endfacet
facet normal -0.7071067811865476 0.0 -0.7071067811865476
  outer loop
    vertex -3.5355339059327373 0.0 -3.5355339059327378
    vertex -3.4467347016259304 -1.9960534568565431 -3.6243331102395446
    vertex -3.6243331102395446 -1.9960534568565431 -3.4467347016259304
  endloop
endfacet
facet normal -0.7071067811865467 8.304533889266219E-17 -0.7071067811865485
  outer loop
    vertex -3.5355339059327373 0.0 -3.5355339059327378
    vertex -3.2705367095103064 -1.9645745014573774 -3.8005311023551682
    vertex -3.4467347016259304 -1.9960534568565431 -3.6243331102395446
  endloop
endfacet
facet normal -0.7071067811865476 -1.6609067778532434E-16 -0.7071067811865476
  outer loop
    vertex -3.5355339059327373 0.0 -3.5355339059327378
    vertex -3.0985178814839163 -1.9021130325903073 -3.9725499303815583
    vertex -3.2705367095103064 -1.9645745014573774 -3.8005311023551682
  endloop
endfacet
facet normal -0.7071067811865485 -4.42908474094201E-16 -0.7071067811865467
  outer loop
    vertex -3.5355339059327373 0.0 -3.5355339059327378
    vertex -2.933391057223804 -1.8096541049320398 -4.137676754641671
    vertex -3.0985178814839163 -1.9021130325903073 -3.9725499303815583
  endloop
endfacet
facet normal -0.7071067811865476 0.0 -0.7071067811865476
  outer loop
    vertex -3.5355339059327373 0.0 -3.5355339059327378
    vertex -2.777760385390532 -1.68865585100403 -4.293307426474943
    vertex -2.933391057223804 -1.8096541049320398 -4.137676754641671
  endloop
endfacet
facet normal -0.7071067811865469 6.643627111413021E-16 -0.7071067811865482
  outer loop
    vertex -3.5355339059327373 0.0 -3.5355339059327378
    vertex -2.634080254648172 -1.5410264855515792 -4.436987557217303
    vertex -2.777760385390532 -1.68865585100403 -4.293307426474943
  endloop
endfacet
facet normal -0.707106781186548 -8.85816948188397E-16 -0.7071067811865471
  outer loop
    vertex -3.5355339059327373 0.0 -3.5355339059327378
    vertex -2.504616586488878 -1.369094211857378 -4.566451225376597
    vertex -2.634080254648172 -1.5410264855515792 -4.436987557217303
  endloop
endfacet
facet normal -0.7071067811865476 0.0 -0.7071067811865476
  outer loop
    vertex -3.5355339059327373 0.0 -3.5355339059327378
    vertex -2.391411100297369 -1.1755705045849467 -4.679656711568106
    vertex -2.504616586488878 -1.369094211857378 -4.566451225376597
  endloop
endfacet
facet normal -0.7071067811865469 8.858169481884028E-16 -0.7071067811865482
  outer loop
    vertex -3.5355339059327373 0.0 -3.5355339059327378
    vertex -2.2962491142165655 -0.9635073482034322 -4.774818697648909
    vertex -2.391411100297369 -1.1755705045849467 -4.679656711568106
  endloop
endfacet
facet normal -0.7071067811865479 -8.858169481883899E-16 -0.7071067811865472
  outer loop
    vertex -3.5355339059327373 0.0 -3.5355339059327378
    vertex -2.2206313896139753 -0.7362491053693557 -4.8504364222515
    vertex -2.2962491142165655 -0.9635073482034322 -4.774818697648909
  endloop
endfacet
facet normal -0.7071067811865478 -1.3287254222826042E-15 -0.7071067811865474
  outer loop
    vertex -3.5355339059327373 0.0 -3.5355339059327378
    vertex -2.165750463178423 -0.4973797743297107 -4.905317348687053
    vertex -2.2206313896139753 -0.7362491053693557 -4.8504364222515
  endloop
endfacet
facet normal -0.7071067811865472 2.214542370470993E-15 -0.7071067811865479
  outer loop
    vertex -3.5355339059327373 0.0 -3.5355339059327378
    vertex -2.1324718399040705 -0.2506664671286093 -4.938595971961404
    vertex -2.165750463178423 -0.4973797743297107 -4.905317348687053
  endloop
endfacet
facet normal -0.7071067811865475 0.0 -0.7071067811865477
  outer loop
    vertex -3.5355339059327373 0.0 -3.5355339059327378
    vertex -2.121320343559642 0.0 -4.949747468305833
    vertex -2.1324718399040705 -0.2506664671286093 -4.938595971961404
  endloop
endfacet
facet normal 0.7057114674770558 0.06279051952931305 -0.7057114674770557
  outer loop
    vertex -2.121320343559642 0.0 -4.949747468305833
    vertex -2.1324718399040705 0.2506664671286085 -4.938595971961405
    vertex 4.949747468305833 0.0 2.121320343559643
  endloop
endfacet
facet normal 0.7057114674770558 0.06279051952931283 -0.7057114674770557
  outer loop
    vertex -2.1324718399040705 0.2506664671286085 -4.938595971961405
    vertex 4.938595971961404 0.2506664671286085 2.132471839904071
    vertex 4.949747468305833 0.0 2.121320343559643
  endloop
endfacet
facet normal 0.6945819760633462 0.18738131458572532 -0.694581976063346
  outer loop
    vertex -2.1324718399040705 0.2506664671286085 -4.938595971961405
    vertex -2.1657504631784223 0.4973797743297096 -4.905317348687053
    vertex 4.938595971961404 0.2506664671286085 2.132471839904071
  endloop
endfacet
facet normal 0.6945819760633468 0.18738131458572002 -0.6945819760633468
  outer loop
    vertex -2.1657504631784223 0.4973797743297096 -4.905317348687053
    vertex 4.905317348687053 0.4973797743297096 2.165750463178423
    vertex 4.938595971961404 0.2506664671286085 2.132471839904071
  endloop
endfacet
facet normal 0.6724985119639576 0.3090169943749465 -0.6724985119639576
  outer loop
    vertex -2.1657504631784223 0.4973797743297096 -4.905317348687053
    vertex -2.2206313896139753 0.7362491053693558 -4.8504364222515
    vertex 4.905317348687053 0.4973797743297096 2.165750463178423
  endloop
endfacet
facet normal 0.6724985119639572 0.3090169943749483 -0.6724985119639572
  outer loop
    vertex -2.2206313896139753 0.7362491053693558 -4.8504364222515
    vertex 4.8504364222515 0.7362491053693558 2.2206313896139758
    vertex 4.905317348687053 0.4973797743297096 2.165750463178423
  endloop
endfacet
facet normal 0.6398093445997584 0.42577929156507277 -0.6398093445997584
  outer loop
    vertex -2.2206313896139753 0.7362491053693558 -4.8504364222515
    vertex -2.2962491142165646 0.9635073482034306 -4.77481869764891
    vertex 4.8504364222515 0.7362491053693558 2.2206313896139758
  endloop
endfacet
facet normal 0.6398093445997582 0.4257792915650733 -0.6398093445997581
  outer loop
    vertex -2.2962491142165646 0.9635073482034306 -4.77481869764891
    vertex 4.77481869764891 0.9635073482034306 2.2962491142165655
    vertex 4.8504364222515 0.7362491053693558 2.2206313896139758
  endloop
endfacet
facet normal 0.597030001667645 0.5358267949789968 -0.597030001667645
  outer loop
    vertex -2.2962491142165646 0.9635073482034306 -4.77481869764891
    vertex -2.3914111002973684 1.1755705045849463 -4.679656711568106
    vertex 4.77481869764891 0.9635073482034306 2.2962491142165655
  endloop
endfacet
facet normal 0.5970300016676453 0.535826794978996 -0.5970300016676453
  outer loop
    vertex -2.3914111002973684 1.1755705045849463 -4.679656711568106
    vertex 4.679656711568106 1.1755705045849463 2.3914111002973693
    vertex 4.77481869764891 0.9635073482034306 2.2962491142165655
  endloop
endfacet
facet normal 0.5448351389607974 0.6374239897486896 -0.5448351389607973
  outer loop
    vertex -2.3914111002973684 1.1755705045849463 -4.679656711568106
    vertex -2.5046165864888774 1.3690942118573772 -4.566451225376598
    vertex 4.679656711568106 1.1755705045849463 2.3914111002973693
  endloop
endfacet
facet normal 0.5448351389607966 0.6374239897486906 -0.5448351389607966
  outer loop
    vertex -2.5046165864888774 1.3690942118573772 -4.566451225376598
    vertex 4.566451225376597 1.3690942118573772 2.504616586488878
    vertex 4.679656711568106 1.1755705045849463 2.3914111002973693
  endloop
endfacet
facet normal 0.4840479006438018 0.7289686274214113 -0.4840479006438017
  outer loop
    vertex -2.5046165864888774 1.3690942118573772 -4.566451225376598
    vertex -2.6340802546481714 1.5410264855515785 -4.436987557217304
    vertex 4.566451225376597 1.3690942118573772 2.504616586488878
  endloop
endfacet
facet normal 0.4840479006438011 0.7289686274214124 -0.48404790064380093
  outer loop
    vertex -2.6340802546481714 1.5410264855515785 -4.436987557217304
    vertex 4.436987557217303 1.5410264855515785 2.634080254648172
    vertex 4.566451225376597 1.3690942118573772 2.504616586488878
  endloop
endfacet
facet normal 0.41562693777745313 0.8090169943749477 -0.4156269377774531
  outer loop
    vertex -2.6340802546481714 1.5410264855515785 -4.436987557217304
    vertex -2.7777603853905326 1.6886558510040302 -4.293307426474943
    vertex 4.436987557217303 1.5410264855515785 2.634080254648172
  endloop
endfacet
facet normal 0.41562693777745374 0.8090169943749471 -0.41562693777745374
  outer loop
    vertex -2.7777603853905326 1.6886558510040302 -4.293307426474943
    vertex 4.293307426474942 1.6886558510040302 2.777760385390533
    vertex 4.436987557217303 1.5410264855515785 2.634080254648172
  endloop
endfacet
facet normal 0.34065128981885723 0.8763066800438635 -0.3406512898188572
  outer loop
    vertex -2.7777603853905326 1.6886558510040302 -4.293307426474943
    vertex -2.933391057223803 1.8096541049320392 -4.137676754641672
    vertex 4.293307426474942 1.6886558510040302 2.777760385390533
  endloop
endfacet
facet normal 0.3406512898188579 0.8763066800438629 -0.34065128981885784
  outer loop
    vertex -2.933391057223803 1.8096541049320392 -4.137676754641672
    vertex 4.137676754641672 1.8096541049320392 2.9333910572238038
    vertex 4.293307426474942 1.6886558510040302 2.777760385390533
  endloop
endfacet
facet normal 0.26030336752459965 0.9297764858882518 -0.26030336752459965
  outer loop
    vertex -2.933391057223803 1.8096541049320392 -4.137676754641672
    vertex -3.0985178814839163 1.902113032590307 -3.972549930381559
    vertex 4.137676754641672 1.8096541049320392 2.9333910572238038
  endloop
endfacet
facet normal 0.26030336752459915 0.9297764858882521 -0.26030336752459915
  outer loop
    vertex -3.0985178814839163 1.902113032590307 -3.972549930381559
    vertex 3.9725499303815583 1.902113032590307 3.0985178814839167
    vertex 4.137676754641672 1.8096541049320392 2.9333910572238038
  endloop
endfacet
facet normal 0.1758503056267862 0.9685831611286311 -0.17585030562678616
  outer loop
    vertex -3.0985178814839163 1.902113032590307 -3.972549930381559
    vertex -3.270536709510306 1.9645745014573772 -3.800531102355169
    vertex 3.9725499303815583 1.902113032590307 3.0985178814839167
  endloop
endfacet
facet normal 0.17585030562678602 0.9685831611286313 -0.175850305626786
  outer loop
    vertex -3.270536709510306 1.9645745014573772 -3.800531102355169
    vertex 3.8005311023551687 1.9645745014573772 3.2705367095103064
    vertex 3.9725499303815583 1.902113032590307 3.0985178814839167
  endloop
endfacet
facet normal 0.08862397936135731 0.9921147013144778 -0.08862397936135731
  outer loop
    vertex -3.270536709510306 1.9645745014573772 -3.800531102355169
    vertex -3.4467347016259295 1.9960534568565431 -3.6243331102395455
    vertex 3.8005311023551687 1.9645745014573772 3.2705367095103064
  endloop
endfacet
facet normal 0.08862397936135727 0.9921147013144779 -0.08862397936135726
  outer loop
    vertex -3.4467347016259295 1.9960534568565431 -3.6243331102395455
    vertex 3.624333110239545 1.9960534568565431 3.44673470162593
    vertex 3.8005311023551687 1.9645745014573772 3.2705367095103064
  endloop
endfacet
facet normal 0.0 1.0 -0.0
  outer loop
    vertex -3.4467347016259295 1.9960534568565431 -3.6243331102395455
    vertex -3.624333110239545 1.9960534568565431 -3.44673470162593
    vertex 3.624333110239545 1.9960534568565431 3.44673470162593
  endloop
endfacet
facet normal 0.0 1.0 0.0
  outer loop
    vertex -3.624333110239545 1.9960534568565431 -3.44673470162593
    vertex 3.4467347016259295 1.9960534568565431 3.6243331102395455
    vertex 3.624333110239545 1.9960534568565431 3.44673470162593
  endloop
endfacet
facet normal -0.0886239793613567 0.992114701314478 0.08862397936135669
  outer loop
    vertex -3.624333110239545 1.9960534568565431 -3.44673470162593
    vertex -3.8005311023551687 1.9645745014573774 -3.2705367095103064
    vertex 3.4467347016259295 1.9960534568565431 3.6243331102395455
  endloop
endfacet
facet normal -0.08862397936135664 0.992114701314478 0.08862397936135663
  outer loop
    vertex -3.8005311023551687 1.9645745014573774 -3.2705367095103064
    vertex 3.270536709510306 1.9645745014573774 3.800531102355169
    vertex 3.4467347016259295 1.9960534568565431 3.6243331102395455
  endloop
endfacet
facet normal -0.17585030562678663 0.968583161128631 0.1758503056267866
  outer loop
    vertex -3.8005311023551687 1.9645745014573774 -3.2705367095103064
    vertex -3.972549930381558 1.9021130325903073 -3.098517881483917
    vertex 3.270536709510306 1.9645745014573774 3.800531102355169
  endloop
endfacet
facet normal -0.1758503056267865 0.9685831611286311 0.17585030562678647
  outer loop
    vertex -3.972549930381558 1.9021130325903073 -3.098517881483917
    vertex 3.0985178814839167 1.9021130325903073 3.9725499303815583
    vertex 3.270536709510306 1.9645745014573774 3.800531102355169
  endloop
endfacet
facet normal -0.2603033675246001 0.9297764858882515 0.26030336752460004
  outer loop
    vertex -3.972549930381558 1.9021130325903073 -3.098517881483917
    vertex -4.137676754641672 1.809654104932039 -2.9333910572238038
    vertex 3.0985178814839167 1.9021130325903073 3.9725499303815583
  endloop
endfacet
facet normal -0.26030336752459954 0.9297764858882519 0.2603033675245995
  outer loop
    vertex -4.137676754641672 1.809654104932039 -2.9333910572238038
    vertex 2.933391057223803 1.809654104932039 4.137676754641672
    vertex 3.0985178814839167 1.9021130325903073 3.9725499303815583
  endloop
endfacet
facet normal -0.34065128981885645 0.876306680043864 0.3406512898188564
  outer loop
    vertex -4.137676754641672 1.809654104932039 -2.9333910572238038
    vertex -4.293307426474943 1.68865585100403 -2.7777603853905326
    vertex 2.933391057223803 1.809654104932039 4.137676754641672
  endloop
endfacet
facet normal -0.34065128981885784 0.8763066800438628 0.34065128981885784
  outer loop
    vertex -4.293307426474943 1.68865585100403 -2.7777603853905326
    vertex 2.777760385390532 1.68865585100403 4.293307426474943
    vertex 2.933391057223803 1.809654104932039 4.137676754641672
  endloop
endfacet
facet normal -0.4156269377774539 0.8090169943749469 0.4156269377774539
  outer loop
    vertex -4.293307426474943 1.68865585100403 -2.7777603853905326
    vertex -4.436987557217303 1.5410264855515785 -2.634080254648172
    vertex 2.777760385390532 1.68865585100403 4.293307426474943
  endloop
endfacet
facet normal -0.41562693777745335 0.8090169943749476 0.41562693777745324
  outer loop
    vertex -4.436987557217303 1.5410264855515785 -2.634080254648172
    vertex 2.6340802546481714 1.5410264855515785 4.436987557217304
    vertex 2.777760385390532 1.68865585100403 4.293307426474943
  endloop
endfacet
facet normal -0.4840479006438016 0.7289686274214117 0.48404790064380143
  outer loop
    vertex -4.436987557217303 1.5410264855515785 -2.634080254648172
    vertex -4.566451225376597 1.3690942118573777 -2.5046165864888783
    vertex 2.6340802546481714 1.5410264855515785 4.436987557217304
  endloop
endfacet
facet normal -0.4840479006438024 0.7289686274214106 0.48404790064380226
  outer loop
    vertex -4.566451225376597 1.3690942118573777 -2.5046165864888783
    vertex 2.5046165864888774 1.3690942118573777 4.566451225376597
    vertex 2.6340802546481714 1.5410264855515785 4.436987557217304
  endloop
endfacet
facet normal -0.5448351389607975 0.6374239897486891 0.5448351389607975
  outer loop
    vertex -4.566451225376597 1.3690942118573777 -2.5046165864888783
    vertex -4.679656711568105 1.1755705045849465 -2.3914111002973693
    vertex 2.5046165864888774 1.3690942118573777 4.566451225376597
  endloop
endfacet
facet normal -0.5448351389607969 0.6374239897486902 0.5448351389607969
  outer loop
    vertex -4.679656711568105 1.1755705045849465 -2.3914111002973693
    vertex 2.391411100297369 1.1755705045849465 4.679656711568106
    vertex 2.5046165864888774 1.3690942118573777 4.566451225376597
  endloop
endfacet
facet normal -0.5970300016676445 0.5358267949789978 0.5970300016676445
  outer loop
    vertex -4.679656711568105 1.1755705045849465 -2.3914111002973693
    vertex -4.77481869764891 0.9635073482034304 -2.2962491142165655
    vertex 2.391411100297369 1.1755705045849465 4.679656711568106
  endloop
endfacet
facet normal -0.5970300016676447 0.5358267949789972 0.5970300016676446
  outer loop
    vertex -4.77481869764891 0.9635073482034304 -2.2962491142165655
    vertex 2.2962491142165646 0.9635073482034304 4.77481869764891
    vertex 2.391411100297369 1.1755705045849465 4.679656711568106
  endloop
endfacet
facet normal -0.6398093445997587 0.4257792915650718 0.6398093445997587
  outer loop
    vertex -4.77481869764891 0.9635073482034304 -2.2962491142165655
    vertex -4.850436422251499 0.7362491053693563 -2.220631389613976
    vertex 2.2962491142165646 0.9635073482034304 4.77481869764891
  endloop
endfacet
facet normal -0.6398093445997587 0.42577929156507205 0.6398093445997587
  outer loop
    vertex -4.850436422251499 0.7362491053693563 -2.220631389613976
    vertex 2.2206313896139758 0.7362491053693563 4.8504364222515
    vertex 2.2962491142165646 0.9635073482034304 4.77481869764891
  endloop
endfacet
facet normal -0.6724985119639575 0.309016994374947 0.6724985119639574
  outer loop
    vertex -4.850436422251499 0.7362491053693563 -2.220631389613976
    vertex -4.905317348687052 0.4973797743297105 -2.1657504631784232
    vertex 2.2206313896139758 0.7362491053693563 4.8504364222515
  endloop
endfacet
facet normal -0.6724985119639572 0.30901699437494884 0.672498511963957
  outer loop
    vertex -4.905317348687052 0.4973797743297105 -2.1657504631784232
    vertex 2.165750463178423 0.4973797743297105 4.905317348687053
    vertex 2.2206313896139758 0.7362491053693563 4.8504364222515
  endloop
endfacet
facet normal -0.6945819760633463 0.1873813145857251 0.6945819760633462
  outer loop
    vertex -4.905317348687052 0.4973797743297105 -2.1657504631784232
    vertex -4.938595971961404 0.25066646712860907 -2.1324718399040714
    vertex 2.165750463178423 0.4973797743297105 4.905317348687053
  endloop
endfacet
facet normal -0.6945819760633465 0.18738131458572252 0.6945819760633465
  outer loop
    vertex -4.938595971961404 0.25066646712860907 -2.1324718399040714
    vertex 2.1324718399040705 0.25066646712860907 4.938595971961404
    vertex 2.165750463178423 0.4973797743297105 4.905317348687053
  endloop
endfacet
facet normal -0.7057114674770557 0.06279051952931547 0.7057114674770556
  outer loop
    vertex -4.938595971961404 0.25066646712860907 -2.1324718399040714
    vertex -4.949747468305833 2.4492935982947064E-16 -2.121320343559643
    vertex 2.1324718399040705 0.25066646712860907 4.938595971961404
  endloop
endfacet
facet normal -0.7057114674770557 0.06279051952931558 0.7057114674770556
  outer loop
    vertex -4.949747468305833 2.4492935982947064E-16 -2.121320343559643
    vertex 2.121320343559642 2.4492935982947064E-16 4.949747468305833
    vertex 2.1324718399040705 0.25066646712860907 4.938595971961404
  endloop
endfacet
facet normal -0.7057114674770558 -0.06279051952931426 0.7057114674770557
  outer loop
    vertex -4.949747468305833 2.4492935982947064E-16 -2.121320343559643
    vertex -4.938595971961404 -0.25066646712860857 -2.132471839904071
    vertex 2.121320343559642 2.4492935982947064E-16 4.949747468305833
  endloop
endfacet
facet normal -0.7057114674770557 -0.0627905195293156 0.7057114674770556
  outer loop
    vertex -4.938595971961404 -0.25066646712860857 -2.132471839904071
    vertex 2.1324718399040705 -0.25066646712860857 4.938595971961405
    vertex 2.121320343559642 2.4492935982947064E-16 4.949747468305833
  endloop
endfacet
facet normal -0.6945819760633465 -0.18738131458572327 0.6945819760633464
  outer loop
    vertex -4.938595971961404 -0.25066646712860857 -2.132471839904071
    vertex -4.905317348687053 -0.49737977432970915 -2.165750463178423
    vertex 2.1324718399040705 -0.25066646712860857 4.938595971961405
  endloop
endfacet
facet normal -0.6945819760633465 -0.18738131458572313 0.6945819760633464
  outer loop
    vertex -4.905317348687053 -0.49737977432970915 -2.165750463178423
    vertex 2.165750463178422 -0.49737977432970915 4.905317348687053
    vertex 2.1324718399040705 -0.25066646712860857 4.938595971961405
  endloop
endfacet
facet normal -0.6724985119639576 -0.309016994374946 0.6724985119639576
  outer loop
    vertex -4.905317348687053 -0.49737977432970915 -2.165750463178423
    vertex -4.8504364222515 -0.7362491053693558 -2.2206313896139758
    vertex 2.165750463178422 -0.49737977432970915 4.905317348687053
  endloop
endfacet
facet normal -0.6724985119639567 -0.30901699437495034 0.6724985119639567
  outer loop
    vertex -4.8504364222515 -0.7362491053693558 -2.2206313896139758
    vertex 2.2206313896139753 -0.7362491053693558 4.8504364222515
    vertex 2.165750463178422 -0.49737977432970915 4.905317348687053
  endloop
endfacet
facet normal -0.6398093445997581 -0.4257792915650737 0.6398093445997581
  outer loop
    vertex -4.8504364222515 -0.7362491053693558 -2.2206313896139758
    vertex -4.77481869764891 -0.9635073482034308 -2.2962491142165655
    vertex 2.2206313896139753 -0.7362491053693558 4.8504364222515
  endloop
endfacet
facet normal -0.6398093445997582 -0.42577929156507316 0.6398093445997582
  outer loop
    vertex -4.77481869764891 -0.9635073482034308 -2.2962491142165655
    vertex 2.2962491142165646 -0.9635073482034308 4.77481869764891
    vertex 2.2206313896139753 -0.7362491053693558 4.8504364222515
  endloop
endfacet
facet normal -0.5970300016676445 -0.5358267949789977 0.5970300016676444
  outer loop
    vertex -4.77481869764891 -0.9635073482034308 -2.2962491142165655
    vertex -4.679656711568106 -1.1755705045849454 -2.391411100297369
    vertex 2.2962491142165646 -0.9635073482034308 4.77481869764891
  endloop
endfacet
facet normal -0.5970300016676445 -0.5358267949789978 0.5970300016676444
  outer loop
    vertex -4.679656711568106 -1.1755705045849454 -2.391411100297369
    vertex 2.3914111002973684 -1.1755705045849454 4.679656711568107
    vertex 2.2962491142165646 -0.9635073482034308 4.77481869764891
  endloop
endfacet
facet normal -0.5448351389607983 -0.637423989748688 0.5448351389607983
  outer loop
    vertex -4.679656711568106 -1.1755705045849454 -2.391411100297369
    vertex -4.566451225376598 -1.3690942118573768 -2.5046165864888774
    vertex 2.3914111002973684 -1.1755705045849454 4.679656711568107
  endloop
endfacet
facet normal -0.5448351389607962 -0.6374239897486914 0.5448351389607962
  outer loop
    vertex -4.566451225376598 -1.3690942118573768 -2.5046165864888774
    vertex 2.504616586488877 -1.3690942118573768 4.566451225376598
    vertex 2.3914111002973684 -1.1755705045849454 4.679656711568107
  endloop
endfacet
facet normal -0.48404790064380093 -0.7289686274214124 0.48404790064380093
  outer loop
    vertex -4.566451225376598 -1.3690942118573768 -2.5046165864888774
    vertex -4.436987557217303 -1.5410264855515787 -2.6340802546481723
    vertex 2.504616586488877 -1.3690942118573768 4.566451225376598
  endloop
endfacet
facet normal -0.4840479006438011 -0.7289686274214124 0.484047900643801
  outer loop
    vertex -4.436987557217303 -1.5410264855515787 -2.6340802546481723
    vertex 2.634080254648172 -1.5410264855515787 4.436987557217303
    vertex 2.504616586488877 -1.3690942118573768 4.566451225376598
  endloop
endfacet
facet normal -0.4156269377774535 -0.8090169943749475 0.4156269377774535
  outer loop
    vertex -4.436987557217303 -1.5410264855515787 -2.6340802546481723
    vertex -4.293307426474942 -1.6886558510040306 -2.7777603853905335
    vertex 2.634080254648172 -1.5410264855515787 4.436987557217303
  endloop
endfacet
facet normal -0.4156269377774542 -0.8090169943749468 0.4156269377774542
  outer loop
    vertex -4.293307426474942 -1.6886558510040306 -2.7777603853905335
    vertex 2.7777603853905326 -1.6886558510040306 4.293307426474942
    vertex 2.634080254648172 -1.5410264855515787 4.436987557217303
  endloop
endfacet
facet normal -0.34065128981885645 -0.876306680043864 0.3406512898188564
  outer loop
    vertex -4.293307426474942 -1.6886558510040306 -2.7777603853905335
    vertex -4.137676754641671 -1.8096541049320396 -2.9333910572238047
    vertex 2.7777603853905326 -1.6886558510040306 4.293307426474942
  endloop
endfacet
facet normal -0.34065128981885706 -0.8763066800438636 0.340651289818857
  outer loop
    vertex -4.137676754641671 -1.8096541049320396 -2.9333910572238047
    vertex 2.9333910572238038 -1.8096541049320396 4.137676754641671
    vertex 2.7777603853905326 -1.6886558510040306 4.293307426474942
  endloop
endfacet
facet normal -0.26030336752460004 -0.9297764858882515 0.26030336752460004
  outer loop
    vertex -4.137676754641671 -1.8096541049320396 -2.9333910572238047
    vertex -3.972549930381559 -1.902113032590307 -3.0985178814839167
    vertex 2.9333910572238038 -1.8096541049320396 4.137676754641671
  endloop
endfacet
facet normal -0.26030336752460004 -0.9297764858882515 0.26030336752460004
  outer loop
    vertex -3.972549930381559 -1.902113032590307 -3.0985178814839167
    vertex 3.098517881483916 -1.902113032590307 3.972549930381559
    vertex 2.9333910572238038 -1.8096541049320396 4.137676754641671
  endloop
endfacet
facet normal -0.17585030562678652 -0.968583161128631 0.1758503056267865
  outer loop
    vertex -3.972549930381559 -1.902113032590307 -3.0985178814839167
    vertex -3.8005311023551687 -1.9645745014573774 -3.2705367095103064
    vertex 3.098517881483916 -1.902113032590307 3.972549930381559
  endloop
endfacet
facet normal -0.17585030562678658 -0.968583161128631 0.17585030562678655
  outer loop
    vertex -3.8005311023551687 -1.9645745014573774 -3.2705367095103064
    vertex 3.270536709510306 -1.9645745014573774 3.800531102355169
    vertex 3.098517881483916 -1.902113032590307 3.972549930381559
  endloop
endfacet
facet normal -0.08862397936135648 -0.992114701314478 0.08862397936135646
  outer loop
    vertex -3.8005311023551687 -1.9645745014573774 -3.2705367095103064
    vertex -3.6243331102395446 -1.9960534568565431 -3.4467347016259304
    vertex 3.270536709510306 -1.9645745014573774 3.800531102355169
  endloop
endfacet
facet normal -0.08862397936135638 -0.992114701314478 0.08862397936135638
  outer loop
    vertex -3.6243331102395446 -1.9960534568565431 -3.4467347016259304
    vertex 3.44673470162593 -1.9960534568565431 3.624333110239545
    vertex 3.270536709510306 -1.9645745014573774 3.800531102355169
  endloop
endfacet
facet normal 0.0 -1.0 0.0
  outer loop
    vertex -3.6243331102395446 -1.9960534568565431 -3.4467347016259304
    vertex -3.4467347016259304 -1.9960534568565431 -3.6243331102395446
    vertex 3.44673470162593 -1.9960534568565431 3.624333110239545
  endloop
endfacet
facet normal 0.0 -1.0 0.0
  outer loop
    vertex -3.4467347016259304 -1.9960534568565431 -3.6243331102395446
    vertex 3.624333110239544 -1.9960534568565431 3.446734701625931
    vertex 3.44673470162593 -1.9960534568565431 3.624333110239545
  endloop
endfacet
facet normal 0.08862397936135658 -0.992114701314478 -0.08862397936135656
  outer loop
    vertex -3.4467347016259304 -1.9960534568565431 -3.6243331102395446
    vertex -3.2705367095103064 -1.9645745014573774 -3.8005311023551682
    vertex 3.624333110239544 -1.9960534568565431 3.446734701625931
  endloop
endfacet
facet normal 0.08862397936135638 -0.992114701314478 -0.08862397936135638
  outer loop
    vertex -3.2705367095103064 -1.9645745014573774 -3.8005311023551682
    vertex 3.8005311023551682 -1.9645745014573774 3.2705367095103073
    vertex 3.624333110239544 -1.9960534568565431 3.446734701625931
  endloop
endfacet
facet normal 0.17585030562678577 -0.9685831611286313 -0.17585030562678575
  outer loop
    vertex -3.2705367095103064 -1.9645745014573774 -3.8005311023551682
    vertex -3.0985178814839163 -1.9021130325903073 -3.9725499303815583
    vertex 3.8005311023551682 -1.9645745014573774 3.2705367095103073
  endloop
endfacet
facet normal 0.17585030562678602 -0.9685831611286313 -0.175850305626786
  outer loop
    vertex -3.0985178814839163 -1.9021130325903073 -3.9725499303815583
    vertex 3.9725499303815583 -1.9021130325903073 3.098517881483917
    vertex 3.8005311023551682 -1.9645745014573774 3.2705367095103073
  endloop
endfacet
facet normal 0.2603033675245998 -0.9297764858882517 -0.2603033675245998
  outer loop
    vertex -3.0985178814839163 -1.9021130325903073 -3.9725499303815583
    vertex -2.933391057223804 -1.8096541049320398 -4.137676754641671
    vertex 3.9725499303815583 -1.9021130325903073 3.098517881483917
  endloop
endfacet
facet normal 0.26030336752460004 -0.9297764858882515 -0.2603033675246
  outer loop
    vertex -2.933391057223804 -1.8096541049320398 -4.137676754641671
    vertex 4.13767675464167 -1.8096541049320398 2.9333910572238047
    vertex 3.9725499303815583 -1.9021130325903073 3.098517881483917
  endloop
endfacet
facet normal 0.340651289818857 -0.8763066800438637 -0.3406512898188569
  outer loop
    vertex -2.933391057223804 -1.8096541049320398 -4.137676754641671
    vertex -2.777760385390532 -1.68865585100403 -4.293307426474943
    vertex 4.13767675464167 -1.8096541049320398 2.9333910572238047
  endloop
endfacet
facet normal 0.3406512898188556 -0.8763066800438647 -0.3406512898188556
  outer loop
    vertex -2.777760385390532 -1.68865585100403 -4.293307426474943
    vertex 4.293307426474943 -1.68865585100403 2.7777603853905326
    vertex 4.13767675464167 -1.8096541049320398 2.9333910572238047
  endloop
endfacet
facet normal 0.4156269377774531 -0.8090169943749477 -0.4156269377774531
  outer loop
    vertex -2.777760385390532 -1.68865585100403 -4.293307426474943
    vertex -2.634080254648172 -1.5410264855515792 -4.436987557217303
    vertex 4.293307426474943 -1.68865585100403 2.7777603853905326
  endloop
endfacet
facet normal 0.4156269377774541 -0.8090169943749469 -0.4156269377774541
  outer loop
    vertex -2.634080254648172 -1.5410264855515792 -4.436987557217303
    vertex 4.436987557217303 -1.5410264855515792 2.6340802546481727
    vertex 4.293307426474943 -1.68865585100403 2.7777603853905326
  endloop
endfacet
facet normal 0.4840479006438018 -0.7289686274214113 -0.4840479006438017
  outer loop
    vertex -2.634080254648172 -1.5410264855515792 -4.436987557217303
    vertex -2.504616586488878 -1.369094211857378 -4.566451225376597
    vertex 4.436987557217303 -1.5410264855515792 2.6340802546481727
  endloop
endfacet
facet normal 0.4840479006438031 -0.7289686274214098 -0.4840479006438029
  outer loop
    vertex -2.504616586488878 -1.369094211857378 -4.566451225376597
    vertex 4.566451225376596 -1.369094211857378 2.5046165864888783
    vertex 4.436987557217303 -1.5410264855515792 2.6340802546481727
  endloop
endfacet
facet normal 0.5448351389607968 -0.6374239897486906 -0.5448351389607967
  outer loop
    vertex -2.504616586488878 -1.369094211857378 -4.566451225376597
    vertex -2.391411100297369 -1.1755705045849467 -4.679656711568106
    vertex 4.566451225376596 -1.369094211857378 2.5046165864888783
  endloop
endfacet
facet normal 0.5448351389607969 -0.6374239897486902 -0.5448351389607969
  outer loop
    vertex -2.391411100297369 -1.1755705045849467 -4.679656711568106
    vertex 4.679656711568105 -1.1755705045849467 2.3914111002973693
    vertex 4.566451225376596 -1.369094211857378 2.5046165864888783
  endloop
endfacet
facet normal 0.5970300016676453 -0.5358267949789961 -0.5970300016676451
  outer loop
    vertex -2.391411100297369 -1.1755705045849467 -4.679656711568106
    vertex -2.2962491142165655 -0.9635073482034322 -4.774818697648909
    vertex 4.679656711568105 -1.1755705045849467 2.3914111002973693
  endloop
endfacet
facet normal 0.5970300016676454 -0.535826794978996 -0.5970300016676453
  outer loop
    vertex -2.2962491142165655 -0.9635073482034322 -4.774818697648909
    vertex 4.774818697648909 -0.9635073482034322 2.2962491142165664
    vertex 4.679656711568105 -1.1755705045849467 2.3914111002973693
  endloop
endfacet
facet normal 0.6398093445997579 -0.42577929156507444 -0.6398093445997578
  outer loop
    vertex -2.2962491142165655 -0.9635073482034322 -4.774818697648909
    vertex -2.2206313896139753 -0.7362491053693557 -4.8504364222515
    vertex 4.774818697648909 -0.9635073482034322 2.2962491142165664
  endloop
endfacet
facet normal 0.6398093445997576 -0.42577929156507544 -0.6398093445997576
  outer loop
    vertex -2.2206313896139753 -0.7362491053693557 -4.8504364222515
    vertex 4.8504364222515 -0.7362491053693557 2.2206313896139758
    vertex 4.774818697648909 -0.9635073482034322 2.2962491142165664
  endloop
endfacet
facet normal 0.6724985119639575 -0.30901699437494684 -0.6724985119639575
  outer loop
    vertex -2.2206313896139753 -0.7362491053693557 -4.8504364222515
    vertex -2.165750463178423 -0.4973797743297107 -4.905317348687053
    vertex 4.8504364222515 -0.7362491053693557 2.2206313896139758
  endloop
endfacet
facet normal 0.6724985119639575 -0.3090169943749472 -0.6724985119639574
  outer loop
    vertex -2.165750463178423 -0.4973797743297107 -4.905317348687053
    vertex 4.905317348687052 -0.4973797743297107 2.1657504631784232
    vertex 4.8504364222515 -0.7362491053693557 2.2206313896139758
  endloop
endfacet
facet normal 0.6945819760633464 -0.1873813145857239 -0.6945819760633463
  outer loop
    vertex -2.165750463178423 -0.4973797743297107 -4.905317348687053
    vertex -2.1324718399040705 -0.2506664671286093 -4.938595971961404
    vertex 4.905317348687052 -0.4973797743297107 2.1657504631784232
  endloop
endfacet
facet normal 0.6945819760633463 -0.1873813145857253 -0.6945819760633462
  outer loop
    vertex -2.1324718399040705 -0.2506664671286093 -4.938595971961404
    vertex 4.938595971961404 -0.2506664671286093 2.1324718399040714
    vertex 4.905317348687052 -0.4973797743297107 2.1657504631784232
  endloop
endfacet
facet normal 0.7057114674770557 -0.06279051952931537 -0.7057114674770557
  outer loop
    vertex -2.1324718399040705 -0.2506664671286093 -4.938595971961404
    vertex -2.121320343559642 0.0 -4.949747468305833
    vertex 4.938595971961404 -0.2506664671286093 2.1324718399040714
  endloop
endfacet
facet normal 0.7057114674770557 -0.06279051952931548 -0.7057114674770557
  outer loop
    vertex -2.121320343559642 0.0 -4.949747468305833
    vertex 4.949747468305833 0.0 2.121320343559643
    vertex 4.938595971961404 -0.2506664671286093 2.1324718399040714
  endloop
endfacet
facet normal 0.7071067811865475 1.2387596384822124E-15 0.7071067811865476
  outer loop
    vertex 4.949747468305833 0.0 2.121320343559643
    vertex 4.938595971961404 0.2506664671286085 2.132471839904071
    vertex 3.5355339059327373 0.0 3.5355339059327378
  endloop
endfacet
facet normal 0.7071067811865477 -1.2456800833899348E-15 0.7071067811865475
  outer loop
    vertex 4.938595971961404 0.2506664671286085 2.132471839904071
    vertex 4.905317348687053 0.4973797743297096 2.165750463178423
    vertex 3.5355339059327373 0.0 3.5355339059327378
  endloop
endfacet
facet normal 0.7071067811865475 -5.536355926177489E-17 0.7071067811865477
  outer loop
    vertex 4.905317348687053 0.4973797743297096 2.165750463178423
    vertex 4.8504364222515 0.7362491053693558 2.2206313896139758
    vertex 3.5355339059327373 0.0 3.5355339059327378
  endloop
endfacet
facet normal 0.7071067811865475 -8.304533889266217E-17 0.7071067811865477
  outer loop
    vertex 4.8504364222515 0.7362491053693558 2.2206313896139758
    vertex 4.77481869764891 0.9635073482034306 2.2962491142165655
    vertex 3.5355339059327373 0.0 3.5355339059327378
  endloop
endfacet
facet normal 0.7071067811865475 -8.304533889266232E-17 0.7071067811865477
  outer loop
    vertex 4.77481869764891 0.9635073482034306 2.2962491142165655
    vertex 4.679656711568106 1.1755705045849463 2.3914111002973693
    vertex 3.5355339059327373 0.0 3.5355339059327378
  endloop
endfacet
facet normal 0.7071067811865469 9.411805074501727E-16 0.7071067811865481
  outer loop
    vertex 4.679656711568106 1.1755705045849463 2.3914111002973693
    vertex 4.566451225376597 1.3690942118573772 2.504616586488878
    vertex 3.5355339059327373 0.0 3.5355339059327378
  endloop
endfacet
facet normal 0.7071067811865469 9.41180507450172E-16 0.7071067811865481
  outer loop
    vertex 4.566451225376597 1.3690942118573772 2.504616586488878
    vertex 4.436987557217303 1.5410264855515785 2.634080254648172
    vertex 3.5355339059327373 0.0 3.5355339059327378
  endloop
endfacet
facet normal 0.7071067811865482 -6.64362711141298E-16 0.7071067811865468
  outer loop
    vertex 4.436987557217303 1.5410264855515785 2.634080254648172
    vertex 4.293307426474942 1.6886558510040302 2.777760385390533
    vertex 3.5355339059327373 0.0 3.5355339059327378
  endloop
endfacet
facet normal 0.7071067811865483 -6.64362711141299E-16 0.7071067811865468
  outer loop
    vertex 4.293307426474942 1.6886558510040302 2.777760385390533
    vertex 4.137676754641672 1.8096541049320392 2.9333910572238038
    vertex 3.5355339059327373 0.0 3.5355339059327378
  endloop
endfacet
facet normal 0.7071067811865467 3.8754491483242384E-16 0.7071067811865483
  outer loop
    vertex 4.137676754641672 1.8096541049320392 2.9333910572238038
    vertex 3.9725499303815583 1.902113032590307 3.0985178814839167
    vertex 3.5355339059327373 0.0 3.5355339059327378
  endloop
endfacet
facet normal 0.7071067811865476 0.0 0.7071067811865476
  outer loop
    vertex 3.9725499303815583 1.902113032590307 3.0985178814839167
    vertex 3.8005311023551687 1.9645745014573772 3.2705367095103064
    vertex 3.5355339059327373 0.0 3.5355339059327378
  endloop
endfacet
facet normal 0.7071067811865476 0.0 0.7071067811865476
  outer loop
    vertex 3.8005311023551687 1.9645745014573772 3.2705367095103064
    vertex 3.624333110239545 1.9960534568565431 3.44673470162593
    vertex 3.5355339059327373 0.0 3.5355339059327378
  endloop
endfacet
facet normal 0.7071067811865476 0.0 0.7071067811865476
  outer loop
    vertex 3.624333110239545 1.9960534568565431 3.44673470162593
    vertex 3.4467347016259295 1.9960534568565431 3.6243331102395455
    vertex 3.5355339059327373 0.0 3.5355339059327378
  endloop
endfacet
facet normal 0.7071067811865476 0.0 0.7071067811865476
  outer loop
    vertex 3.4467347016259295 1.9960534568565431 3.6243331102395455
    vertex 3.270536709510306 1.9645745014573774 3.800531102355169
    vertex 3.5355339059327373 0.0 3.5355339059327378
  endloop
endfacet
facet normal 0.7071067811865476 0.0 0.7071067811865476
  outer loop
    vertex 3.270536709510306 1.9645745014573774 3.800531102355169
    vertex 3.0985178814839167 1.9021130325903073 3.9725499303815583
    vertex 3.5355339059327373 0.0 3.5355339059327378
  endloop
endfacet
facet normal 0.7071067811865467 -3.875449148324227E-16 0.7071067811865483
  outer loop
    vertex 3.0985178814839167 1.9021130325903073 3.9725499303815583
    vertex 2.933391057223803 1.809654104932039 4.137676754641672
    vertex 3.5355339059327373 0.0 3.5355339059327378
  endloop
endfacet
facet normal 0.7071067811865482 6.643627111412975E-16 0.7071067811865468
  outer loop
    vertex 2.933391057223803 1.809654104932039 4.137676754641672
    vertex 2.777760385390532 1.68865585100403 4.293307426474943
    vertex 3.5355339059327373 0.0 3.5355339059327378
  endloop
endfacet
facet normal 0.7071067811865476 0.0 0.7071067811865476
  outer loop
    vertex 2.777760385390532 1.68865585100403 4.293307426474943
    vertex 2.6340802546481714 1.5410264855515785 4.436987557217304
    vertex 3.5355339059327373 0.0 3.5355339059327378
  endloop
endfacet
facet normal 0.7071067811865468 -8.027716092957374E-16 0.7071067811865482
  outer loop
    vertex 2.6340802546481714 1.5410264855515785 4.436987557217304
    vertex 2.5046165864888774 1.3690942118573777 4.566451225376597
    vertex 3.5355339059327373 0.0 3.5355339059327378
  endloop
endfacet
facet normal 0.707106781186548 1.0242258463428344E-15 0.707106781186547
  outer loop
    vertex 2.5046165864888774 1.3690942118573777 4.566451225376597
    vertex 2.391411100297369 1.1755705045849465 4.679656711568106
    vertex 3.5355339059327373 0.0 3.5355339059327378
  endloop
endfacet
facet normal 0.707106781186547 -1.024225846342833E-15 0.7071067811865481
  outer loop
    vertex 2.391411100297369 1.1755705045849465 4.679656711568106
    vertex 2.2962491142165646 0.9635073482034304 4.77481869764891
    vertex 3.5355339059327373 0.0 3.5355339059327378
  endloop
endfacet
facet normal 0.7071067811865483 2.2699059297327743E-15 0.7071067811865468
  outer loop
    vertex 2.2962491142165646 0.9635073482034304 4.77481869764891
    vertex 2.2206313896139758 0.7362491053693563 4.8504364222515
    vertex 3.5355339059327373 0.0 3.5355339059327378
  endloop
endfacet
facet normal 0.7071067811865477 -5.5363559261775E-17 0.7071067811865475
  outer loop
    vertex 2.2206313896139758 0.7362491053693563 4.8504364222515
    vertex 2.165750463178423 0.4973797743297105 4.905317348687053
    vertex 3.5355339059327373 0.0 3.5355339059327378
  endloop
endfacet
facet normal 0.7071067811865472 -2.4498374973335358E-15 0.7071067811865479
  outer loop
    vertex 2.165750463178423 0.4973797743297105 4.905317348687053
    vertex 2.1324718399040705 0.25066646712860907 4.938595971961404
    vertex 3.5355339059327373 0.0 3.5355339059327378
  endloop
endfacet
facet normal 0.7071067811865475 1.3840889815443694E-17 0.7071067811865477
  outer loop
    vertex 2.1324718399040705 0.25066646712860907 4.938595971961404
    vertex 2.121320343559642 2.4492935982947064E-16 4.949747468305833
    vertex 3.5355339059327373 0.0 3.5355339059327378
  endloop
endfacet
facet normal 0.7071067811865474 2.4913601667798657E-15 0.7071067811865476
  outer loop
    vertex 2.121320343559642 2.4492935982947064E-16 4.949747468305833
    vertex 2.1324718399040705 -0.25066646712860857 4.938595971961405
    vertex 3.5355339059327373 0.0 3.5355339059327378
  endloop
endfacet
facet normal 0.7071067811865479 -2.4636783871489862E-15 0.7071067811865472
  outer loop
    vertex 2.1324718399040705 -0.25066646712860857 4.938595971961405
    vertex 2.165750463178422 -0.49737977432970915 4.905317348687053
    vertex 3.5355339059327373 0.0 3.5355339059327378
  endloop
endfacet
facet normal 0.7071067811865472 1.1626347444972704E-15 0.7071067811865479
  outer loop
    vertex 2.165750463178422 -0.49737977432970915 4.905317348687053
    vertex 2.2206313896139753 -0.7362491053693558 4.8504364222515
    vertex 3.5355339059327373 0.0 3.5355339059327378
  endloop
endfacet
facet normal 0.7071067811865479 -1.1626347444972706E-15 0.7071067811865472
  outer loop
    vertex 2.2206313896139753 -0.7362491053693558 4.8504364222515
    vertex 2.2962491142165646 -0.9635073482034308 4.77481869764891
    vertex 3.5355339059327373 0.0 3.5355339059327378
  endloop
endfacet
facet normal 0.7071067811865466 2.131497031578343E-15 0.7071067811865486
  outer loop
    vertex 2.2962491142165646 -0.9635073482034308 4.77481869764891
    vertex 2.3914111002973684 -1.1755705045849454 4.679656711568107
    vertex 3.5355339059327373 0.0 3.5355339059327378
  endloop
endfacet
facet normal 0.7071067811865481 -9.411805074501716E-16 0.7071067811865469
  outer loop
    vertex 2.3914111002973684 -1.1755705045849454 4.679656711568107
    vertex 2.504616586488877 -1.3690942118573768 4.566451225376598
    vertex 3.5355339059327373 0.0 3.5355339059327378
  endloop
endfacet
facet normal 0.7071067811865481 -9.41180507450167E-16 0.707106781186547
  outer loop
    vertex 2.504616586488877 -1.3690942118573768 4.566451225376598
    vertex 2.634080254648172 -1.5410264855515787 4.436987557217303
    vertex 3.5355339059327373 0.0 3.5355339059327378
  endloop
endfacet
facet normal 0.7071067811865475 -1.1072711852354974E-16 0.7071067811865476
  outer loop
    vertex 2.634080254648172 -1.5410264855515787 4.436987557217303
    vertex 2.7777603853905326 -1.6886558510040306 4.293307426474942
    vertex 3.5355339059327373 0.0 3.5355339059327378
  endloop
endfacet
facet normal 0.7071067811865475 -1.3840889815443683E-16 0.7071067811865476
  outer loop
    vertex 2.7777603853905326 -1.6886558510040306 4.293307426474942
    vertex 2.9333910572238038 -1.8096541049320396 4.137676754641671
    vertex 3.5355339059327373 0.0 3.5355339059327378
  endloop
endfacet
facet normal 0.7071067811865476 -1.3840889815443799E-16 0.7071067811865476
  outer loop
    vertex 2.9333910572238038 -1.8096541049320396 4.137676754641671
    vertex 3.098517881483916 -1.902113032590307 3.972549930381559
    vertex 3.5355339059327373 0.0 3.5355339059327378
  endloop
endfacet
facet normal 0.7071067811865467 2.491360166779868E-16 0.7071067811865485
  outer loop
    vertex 3.098517881483916 -1.902113032590307 3.972549930381559
    vertex 3.270536709510306 -1.9645745014573774 3.800531102355169
    vertex 3.5355339059327373 0.0 3.5355339059327378
  endloop
endfacet
facet normal 0.7071067811865476 0.0 0.7071067811865476
  outer loop
    vertex 3.270536709510306 -1.9645745014573774 3.800531102355169
    vertex 3.44673470162593 -1.9960534568565431 3.624333110239545
    vertex 3.5355339059327373 0.0 3.5355339059327378
  endloop
endfacet
facet normal 0.7071067811865476 0.0 0.7071067811865476
  outer loop
    vertex 3.44673470162593 -1.9960534568565431 3.624333110239545
    vertex 3.624333110239544 -1.9960534568565431 3.446734701625931
    vertex 3.5355339059327373 0.0 3.5355339059327378
  endloop
endfacet
facet normal 0.7071067811865467 -8.304533889266219E-17 0.7071067811865485
  outer loop
    vertex 3.624333110239544 -1.9960534568565431 3.446734701625931
    vertex 3.8005311023551682 -1.9645745014573774 3.2705367095103073
    vertex 3.5355339059327373 0.0 3.5355339059327378
  endloop
endfacet
facet normal 0.7071067811865475 1.5224978796988066E-16 0.7071067811865476
  outer loop
    vertex 3.8005311023551682 -1.9645745014573774 3.2705367095103073
    vertex 3.9725499303815583 -1.9021130325903073 3.098517881483917
    vertex 3.5355339059327373 0.0 3.5355339059327378
  endloop
endfacet
facet normal 0.7071067811865492 9.134987278192908E-16 0.7071067811865459
  outer loop
    vertex 3.9725499303815583 -1.9021130325903073 3.098517881483917
    vertex 4.13767675464167 -1.8096541049320398 2.9333910572238047
    vertex 3.5355339059327373 0.0 3.5355339059327378
  endloop
endfacet
facet normal 0.707106781186546 -1.217998303759034E-15 0.7071067811865491
  outer loop
    vertex 4.13767675464167 -1.8096541049320398 2.9333910572238047
    vertex 4.293307426474943 -1.68865585100403 2.7777603853905326
    vertex 3.5355339059327373 0.0 3.5355339059327378
  endloop
endfacet
facet normal 0.7071067811865476 1.3840889815443809E-16 0.7071067811865476
  outer loop
    vertex 4.293307426474943 -1.68865585100403 2.7777603853905326
    vertex 4.436987557217303 -1.5410264855515792 2.6340802546481727
    vertex 3.5355339059327373 0.0 3.5355339059327378
  endloop
endfacet
facet normal 0.7071067811865489 1.7162703371150214E-15 0.7071067811865462
  outer loop
    vertex 4.436987557217303 -1.5410264855515792 2.6340802546481727
    vertex 4.566451225376596 -1.369094211857378 2.5046165864888783
    vertex 3.5355339059327373 0.0 3.5355339059327378
  endloop
endfacet
facet normal 0.7071067811865476 -8.304533889266219E-17 0.7071067811865475
  outer loop
    vertex 4.566451225376596 -1.369094211857378 2.5046165864888783
    vertex 4.679656711568105 -1.1755705045849467 2.3914111002973693
    vertex 3.5355339059327373 0.0 3.5355339059327378
  endloop
endfacet
facet normal 0.7071067811865466 -2.103815251947456E-15 0.7071067811865485
  outer loop
    vertex 4.679656711568105 -1.1755705045849467 2.3914111002973693
    vertex 4.774818697648909 -0.9635073482034322 2.2962491142165664
    vertex 3.5355339059327373 0.0 3.5355339059327378
  endloop
endfacet
facet normal 0.7071067811865475 5.5363559261774333E-17 0.7071067811865477
  outer loop
    vertex 4.774818697648909 -0.9635073482034322 2.2962491142165664
    vertex 4.8504364222515 -0.7362491053693557 2.2206313896139758
    vertex 3.5355339059327373 0.0 3.5355339059327378
  endloop
endfacet
facet normal 0.7071067811865478 1.217998303759055E-15 0.7071067811865474
  outer loop
    vertex 4.8504364222515 -0.7362491053693557 2.2206313896139758
    vertex 4.905317348687052 -0.4973797743297107 2.1657504631784232
    vertex 3.5355339059327373 0.0 3.5355339059327378
  endloop
endfacet
facet normal 0.7071067811865474 -1.2179983037590457E-15 0.7071067811865478
  outer loop
    vertex 4.905317348687052 -0.4973797743297107 2.1657504631784232
    vertex 4.938595971961404 -0.2506664671286093 2.1324718399040714
    vertex 3.5355339059327373 0.0 3.5355339059327378
  endloop
endfacet
facet normal 0.7071067811865475 1.384088981544367E-17 0.7071067811865477
  outer loop
    vertex 4.938595971961404 -0.2506664671286093 2.1324718399040714
    vertex 4.949747468305833 0.0 2.121320343559643
    vertex 3.5355339059327373 0.0 3.5355339059327378
  endloop
endfacet
endsolid
